SplineFontDB: 3.0
FontName: Jost-Bold
FullName: Jost* 700 Bold
FamilyName: Jost*
Weight: Bold
Copyright: Copyright (c) 2018, Owen Earl,,,
UComments: "2018-6-8: Created with FontForge (http://fontforge.org)"
Version: 003.300
ItalicAngle: 0
UnderlinePosition: -100
UnderlineWidth: 50
Ascent: 800
Descent: 200
InvalidEm: 0
LayerCount: 2
Layer: 0 0 "Back" 1
Layer: 1 0 "Fore" 0
XUID: [1021 69 1495626776 12280187]
FSType: 0
OS2Version: 0
OS2_WeightWidthSlopeOnly: 0
OS2_UseTypoMetrics: 0
CreationTime: 1528476916
ModificationTime: 1577664160
PfmFamily: 17
TTFWeight: 700
TTFWidth: 5
LineGap: 100
VLineGap: 0
OS2TypoAscent: 825
OS2TypoAOffset: 0
OS2TypoDescent: -225
OS2TypoDOffset: 0
OS2TypoLinegap: 100
OS2WinAscent: 900
OS2WinAOffset: 0
OS2WinDescent: 300
OS2WinDOffset: 0
HheadAscent: 1030
HheadAOffset: 0
HheadDescent: -350
HheadDOffset: 0
OS2CapHeight: 700
OS2XHeight: 460
OS2Vendor: 'PfEd'
Lookup: 1 0 0 "alt a" { "alt a"  } ['ss01' ('DFLT' <'dflt' > 'latn' <'dflt' > ) ]
Lookup: 1 0 0 "Tabular Numbers lookup" { "Tabular Numbers lookup"  } ['tnum' ('DFLT' <'dflt' > 'grek' <'dflt' > 'latn' <'dflt' > ) ]
Lookup: 258 0 0 "Lets get our kern on" { "kernin like nobodys business" [150,0,4] } ['kern' ('DFLT' <'dflt' > 'latn' <'dflt' > ) ]
MarkAttachClasses: 1
DEI: 91125
KernClass2: 16 14 "kernin like nobodys business"
 43 slash seven V W Wcircumflex uni040E uni0423
 175 quotedbl quotesingle asterisk grave dieresis ordfeminine macron degree acute ordmasculine circumflex breve dotaccent ring tilde quoteleft quoteright quotedblleft quotedblright
 25 nine question F P uni0420
 131 A L backslash Agrave Aacute Acircumflex Atilde Adieresis Aring Amacron Abreve Aogonek Lacute uni013B Lslash uni0410 uni0414 uni041C
 58 three eight B C germandbls uni0411 uni0412 uni0417 uni0421
 29 K X Z uni0416 uni041A uni0425
 157 at D G O Ograve Oacute Ocircumflex Otilde Odieresis Oslash Dcaron Dcroat Gcircumflex Gbreve Gdotaccent uni0122 Omacron Obreve uni041E uni0424 uni042D uni042E

StartChar: H
Encoding: 72 72 0
Width: 739
VWidth: 0
Flags: HMW
LayerCount: 2
Fore
SplineSet
157 294 m 1
 209 445 l 1
 714 445 l 1
 661 294 l 1
 157 294 l 1
693 700 m 1
 860 700 l 1
 619 0 l 1
 455 0 l 1
 693 700 l 1
251 700 m 1
 417 700 l 1
 176 0 l 1
 13 0 l 1
 251 700 l 1
EndSplineSet
EndChar

StartChar: O
Encoding: 79 79 1
Width: 772
VWidth: 0
Flags: HMW
LayerCount: 2
Fore
SplineSet
268 350 m 0
 234 258 252 143 370 140 c 0
 491 137 596 244 636 350 c 0
 671 443 652 558 533 560 c 0
 412 562 307 456 268 350 c 0
94 350 m 0
 157 549 353 716 566 716 c 0
 772 716 867 535 809 350 c 0
 746 150 550 -23 334 -22 c 0
 126 -21 36 165 94 350 c 0
EndSplineSet
EndChar

StartChar: I
Encoding: 73 73 2
Width: 300
VWidth: 0
Flags: HMW
LayerCount: 2
Fore
SplineSet
251 700 m 1
 420 700 l 1
 179 0 l 1
 13 0 l 1
 251 700 l 1
EndSplineSet
EndChar

StartChar: C
Encoding: 67 67 3
Width: 659
VWidth: 0
Flags: HMW
LayerCount: 2
Fore
SplineSet
273 350 m 0
 236 252 274 149 389 146 c 0
 475 144 554 190 623 236 c 1
 569 54 l 1
 500 12 426 -16 344 -16 c 0
 137 -15 34 161 94 350 c 0
 158 553 358 715 574 716 c 0
 648 716 709 691 765 644 c 1
 709 462 l 1
 671 521 620 554 548 554 c 0
 428 553 314 460 273 350 c 0
EndSplineSet
EndChar

StartChar: E
Encoding: 69 69 4
Width: 567
VWidth: 0
Flags: HMW
LayerCount: 2
Fore
SplineSet
118 0 m 1
 167 139 l 1
 505 139 l 1
 456 0 l 1
 118 0 l 1
310 561 m 1
 358 700 l 1
 696 700 l 1
 648 561 l 1
 310 561 l 1
221 300 m 1
 268 436 l 1
 587 436 l 1
 539 300 l 1
 221 300 l 1
251 700 m 1
 411 700 l 1
 170 0 l 1
 13 0 l 1
 251 700 l 1
EndSplineSet
EndChar

StartChar: F
Encoding: 70 70 6
Width: 520
VWidth: 0
Flags: HMW
LayerCount: 2
Fore
SplineSet
308 554 m 1
 358 700 l 1
 658 700 l 1
 608 554 l 1
 308 554 l 1
214 281 m 1
 262 417 l 1
 553 417 l 1
 505 281 l 1
 214 281 l 1
251 700 m 1
 411 700 l 1
 170 0 l 1
 13 0 l 1
 251 700 l 1
EndSplineSet
EndChar

StartChar: G
Encoding: 71 71 7
Width: 765
VWidth: 0
Flags: HMW
LayerCount: 2
Fore
SplineSet
424 253 m 1
 470 382 l 1
 804 382 l 1
 744 174 591 -22 347 -22 c 0
 137 -22 34 162 94 350 c 0
 159 554 360 716 578 716 c 0
 697 716 783 654 832 548 c 1
 668 473 l 1
 649 531 613 568 548 568 c 0
 422 568 308 462 266 350 c 0
 229 250 251 126 377 126 c 0
 473 126 536 179 588 253 c 1
 424 253 l 1
EndSplineSet
EndChar

StartChar: T
Encoding: 84 84 8
Width: 528
VWidth: 0
Flags: HMW
LayerCount: 2
Fore
SplineSet
133 548 m 1
 186 700 l 1
 713 700 l 1
 660 548 l 1
 480 548 l 1
 292 0 l 1
 127 0 l 1
 315 548 l 1
 133 548 l 1
EndSplineSet
EndChar

StartChar: L
Encoding: 76 76 9
Width: 496
VWidth: 0
Flags: HMW
LayerCount: 2
Fore
SplineSet
252 700 m 1
 417 700 l 1
 227 146 l 1
 492 146 l 1
 441 0 l 1
 12 0 l 1
 252 700 l 1
EndSplineSet
EndChar

StartChar: D
Encoding: 68 68 10
Width: 689
VWidth: 0
Flags: HMW
LayerCount: 2
Fore
SplineSet
251 700 m 1
 422 700 l 1
 182 0 l 1
 13 0 l 1
 251 700 l 1
261 0 m 2
 117 0 l 1
 170 151 l 1
 287 151 l 2
 411 151 513 235 556 350 c 0
 596 455 560 550 442 550 c 2
 305 550 l 1
 358 700 l 1
 480 700 l 2
 682 700 787 542 726 350 c 0
 662 146 474 0 261 0 c 2
EndSplineSet
EndChar

StartChar: Q
Encoding: 81 81 11
Width: 812
VWidth: 0
Flags: HMW
LayerCount: 2
Fore
SplineSet
268 350 m 0
 232 252 257 130 381 128 c 0
 501 126 606 225 647 331 c 0
 684 429 663 557 536 560 c 0
 415 562 308 457 268 350 c 0
94 350 m 0
 157 549 357 717 570 716 c 0
 776 715 867 534 809 350 c 0
 746 151 554 -23 338 -22 c 0
 130 -21 36 165 94 350 c 0
389 300 m 1
 543 300 l 1
 754 -12 l 1
 594 -12 l 1
 389 300 l 1
EndSplineSet
EndChar

StartChar: A
Encoding: 65 65 12
Width: 690
VWidth: 0
Flags: HMW
LayerCount: 2
Fore
SplineSet
163 135 m 1
 218 263 l 1
 550 263 l 1
 516 135 l 1
 163 135 l 1
443 442 m 1
 278 216 l 1
 273 178 l 1
 131 0 l 1
 -63 0 l 1
 544 749 l 1
 637 0 l 1
 460 0 l 1
 443 173 l 1
 459 216 l 1
 443 442 l 1
EndSplineSet
EndChar

StartChar: R
Encoding: 82 82 13
Width: 608
VWidth: 0
Flags: HMW
LayerCount: 2
Fore
SplineSet
290 317 m 1
 451 317 l 1
 548 0 l 1
 367 0 l 1
 290 317 l 1
251 700 m 1
 417 700 l 1
 176 0 l 1
 13 0 l 1
 251 700 l 1
304 556 m 1
 352 700 l 1
 485 700 l 2
 619 700 712 612 676 471 c 0
 639 326 492 242 348 242 c 2
 194 242 l 1
 241 374 l 1
 362 374 l 2
 420 374 483 408 504 466 c 0
 523 519 494 555 442 556 c 2
 304 556 l 1
EndSplineSet
EndChar

StartChar: V
Encoding: 86 86 14
Width: 690
VWidth: 0
Flags: HMW
LayerCount: 2
Fore
SplineSet
395 288 m 1
 683 699 l 1
 881 699 l 1
 300 -49 l 1
 182 700 l 1
 365 700 l 1
 395 288 l 1
EndSplineSet
EndChar

StartChar: M
Encoding: 77 77 15
Width: 838
VWidth: 0
Flags: HMW
LayerCount: 2
Fore
SplineSet
311 355 m 1
 149 0 l 1
 -28 0 l 1
 332 735 l 1
 465 312 l 1
 902 745 l 1
 753 0 l 1
 582 0 l 1
 664 343 l 1
 391 62 l 1
 311 355 l 1
EndSplineSet
EndChar

StartChar: W
Encoding: 87 87 16
Width: 1001
VWidth: 0
Flags: HMW
LayerCount: 2
Fore
SplineSet
737 290 m 1
 986 700 l 1
 1186 699 l 1
 669 -45 l 1
 588 376 l 1
 242 -46 l 1
 186 700 l 1
 374 700 l 1
 368 294 l 1
 692 740 l 1
 737 290 l 1
EndSplineSet
EndChar

StartChar: N
Encoding: 78 78 17
Width: 746
VWidth: 0
Flags: HMW
LayerCount: 2
Fore
SplineSet
707 700 m 1
 865 700 l 1
 615 -32 l 1
 307 396 l 1
 171 0 l 1
 12 0 l 1
 262 732 l 1
 570 304 l 1
 707 700 l 1
EndSplineSet
EndChar

StartChar: a
Encoding: 97 97 18
Width: 511
VWidth: 0
Flags: HMW
LayerCount: 2
Fore
SplineSet
158 136 m 0
 151 108 173 92 198 90 c 0
 261 85 303 137 333 185 c 1
 332 128 l 1
 294 47 224 -9 131 -9 c 0
 48 -9 -15 46 10 132 c 0
 39 229 147 278 242 278 c 0
 296 278 341 263 381 228 c 1
 360 160 l 1
 331 183 302 197 263 196 c 0
 222 195 167 177 158 136 c 0
169 318 m 1
 148 422 l 1
 215 450 285 473 358 473 c 0
 448 473 547 428 519 324 c 1
 409 0 l 1
 266 0 l 1
 372 294 l 1
 383 331 363 352 323 356 c 0
 271 361 216 337 169 318 c 1
EndSplineSet
Substitution2: "alt a" a.alt
EndChar

StartChar: X
Encoding: 88 88 19
Width: 645
VWidth: 0
Flags: HMW
LayerCount: 2
Fore
SplineSet
607 699 m 1
 817 699 l 1
 497 352 l 1
 605 0 l 1
 413 0 l 1
 366 228 l 1
 172 0 l 1
 -38 0 l 1
 307 366 l 1
 211 700 l 1
 404 700 l 1
 441 502 l 1
 607 699 l 1
EndSplineSet
EndChar

StartChar: K
Encoding: 75 75 20
Width: 657
VWidth: 0
Flags: HMW
LayerCount: 2
Fore
SplineSet
251 700 m 1
 423 700 l 1
 182 0 l 1
 13 0 l 1
 251 700 l 1
635 699 m 1
 839 699 l 1
 450 365 l 1
 602 0 l 1
 416 0 l 1
 260 375 l 1
 635 699 l 1
EndSplineSet
EndChar

StartChar: Y
Encoding: 89 89 21
Width: 620
VWidth: 0
Flags: HMW
LayerCount: 2
Fore
SplineSet
618 699 m 1
 815 699 l 1
 436 277 l 1
 340 0 l 1
 172 0 l 1
 274 293 l 1
 186 700 l 1
 366 700 l 1
 402 443 l 1
 618 699 l 1
EndSplineSet
EndChar

StartChar: B
Encoding: 66 66 22
Width: 624
VWidth: 0
Flags: HMW
LayerCount: 2
Fore
SplineSet
250 348 m 1
 276 422 l 1
 376 422 l 2
 423 422 479 450 496 498 c 0
 512 542 484 567 442 568 c 2
 374 569 l 1
 220 131 l 1
 292 131 l 2
 350 133 418 160 439 221 c 0
 458 277 417 301 367 303 c 2
 234 304 l 1
 267 396 l 1
 399 396 l 2
 516 395 638 331 599 196 c 0
 559 56 417 0 284 0 c 2
 12 0 l 1
 252 700 l 1
 487 700 l 2
 591 700 710 646 673 521 c 0
 637 399 501 349 386 348 c 2
 250 348 l 1
EndSplineSet
EndChar

StartChar: Z
Encoding: 90 90 23
Width: 582
VWidth: 0
Flags: HMW
LayerCount: 2
Fore
SplineSet
183 548 m 1
 236 700 l 1
 762 699 l 1
 262 147 l 1
 536 146 l 1
 484 0 l 1
 -54 0 l 1
 442 547 l 1
 183 548 l 1
EndSplineSet
EndChar

StartChar: o
Encoding: 111 111 24
Width: 554
VWidth: 0
Flags: HMW
LayerCount: 2
Fore
SplineSet
64 231 m 0
 101 368 238 470 379 470 c 0
 515 470 600 360 564 229 c 0
 527 92 390 -10 249 -10 c 0
 114 -10 28 100 64 231 c 0
214 229 m 0
 197 180 210 118 271 116 c 0
 334 114 395 175 414 231 c 0
 431 280 417 343 356 345 c 0
 293 347 233 285 214 229 c 0
EndSplineSet
EndChar

StartChar: J
Encoding: 74 74 25
Width: 310
VWidth: 0
Flags: HMW
LayerCount: 2
Fore
SplineSet
-152 -64 m 1
 -134 -81 -114 -98 -88 -97 c 0
 -44 -95 -7 -53 6 -15 c 2
 252 700 l 1
 430 700 l 1
 173 -55 l 2
 132 -172 21 -239 -102 -238 c 0
 -166 -238 -220 -214 -272 -179 c 1
 -152 -64 l 1
EndSplineSet
EndChar

StartChar: t
Encoding: 116 116 26
Width: 298
VWidth: 0
Flags: HMW
LayerCount: 2
Fore
SplineSet
107 460 m 1
 402 460 l 1
 358 335 l 1
 62 335 l 1
 107 460 l 1
236 620 m 1
 379 620 l 1
 165 0 l 1
 24 0 l 1
 236 620 l 1
EndSplineSet
EndChar

StartChar: d
Encoding: 100 100 27
Width: 579
VWidth: 0
Flags: HMW
LayerCount: 2
Fore
SplineSet
593 780 m 1
 742 780 l 1
 474 0 l 1
 327 0 l 1
 593 780 l 1
51 231 m 0
 87 350 200 471 332 470 c 0
 464 469 479 330 448 229 c 0
 413 115 318 -9 188 -9 c 0
 55 -9 17 123 51 231 c 0
205 229 m 0
 187 180 197 115 260 113 c 0
 324 111 384 176 405 231 c 0
 422 278 417 344 356 347 c 0
 291 350 226 285 205 229 c 0
EndSplineSet
EndChar

StartChar: l
Encoding: 108 108 28
Width: 254
VWidth: 0
Flags: HMW
LayerCount: 2
Fore
SplineSet
265 780 m 1
 415 780 l 1
 146 0 l 1
 -0 0 l 1
 265 780 l 1
EndSplineSet
EndChar

StartChar: i
Encoding: 105 105 29
Width: 259
VWidth: 0
Flags: HMW
LayerCount: 2
Fore
SplineSet
204 632 m 0
 204 680 243 713 292 713 c 0
 341 713 380 680 380 632 c 0
 380 584 341 550 292 550 c 0
 243 550 204 584 204 632 c 0
160 460 m 1
 305 460 l 1
 148 0 l 1
 4 0 l 1
 160 460 l 1
EndSplineSet
EndChar

StartChar: r
Encoding: 114 114 30
Width: 393
VWidth: 0
Flags: HMW
LayerCount: 2
Fore
SplineSet
302 460 m 1
 143 0 l 1
 -2 0 l 1
 157 460 l 1
 302 460 l 1
384 304 m 1
 371 316 358 328 338 329 c 0
 282 331 237 268 221 227 c 1
 213 282 l 1
 247 362 328 470 410 471 c 0
 443 471 463 452 484 429 c 1
 384 304 l 1
EndSplineSet
EndChar

StartChar: c
Encoding: 99 99 31
Width: 454
VWidth: 0
Flags: HMW
LayerCount: 2
Fore
SplineSet
204 229 m 0
 184 171 209 115 274 112 c 0
 332 109 385 145 428 178 c 1
 389 31 l 1
 343 6 294 -10 241 -10 c 0
 105 -10 17 98 53 231 c 0
 91 370 229 470 372 470 c 0
 422 470 465 455 506 429 c 1
 466 282 l 1
 444 323 412 349 363 349 c 0
 289 349 226 293 204 229 c 0
EndSplineSet
EndChar

StartChar: b
Encoding: 98 98 32
Width: 579
VWidth: 0
Flags: HMW
LayerCount: 2
Fore
SplineSet
413 780 m 1
 145 0 l 1
 -4 0 l 1
 264 780 l 1
 413 780 l 1
577 229 m 0
 541 110 429 -11 297 -10 c 0
 165 -9 150 130 181 231 c 0
 216 345 312 469 442 469 c 0
 575 469 611 337 577 229 c 0
425 231 m 0
 443 280 432 345 369 347 c 0
 305 349 245 284 224 229 c 0
 207 182 213 116 274 113 c 0
 339 110 404 175 425 231 c 0
EndSplineSet
EndChar

StartChar: p
Encoding: 112 112 33
Width: 579
VWidth: 0
Flags: HMW
LayerCount: 2
Fore
SplineSet
71 -220 m 1
 -79 -220 l 1
 155 460 l 1
 302 460 l 1
 71 -220 l 1
577 229 m 0
 540 109 429 -17 294 -16 c 0
 158 -15 156 130 187 230 c 0
 222 344 311 474 443 475 c 0
 579 476 611 337 577 229 c 0
425 231 m 0
 443 281 428 339 367 341 c 0
 305 343 244 284 224 229 c 0
 207 180 217 123 276 119 c 0
 339 115 405 175 425 231 c 0
EndSplineSet
EndChar

StartChar: q
Encoding: 113 113 34
Width: 579
VWidth: 0
Flags: HMW
LayerCount: 2
Fore
SplineSet
250 -220 m 1
 484 460 l 1
 633 460 l 1
 399 -220 l 1
 250 -220 l 1
51 231 m 0
 88 351 199 477 334 476 c 0
 470 475 473 330 442 230 c 0
 407 116 318 -14 186 -15 c 0
 50 -16 17 123 51 231 c 0
205 229 m 0
 187 179 201 121 262 119 c 0
 324 117 385 176 405 231 c 0
 422 280 412 337 353 341 c 0
 290 345 225 285 205 229 c 0
EndSplineSet
EndChar

StartChar: h
Encoding: 104 104 35
Width: 534
VWidth: 0
Flags: HMW
LayerCount: 2
Fore
SplineSet
415 780 m 1
 146 0 l 1
 -2 0 l 1
 266 780 l 1
 415 780 l 1
379 280 m 2
 390 312 396 357 351 363 c 0
 302 369 264 316 242 281 c 1
 214 282 l 1
 251 376 317 475 430 476 c 0
 538 477 558 389 530 302 c 1
 426 0 l 1
 280 0 l 1
 379 280 l 2
EndSplineSet
EndChar

StartChar: n
Encoding: 110 110 36
Width: 540
VWidth: 0
Flags: HMW
LayerCount: 2
Fore
SplineSet
379 280 m 2
 390 311 395 363 344 363 c 0
 296 363 259 328 244 284 c 2
 146 0 l 1
 -2 0 l 1
 157 460 l 1
 305 460 l 1
 284 400 l 1
 320 441 368 469 428 470 c 0
 535 471 563 384 533 296 c 2
 433 0 l 1
 280 0 l 1
 379 280 l 2
EndSplineSet
EndChar

StartChar: m
Encoding: 109 109 37
Width: 771
VWidth: 0
Flags: HMW
LayerCount: 2
Fore
SplineSet
765 296 m 2
 664 0 l 1
 515 0 l 1
 616 280 l 2
 625 307 637 362 595 362 c 0
 550 362 512 327 497 282 c 2
 402 0 l 1
 254 0 l 1
 354 281 l 2
 362 309 376 362 334 362 c 0
 292 362 254 330 240 288 c 2
 141 0 l 1
 -2 0 l 1
 157 460 l 1
 299 460 l 1
 279 402 l 1
 314 442 358 469 416 470 c 0
 483 471 511 435 515 388 c 1
 556 436 612 469 678 470 c 0
 784 471 789 378 765 296 c 2
EndSplineSet
EndChar

StartChar: k
Encoding: 107 107 38
Width: 542
VWidth: 0
Flags: HMW
LayerCount: 2
Fore
SplineSet
263 780 m 1
 407 780 l 1
 139 0 l 1
 -2 0 l 1
 263 780 l 1
443 459 m 1
 631 459 l 1
 368 260 l 1
 479 0 l 1
 320 0 l 1
 202 278 l 1
 443 459 l 1
EndSplineSet
EndChar

StartChar: u
Encoding: 117 117 39
Width: 540
VWidth: 0
Flags: HMW
LayerCount: 2
Fore
SplineSet
211 180 m 2
 200 148 193 97 238 97 c 0
 285 97 327 124 344 174 c 2
 443 460 l 1
 592 460 l 1
 433 0 l 1
 284 0 l 1
 305 60 l 1
 268 19 221 -10 161 -10 c 0
 54 -10 29 75 56 164 c 1
 157 460 l 1
 310 460 l 1
 211 180 l 2
EndSplineSet
EndChar

StartChar: e
Encoding: 101 101 40
Width: 539
VWidth: 0
Flags: HMW
LayerCount: 2
Fore
SplineSet
257 -10 m 0
 138 -10 56 56 56 170 c 0
 56 325 196 470 377 470 c 0
 496 470 558 401 558 295 c 0
 558 266 549 227 538 198 c 1
 125 198 l 1
 125 282 l 1
 434 282 l 1
 398 236 l 1
 406 253 414 269 414 286 c 0
 414 339 402 369 352 369 c 0
 276 369 231 301 206 209 c 0
 187 148 212 99 274 99 c 0
 321 99 357 125 386 159 c 1
 513 126 l 1
 464 42 374 -10 257 -10 c 0
EndSplineSet
EndChar

StartChar: g
Encoding: 103 103 41
Width: 574
VWidth: 0
Flags: HMW
LayerCount: 2
Fore
SplineSet
-31 -32 m 1
 107 -34 l 1
 106 -82 118 -115 172 -116 c 0
 246 -118 306 -53 328 11 c 2
 484 460 l 1
 627 460 l 1
 473 9 l 2
 424 -130 318 -237 161 -238 c 0
 29 -239 -45 -161 -31 -32 c 1
54 237 m 0
 90 356 201 471 332 470 c 0
 463 469 483 338 451 236 c 0
 416 122 321 3 192 3 c 0
 61 3 20 128 54 237 c 0
206 235 m 0
 188 185 203 127 264 125 c 0
 326 123 388 183 408 238 c 0
 425 287 415 345 356 347 c 0
 286 349 226 291 206 235 c 0
EndSplineSet
EndChar

StartChar: f
Encoding: 102 102 42
Width: 323
VWidth: 0
Flags: HMW
LayerCount: 2
Fore
SplineSet
118 460 m 1
 419 460 l 1
 375 335 l 1
 73 335 l 1
 118 460 l 1
467 636 m 1
 459 647 450 660 433 661 c 0
 398 661 371 619 361 591 c 2
 156 0 l 1
 14 0 l 1
 227 631 l 2
 261 723 341 797 444 795 c 0
 491 795 523 775 556 743 c 1
 467 636 l 1
EndSplineSet
EndChar

StartChar: s
Encoding: 115 115 43
Width: 429
VWidth: 0
Flags: HMW
LayerCount: 2
Fore
SplineSet
91 165 m 1
 125 129 169 87 224 92 c 0
 248 93 275 112 277 134 c 0
 281 170 232 186 208 196 c 0
 152 219 106 264 118 334 c 0
 134 426 222 468 305 469 c 0
 377 470 435 438 484 400 c 1
 414 306 l 1
 385 338 351 368 307 368 c 0
 280 368 254 353 251 333 c 0
 243 298 299 285 326 273 c 0
 386 247 430 206 420 133 c 0
 405 41 323 -18 227 -19 c 0
 137 -20 63 21 7 69 c 1
 91 165 l 1
EndSplineSet
EndChar

StartChar: y
Encoding: 121 121 44
Width: 489
VWidth: 0
Flags: HMW
LayerCount: 2
Fore
SplineSet
610 459 m 1
 93 -219 l 1
 -63 -219 l 1
 139 46 l 1
 96 460 l 1
 247 460 l 1
 263 91 l 1
 186 93 l 1
 451 459 l 1
 610 459 l 1
EndSplineSet
EndChar

StartChar: w
Encoding: 119 119 45
Width: 715
VWidth: 0
Flags: HMW
LayerCount: 2
Fore
SplineSet
98 460 m 1
 244 460 l 1
 252 232 l 1
 470 500 l 1
 502 229 l 1
 672 459 l 1
 834 459 l 1
 438 -33 l 1
 391 240 l 1
 154 -33 l 1
 98 460 l 1
EndSplineSet
EndChar

StartChar: v
Encoding: 118 118 46
Width: 495
VWidth: 0
Flags: HMW
LayerCount: 2
Fore
SplineSet
106 460 m 1
 259 460 l 1
 277 212 l 1
 452 459 l 1
 614 459 l 1
 200 -58 l 1
 106 460 l 1
EndSplineSet
EndChar

StartChar: x
Encoding: 120 120 47
Width: 500
VWidth: 0
Flags: HMW
LayerCount: 2
Fore
SplineSet
434 460 m 1
 607 460 l 1
 364 228 l 1
 463 0 l 1
 312 0 l 1
 258 138 l 1
 136 0 l 1
 -42 0 l 1
 211 251 l 1
 120 460 l 1
 277 460 l 1
 320 342 l 1
 434 460 l 1
EndSplineSet
EndChar

StartChar: z
Encoding: 122 122 48
Width: 490
VWidth: 0
Flags: HMW
LayerCount: 2
Fore
SplineSet
289 323 m 1
 106 323 l 1
 155 459 l 1
 588 459 l 1
 262 137 l 1
 443 137 l 1
 395 0 l 1
 -48 0 l 1
 289 323 l 1
EndSplineSet
EndChar

StartChar: j
Encoding: 106 106 49
Width: 255
VWidth: 0
Flags: HMW
LayerCount: 2
Fore
SplineSet
200 632 m 0
 200 680 239 713 288 713 c 0
 337 713 376 680 376 632 c 0
 376 584 337 550 288 550 c 0
 239 550 200 584 200 632 c 0
-119 -78 m 1
 -111 -90 -96 -104 -79 -104 c 0
 -45 -106 -21 -60 -12 -34 c 2
 158 460 l 1
 301 460 l 1
 120 -74 l 2
 86 -166 12 -240 -91 -238 c 0
 -138 -238 -175 -217 -208 -185 c 1
 -119 -78 l 1
EndSplineSet
EndChar

StartChar: P
Encoding: 80 80 50
Width: 585
VWidth: 0
Flags: HMW
LayerCount: 2
Fore
SplineSet
251 700 m 1
 417 700 l 1
 176 0 l 1
 13 0 l 1
 251 700 l 1
305 561 m 1
 352 700 l 1
 473 700 l 1
 609 698 695 614 664 471 c 0
 632 323 483 244 337 242 c 1
 194 242 l 1
 244 382 l 1
 365 382 l 1
 422 384 485 414 506 472 c 0
 525 525 495 560 443 561 c 2
 305 561 l 1
EndSplineSet
EndChar

StartChar: U
Encoding: 85 85 51
Width: 659
VWidth: 0
Flags: HMW
LayerCount: 2
Fore
SplineSet
248 700 m 1
 412 700 l 1
 252 242 l 2
 236 188 240 126 309 124 c 0
 387 122 437 182 460 243 c 1
 619 700 l 1
 783 700 l 1
 623 230 l 2
 570 81 449 -28 276 -28 c 0
 123 -28 44 86 88 230 c 1
 248 700 l 1
EndSplineSet
EndChar

StartChar: S
Encoding: 83 83 52
Width: 588
VWidth: 0
Flags: HMW
LayerCount: 2
Fore
SplineSet
162 246 m 1
 185 180 215 125 288 126 c 0
 346 126 394 165 402 208 c 0
 414 261 349 281 308 303 c 0
 232 342 167 413 186 510 c 0
 211 635 339 717 475 716 c 0
 585 715 653 654 684 560 c 1
 546 493 l 1
 529 534 506 572 445 572 c 0
 401 572 359 548 351 509 c 0
 337 458 425 429 461 412 c 0
 542 375 592 308 574 211 c 0
 546 74 409 -23 264 -22 c 0
 145 -21 58 54 30 163 c 1
 162 246 l 1
EndSplineSet
EndChar

StartChar: at
Encoding: 64 64 53
Width: 724
VWidth: 0
Flags: HMW
LayerCount: 2
Fore
SplineSet
352 319 m 0
 344 298 338 259 366 253 c 0
 412 241 467 328 479 364 c 0
 486 385 493 425 464 431 c 0
 418 442 364 354 352 319 c 0
235 314 m 0
 261 405 348 534 456 530 c 0
 540 527 546 432 528 369 c 0
 502 278 422 155 315 155 c 0
 225 155 215 245 235 314 c 0
70 320 m 0
 137 530 344 723 573 722 c 0
 763 721 839 553 788 390 c 0
 754 281 660 138 530 144 c 0
 454 148 450 204 457 265 c 1
 454 296 l 1
 551 520 l 1
 662 520 l 1
 565 308 l 2
 561 299 557 291 554 281 c 0
 550 269 544 248 560 242 c 0
 611 222 668 358 680 391 c 0
 719 499 697 621 558 622 c 0
 384 623 235 473 179 320 c 0
 134 196 171 78 317 75 c 0
 384 74 449 95 511 118 c 1
 522 26 l 1
 449 -6 370 -26 290 -25 c 0
 91 -22 14 143 70 320 c 0
EndSplineSet
EndChar

StartChar: period
Encoding: 46 46 54
Width: 303
VWidth: 0
Flags: HMW
LayerCount: 2
Fore
SplineSet
33 68 m 0
 33 119 72 160 127 160 c 0
 182 160 221 119 221 68 c 0
 221 17 182 -24 127 -24 c 0
 72 -24 33 17 33 68 c 0
EndSplineSet
EndChar

StartChar: comma
Encoding: 44 44 55
Width: 304
VWidth: 0
Flags: HMW
LayerCount: 2
Fore
SplineSet
91 108 m 1
 234 74 l 1
 31 -170 l 1
 -80 -146 l 1
 91 108 l 1
EndSplineSet
EndChar

StartChar: colon
Encoding: 58 58 56
Width: 303
VWidth: 0
Flags: HMW
LayerCount: 2
Fore
SplineSet
27 68 m 0
 27 119 66 160 121 160 c 0
 176 160 215 119 215 68 c 0
 215 17 176 -24 121 -24 c 0
 66 -24 27 17 27 68 c 0
154 441 m 0
 154 492 193 533 248 533 c 0
 303 533 342 492 342 441 c 0
 342 390 303 349 248 349 c 0
 193 349 154 390 154 441 c 0
EndSplineSet
EndChar

StartChar: semicolon
Encoding: 59 59 57
Width: 369
VWidth: 0
Flags: HMW
LayerCount: 2
Fore
SplineSet
201 435 m 0
 201 486 240 527 295 527 c 0
 350 527 389 486 389 435 c 0
 389 384 350 343 295 343 c 0
 240 343 201 384 201 435 c 0
112 108 m 1
 254 74 l 1
 51 -170 l 1
 -59 -146 l 1
 112 108 l 1
EndSplineSet
EndChar

StartChar: quotedbl
Encoding: 34 34 58
Width: 487
VWidth: 0
Flags: HMW
LayerCount: 2
Fore
SplineSet
277 700 m 1
 437 699 l 1
 238 383 l 1
 137 382 l 1
 277 700 l 1
476 700 m 1
 636 699 l 1
 436 383 l 1
 336 382 l 1
 476 700 l 1
EndSplineSet
EndChar

StartChar: exclam
Encoding: 33 33 59
Width: 323
VWidth: 0
Flags: HMW
LayerCount: 2
Fore
SplineSet
257 700 m 1
 438 700 l 1
 248 232 l 1
 126 232 l 1
 257 700 l 1
36 62 m 0
 36 113 75 148 130 148 c 0
 185 148 225 113 225 62 c 0
 225 11 185 -24 130 -24 c 0
 75 -24 36 11 36 62 c 0
EndSplineSet
EndChar

StartChar: quotesingle
Encoding: 39 39 60
Width: 288
VWidth: 0
Flags: HMW
LayerCount: 2
Fore
SplineSet
277 700 m 1
 437 699 l 1
 238 383 l 1
 137 382 l 1
 277 700 l 1
EndSplineSet
EndChar

StartChar: numbersign
Encoding: 35 35 61
Width: 627
VWidth: 0
Flags: HMW
LayerCount: 2
Fore
SplineSet
158 413 m 1
 196 533 l 1
 726 533 l 1
 684 412 l 1
 545 412 l 1
 520 418 l 1
 328 418 l 1
 300 412 l 1
 158 413 l 1
34 172 m 1
 76 293 l 1
 202 293 l 1
 230 287 l 1
 446 287 l 1
 476 293 l 1
 606 293 l 1
 564 172 l 1
 34 172 l 1
623 699 m 1
 760 699 l 1
 359 0 l 1
 226 0 l 1
 354 224 l 1
 375 249 l 1
 493 456 l 1
 504 487 l 1
 623 699 l 1
398 700 m 1
 533 699 l 1
 411 488 l 1
 387 456 l 1
 270 251 l 1
 262 225 l 1
 132 0 l 1
 0 0 l 1
 398 700 l 1
EndSplineSet
EndChar

StartChar: hyphen
Encoding: 45 45 62
Width: 208
VWidth: 0
Flags: HMW
LayerCount: 2
Fore
SplineSet
6 172 m 1
 52 303 l 1
 258 303 l 1
 212 172 l 1
 6 172 l 1
EndSplineSet
EndChar

StartChar: dollar
Encoding: 36 36 63
Width: 584
VWidth: 0
Flags: HMW
LayerCount: 2
Fore
SplineSet
462 818 m 1
 584 818 l 1
 521 637 l 1
 412 637 l 1
 462 818 l 1
236 61 m 1
 344 61 l 1
 295 -112 l 1
 175 -112 l 1
 236 61 l 1
545 490 m 1
 532 534 514 583 460 584 c 0
 421 585 374 558 360 520 c 0
 336 456 428 433 470 414 c 0
 559 374 607 292 580 195 c 0
 543 60 403 -12 271 -10 c 0
 156 -8 79 66 47 170 c 1
 180 251 l 1
 198 190 225 126 300 126 c 0
 344 126 393 152 408 196 c 0
 428 256 355 282 313 302 c 0
 226 344 165 422 193 522 c 0
 226 640 362 710 478 710 c 0
 582 710 648 654 684 560 c 1
 545 490 l 1
EndSplineSet
EndChar

StartChar: bar
Encoding: 124 124 64
Width: 331
VWidth: 0
Flags: HMW
LayerCount: 2
Fore
SplineSet
299 785 m 1
 448 785 l 1
 140 -215 l 1
 -9 -215 l 1
 299 785 l 1
EndSplineSet
EndChar

StartChar: zero
Encoding: 48 48 65
Width: 622
VWidth: 0
Flags: HMW
LayerCount: 2
Fore
SplineSet
258 350 m 0
 238 293 192 138 294 134 c 0
 398 130 465 269 495 350 c 0
 515 407 562 562 460 566 c 0
 356 570 288 431 258 350 c 0
100 350 m 0
 155 520 293 713 491 713 c 0
 693 713 701 498 654 350 c 0
 599 178 462 -14 263 -13 c 0
 63 -12 53 203 100 350 c 0
EndSplineSet
Substitution2: "Tabular Numbers lookup" uniFF10
EndChar

StartChar: one
Encoding: 49 49 66
Width: 478
VWidth: 0
Flags: HMW
LayerCount: 2
Fore
SplineSet
174 495 m 1
 228 647 l 1
 574 715 l 1
 328 0 l 1
 169 0 l 1
 354 537 l 1
 174 495 l 1
EndSplineSet
Substitution2: "Tabular Numbers lookup" uniFF11
EndChar

StartChar: two
Encoding: 50 50 67
Width: 617
VWidth: 0
Flags: HMW
LayerCount: 2
Fore
SplineSet
-22 0 m 1
 370 323 l 2
 420 365 493 414 511 481 c 0
 523 525 504 566 456 568 c 0
 384 572 340 498 314 442 c 1
 152 442 l 1
 202 589 324 715 488 714 c 0
 612 714 716 620 681 491 c 0
 660 411 597 349 533 301 c 2
 336 156 l 1
 594 155 l 1
 546 0 l 1
 -22 0 l 1
EndSplineSet
Substitution2: "Tabular Numbers lookup" uniFF12
EndChar

StartChar: four
Encoding: 52 52 68
Width: 656
VWidth: 0
Flags: HMW
LayerCount: 2
Fore
SplineSet
-4 126 m 1
 573 699 l 1
 701 700 l 1
 462 0 l 1
 291 0 l 1
 350 175 l 1
 372 186 l 1
 461 439 l 1
 262 247 l 1
 487 247 l 1
 511 268 l 1
 658 268 l 1
 608 124 l 1
 -4 126 l 1
EndSplineSet
Substitution2: "Tabular Numbers lookup" uniFF14
EndChar

StartChar: slash
Encoding: 47 47 69
Width: 572
VWidth: 0
Flags: HMW
LayerCount: 2
Fore
SplineSet
599 699 m 1
 751 699 l 1
 57 -149 l 1
 -97 -149 l 1
 599 699 l 1
EndSplineSet
EndChar

StartChar: backslash
Encoding: 92 92 70
Width: 513
VWidth: 0
Flags: HMW
LayerCount: 2
Fore
SplineSet
200 700 m 1
 336 700 l 1
 443 0 l 1
 309 0 l 1
 200 700 l 1
EndSplineSet
EndChar

StartChar: eight
Encoding: 56 56 71
Width: 589
VWidth: 0
Flags: HMW
LayerCount: 2
Fore
SplineSet
197 532 m 0
 232 648 359 716 475 716 c 0
 581 716 681 646 647 530 c 0
 613 413 484 343 368 343 c 0
 260 343 163 416 197 532 c 0
344 514 m 0
 332 480 342 437 383 436 c 0
 432 435 476 478 490 516 c 0
 502 550 491 592 450 593 c 0
 400 594 358 553 344 514 c 0
57 191 m 0
 95 320 237 396 366 396 c 0
 483 396 593 317 555 189 c 0
 517 61 372 -16 245 -16 c 0
 129 -16 20 65 57 191 c 0
227 214 m 0
 211 172 225 123 275 122 c 0
 333 121 385 169 402 217 c 0
 416 257 400 305 352 306 c 0
 295 307 245 259 227 214 c 0
EndSplineSet
Substitution2: "Tabular Numbers lookup" uniFF18
EndChar

StartChar: nine
Encoding: 57 57 72
Width: 629
VWidth: 0
Flags: HMW
LayerCount: 2
Fore
SplineSet
531 455 m 0
 550 510 528 569 464 571 c 0
 397 573 331 514 311 454 c 0
 292 400 313 338 377 336 c 0
 444 334 511 394 531 455 c 0
290 4 m 1
 74 4 l 1
 366 254 l 1
 410 268 l 1
 375 246 337 228 294 228 c 0
 172 229 122 348 150 454 c 0
 190 605 337 716 492 716 c 0
 642 716 732 599 691 454 c 0
 670 377 615 313 559 259 c 2
 290 4 l 1
EndSplineSet
Substitution2: "Tabular Numbers lookup" uniFF19
EndChar

StartChar: three
Encoding: 51 51 73
Width: 583
VWidth: 0
Flags: HMW
LayerCount: 2
Fore
SplineSet
329 340 m 1
 349 414 l 1
 404 423 488 445 503 509 c 0
 512 545 495 576 457 577 c 0
 404 580 369 535 344 495 c 1
 191 497 l 1
 237 621 345 713 482 713 c 0
 593 713 699 640 666 518 c 0
 627 373 456 345 329 340 c 1
268 -16 m 0
 126 -15 54 87 75 222 c 1
 233 222 l 1
 227 170 237 124 299 121 c 0
 353 119 411 157 428 209 c 0
 454 285 376 300 319 306 c 1
 343 391 l 1
 463 386 625 346 584 190 c 0
 548 55 399 -17 268 -16 c 0
EndSplineSet
Substitution2: "Tabular Numbers lookup" uniFF13
EndChar

StartChar: five
Encoding: 53 53 74
Width: 606
VWidth: 0
Flags: HMW
LayerCount: 2
Fore
SplineSet
607 223 m 0
 567 79 420 -12 275 -13 c 0
 177 -14 96 24 29 80 c 1
 128 216 l 1
 165 175 209 143 270 142 c 0
 335 142 415 175 435 243 c 0
 454 305 402 337 346 339 c 0
 276 342 207 320 141 298 c 1
 352 700 l 1
 741 700 l 1
 694 553 l 1
 433 554 l 1
 348 428 l 1
 385 442 426 453 466 452 c 0
 591 449 637 331 607 223 c 0
EndSplineSet
Substitution2: "Tabular Numbers lookup" uniFF15
EndChar

StartChar: six
Encoding: 54 54 75
Width: 629
VWidth: 0
Flags: HMW
LayerCount: 2
Fore
SplineSet
246 245 m 0
 227 190 249 131 313 129 c 0
 380 127 447 186 467 246 c 0
 486 300 464 362 400 364 c 0
 333 366 266 306 246 245 c 0
487 696 m 1
 704 696 l 1
 411 446 l 1
 368 432 l 1
 403 454 440 472 483 472 c 0
 605 471 655 352 627 246 c 0
 587 95 440 -16 285 -16 c 0
 135 -16 45 101 86 246 c 0
 107 323 162 387 218 441 c 2
 487 696 l 1
EndSplineSet
Substitution2: "Tabular Numbers lookup" uniFF16
EndChar

StartChar: seven
Encoding: 55 55 76
Width: 566
VWidth: 0
Flags: HMW
LayerCount: 2
Fore
SplineSet
157 542 m 1
 207 699 l 1
 754 699 l 1
 218 0 l 1
 34 0 l 1
 459 542 l 1
 157 542 l 1
EndSplineSet
Substitution2: "Tabular Numbers lookup" uniFF17
EndChar

StartChar: plus
Encoding: 43 43 77
Width: 634
VWidth: 0
Flags: HMW
LayerCount: 2
Fore
SplineSet
72 197 m 1
 122 342 l 1
 640 342 l 1
 589 196 l 1
 72 197 l 1
371 540 m 1
 525 541 l 1
 337 -2 l 1
 186 -2 l 1
 371 540 l 1
EndSplineSet
EndChar

StartChar: equal
Encoding: 61 61 78
Width: 588
VWidth: 0
Flags: HMW
LayerCount: 2
Fore
SplineSet
25 84 m 1
 70 215 l 1
 560 215 l 1
 514 84 l 1
 25 84 l 1
94 290 m 1
 140 421 l 1
 630 421 l 1
 585 290 l 1
 94 290 l 1
EndSplineSet
EndChar

StartChar: percent
Encoding: 37 37 79
Width: 864
VWidth: 0
Flags: HMW
LayerCount: 2
Fore
SplineSet
147 535 m 0
 175 632 277 718 381 718 c 0
 483 718 535 625 508 533 c 0
 480 436 378 350 274 350 c 0
 172 350 120 443 147 535 c 0
266 532 m 0
 258 506 268 470 306 469 c 0
 340 468 378 505 388 536 c 0
 396 562 388 599 350 600 c 0
 316 601 276 563 266 532 c 0
488 167 m 0
 516 264 618 350 722 350 c 0
 824 350 876 257 849 165 c 0
 821 68 719 -18 615 -18 c 0
 513 -18 461 75 488 167 c 0
608 164 m 0
 599 138 612 102 644 101 c 0
 678 100 717 131 730 168 c 0
 739 194 726 231 694 232 c 0
 660 233 621 201 608 164 c 0
789 699 m 1
 952 699 l 1
 206 0 l 1
 45 0 l 1
 789 699 l 1
EndSplineSet
EndChar

StartChar: ampersand
Encoding: 38 38 80
Width: 707
VWidth: 0
Flags: HMW
LayerCount: 2
Fore
SplineSet
294 372 m 2
 263 426 232 480 249 544 c 0
 276 649 396 716 500 716 c 0
 595 716 673 646 648 547 c 0
 622 447 514 388 429 344 c 0
 360 309 242 284 216 200 c 0
 200 150 233 120 281 116 c 0
 420 105 547 251 635 340 c 1
 716 260 l 1
 593 130 428 -16 238 -13 c 0
 124 -12 26 66 59 188 c 0
 97 328 244 369 361 420 c 0
 410 442 498 476 512 535 c 0
 519 563 507 594 469 595 c 0
 434 596 399 570 387 534 c 0
 372 485 407 438 429 400 c 2
 654 0 l 1
 500 0 l 1
 294 372 l 2
EndSplineSet
EndChar

StartChar: question
Encoding: 63 63 81
Width: 589
VWidth: 0
Flags: HMW
LayerCount: 2
Fore
SplineSet
511 501 m 0
 529 554 498 588 445 590 c 0
 377 593 316 547 267 505 c 1
 189 593 l 1
 272 662 370 720 481 719 c 0
 604 718 696 624 658 499 c 0
 621 378 504 313 389 285 c 1
 354 202 l 1
 230 202 l 1
 270 379 l 1
 298 379 l 1
 375 383 483 420 511 501 c 0
145 60 m 0
 145 106 187 141 236 141 c 0
 286 141 327 106 327 60 c 0
 327 12 285 -23 236 -23 c 0
 186 -23 145 12 145 60 c 0
EndSplineSet
EndChar

StartChar: parenleft
Encoding: 40 40 82
Width: 320
VWidth: 0
Flags: HMW
LayerCount: 2
Fore
SplineSet
377 779 m 1
 514 778 l 1
 410 626 318 466 262 290 c 0
 212 132 191 -36 215 -201 c 1
 86 -201 l 1
 55 -37 70 130 117 290 c 0
 170 469 261 634 377 779 c 1
EndSplineSet
EndChar

StartChar: parenright
Encoding: 41 41 83
Width: 320
VWidth: 0
Flags: HMW
LayerCount: 2
Fore
SplineSet
54 -199 m 1
 -82 -198 l 1
 22 -46 113 114 169 290 c 0
 219 448 240 616 216 781 c 1
 345 781 l 1
 376 617 362 450 315 290 c 0
 262 111 170 -54 54 -199 c 1
EndSplineSet
EndChar

StartChar: asterisk
Encoding: 42 42 84
Width: 557
VWidth: 0
Flags: HMW
LayerCount: 2
Fore
SplineSet
617 603 m 1
 615 470 l 1
 381 428 l 1
 381 502 l 1
 617 603 l 1
517 311 m 1
 383 230 l 1
 348 449 l 1
 411 486 l 1
 517 311 l 1
234 235 m 1
 147 322 l 1
 356 485 l 1
 405 439 l 1
 234 235 l 1
154 473 m 1
 234 601 l 1
 409 495 l 1
 366 430 l 1
 154 473 l 1
394 700 m 1
 534 699 l 1
 420 465 l 1
 349 465 l 1
 394 700 l 1
EndSplineSet
EndChar

StartChar: less
Encoding: 60 60 85
Width: 602
VWidth: 0
Flags: HMW
LayerCount: 2
Fore
SplineSet
301 259 m 1
 540 139 l 1
 490 2 l 1
 78 217 l 1
 113 317 l 1
 673 533 l 1
 618 372 l 1
 301 259 l 1
EndSplineSet
EndChar

StartChar: greater
Encoding: 62 62 86
Width: 602
VWidth: 0
Flags: HMW
LayerCount: 2
Fore
SplineSet
373 268 m 1
 135 389 l 1
 184 526 l 1
 596 310 l 1
 561 211 l 1
 1 -5 l 1
 55 155 l 1
 373 268 l 1
EndSplineSet
EndChar

StartChar: bracketleft
Encoding: 91 91 87
Width: 340
VWidth: 0
Flags: HMW
LayerCount: 2
Fore
SplineSet
396 649 m 1
 168 -89 l 1
 264 -89 l 1
 222 -220 l 1
 -20 -220 l 1
 289 780 l 1
 531 780 l 1
 490 649 l 1
 396 649 l 1
EndSplineSet
EndChar

StartChar: bracketright
Encoding: 93 93 88
Width: 340
VWidth: 0
Flags: HMW
LayerCount: 2
Fore
SplineSet
50 -89 m 1
 277 649 l 1
 181 649 l 1
 223 780 l 1
 465 780 l 1
 156 -220 l 1
 -87 -220 l 1
 -46 -89 l 1
 50 -89 l 1
EndSplineSet
EndChar

StartChar: asciicircum
Encoding: 94 94 89
Width: 479
VWidth: 0
Flags: HMW
LayerCount: 2
Fore
SplineSet
389 576 m 1
 270 448 l 1
 128 448 l 1
 379 709 l 1
 467 710 l 1
 538 447 l 1
 415 447 l 1
 389 576 l 1
EndSplineSet
EndChar

StartChar: underscore
Encoding: 95 95 90
Width: 499
VWidth: 0
Flags: HMW
LayerCount: 2
Fore
SplineSet
-109 -153 m 1
 -76 -58 l 1
 429 -58 l 1
 396 -153 l 1
 -109 -153 l 1
EndSplineSet
EndChar

StartChar: grave
Encoding: 96 96 91
Width: 352
VWidth: 0
Flags: HMW
LayerCount: 2
Fore
SplineSet
217 658 m 1
 336 707 l 1
 434 542 l 1
 347 504 l 1
 217 658 l 1
EndSplineSet
EndChar

StartChar: braceleft
Encoding: 123 123 92
Width: 374
VWidth: 0
Flags: HMW
LayerCount: 2
Fore
SplineSet
407 609 m 2
 370 489 l 2
 335 379 286 301 166 281 c 1
 170 301 l 1
 283 276 272 183 244 89 c 2
 206 -30 l 2
 197 -58 204 -78 233 -79 c 2
 270 -80 l 1
 234 -199 l 1
 154 -200 l 2
 74 -198 14 -142 39 -60 c 2
 96 125 l 2
 110 174 115 204 72 235 c 1
 103 344 l 1
 153 368 176 404 194 456 c 2
 251 641 l 2
 278 725 354 778 440 780 c 1
 536 780 l 1
 501 661 l 1
 470 661 l 2
 439 661 416 640 407 609 c 2
EndSplineSet
EndChar

StartChar: braceright
Encoding: 125 125 93
Width: 374
VWidth: 0
Flags: HMW
LayerCount: 2
Fore
SplineSet
81 -30 m 2
 118 91 l 2
 153 201 203 279 323 299 c 1
 318 279 l 1
 205 304 216 397 244 491 c 2
 282 611 l 2
 291 638 283 658 255 659 c 2
 219 659 l 1
 254 780 l 1
 334 780 l 2
 414 778 474 722 449 640 c 2
 392 455 l 2
 378 406 373 376 416 345 c 1
 385 236 l 1
 335 212 312 176 294 124 c 2
 238 -61 l 2
 212 -145 134 -198 48 -200 c 1
 -48 -200 l 1
 -13 -81 l 1
 18 -81 l 2
 49 -81 72 -61 81 -30 c 2
EndSplineSet
EndChar

StartChar: asciitilde
Encoding: 126 126 94
Width: 541
VWidth: 0
Flags: HMW
LayerCount: 2
Fore
SplineSet
168 162 m 1
 53 168 l 1
 53 176 54 186 56 194 c 0
 64 229 85 263 110 288 c 0
 145 323 195 346 246 345 c 0
 287 344 321 322 351 296 c 0
 365 284 384 263 405 263 c 0
 425 263 444 286 452 302 c 0
 457 312 456 326 456 337 c 1
 572 330 l 1
 572 320 571 311 569 302 c 0
 561 267 542 232 517 206 c 0
 487 175 442 153 398 154 c 0
 358 155 324 179 294 204 c 0
 276 219 255 239 230 237 c 0
 205 235 181 214 171 192 c 0
 167 183 168 172 168 162 c 1
EndSplineSet
EndChar

StartChar: exclamdown
Encoding: 161 161 95
Width: 323
VWidth: 0
Flags: HMW
LayerCount: 2
Fore
SplineSet
119 -229 m 1
 -63 -229 l 1
 128 239 l 1
 249 239 l 1
 119 -229 l 1
337 407 m 0
 325 361 271 323 224 324 c 0
 176 325 144 363 157 411 c 0
 169 457 223 495 270 494 c 0
 318 493 350 455 337 407 c 0
EndSplineSet
EndChar

StartChar: cent
Encoding: 162 162 96
Width: 545
VWidth: 0
Flags: HMW
LayerCount: 2
Fore
SplineSet
178 38 m 1
 288 38 l 1
 244 -112 l 1
 117 -112 l 1
 178 38 l 1
218 229 m 0
 197 172 219 115 285 112 c 0
 343 109 397 145 441 178 c 1
 397 30 l 1
 351 6 302 -10 249 -10 c 0
 113 -9 28 99 68 231 c 0
 110 370 250 469 394 470 c 0
 444 470 487 456 528 429 c 1
 482 280 l 1
 461 322 433 349 383 349 c 0
 314 349 242 292 218 229 c 0
355 578 m 1
 482 578 l 1
 421 428 l 1
 312 428 l 1
 355 578 l 1
EndSplineSet
EndChar

StartChar: sterling
Encoding: 163 163 97
Width: 574
VWidth: 0
Flags: HMW
LayerCount: 2
Fore
SplineSet
133 370 m 1
 495 370 l 1
 459 270 l 1
 97 270 l 1
 133 370 l 1
518 468 m 1
 526 516 528 573 465 575 c 0
 415 577 365 539 346 494 c 0
 314 420 379 345 357 269 c 0
 325 155 199 85 94 53 c 1
 168 139 l 1
 504 139 l 1
 455 0 l 1
 -6 0 l 1
 78 85 184 166 220 286 c 0
 245 368 178 440 201 522 c 0
 234 640 370 710 486 709 c 0
 601 708 674 629 663 517 c 1
 518 468 l 1
EndSplineSet
EndChar

StartChar: currency
Encoding: 164 164 98
Width: 542
VWidth: 0
Flags: HMW
LayerCount: 2
Fore
SplineSet
137 507 m 1
 215 566 l 1
 279 457 l 1
 207 405 l 1
 137 507 l 1
45 35 m 1
 1 105 l 1
 125 196 l 1
 168 130 l 1
 45 35 l 1
517 404 m 1
 472 474 l 1
 597 566 l 1
 640 498 l 1
 517 404 l 1
358 138 m 1
 435 196 l 1
 499 89 l 1
 428 36 l 1
 358 138 l 1
93 301 m 0
 131 427 256 540 392 540 c 0
 525 540 582 416 546 299 c 0
 508 173 384 60 248 60 c 0
 115 60 57 184 93 301 c 0
225 299 m 0
 208 253 223 200 278 198 c 0
 336 196 395 249 414 301 c 0
 431 347 417 400 362 402 c 0
 304 404 244 351 225 299 c 0
EndSplineSet
EndChar

StartChar: yen
Encoding: 165 165 99
Width: 629
VWidth: 0
Flags: HMW
LayerCount: 2
Fore
SplineSet
76 265 m 1
 111 365 l 1
 658 365 l 1
 623 265 l 1
 76 265 l 1
25 115 m 1
 60 215 l 1
 607 215 l 1
 572 115 l 1
 25 115 l 1
622 699 m 1
 818 699 l 1
 441 279 l 1
 345 0 l 1
 175 0 l 1
 278 294 l 1
 190 700 l 1
 369 700 l 1
 405 443 l 1
 622 699 l 1
EndSplineSet
EndChar

StartChar: brokenbar
Encoding: 166 166 100
Width: 331
VWidth: 0
Flags: HMW
LayerCount: 2
Fore
SplineSet
275 695 m 1
 424 695 l 1
 332 430 l 1
 183 430 l 1
 275 695 l 1
279 270 m 1
 187 5 l 1
 38 5 l 1
 130 270 l 1
 279 270 l 1
EndSplineSet
EndChar

StartChar: section
Encoding: 167 167 101
Width: 542
VWidth: 0
Flags: HMW
LayerCount: 2
Fore
SplineSet
518 551 m 1
 496 576 471 599 435 598 c 0
 417 598 374 587 369 566 c 0
 362 537 422 528 440 520 c 0
 502 498 548 444 529 376 c 0
 498 266 375 237 276 231 c 1
 290 271 l 1
 327 284 374 303 387 345 c 0
 405 398 346 416 309 435 c 0
 252 464 215 513 234 579 c 0
 260 670 362 722 451 723 c 0
 519 724 574 698 612 645 c 1
 518 551 l 1
118 172 m 1
 145 135 181 101 235 103 c 0
 257 103 298 115 306 139 c 0
 316 173 262 184 240 194 c 0
 178 216 118 262 138 336 c 0
 168 445 298 472 395 478 c 1
 383 441 l 1
 347 427 298 409 284 368 c 0
 264 311 334 298 371 279 c 0
 429 250 468 195 449 129 c 0
 422 31 311 -22 216 -22 c 0
 131 -22 66 16 22 78 c 1
 118 172 l 1
EndSplineSet
EndChar

StartChar: dieresis
Encoding: 168 168 102
Width: 480
VWidth: 0
Flags: HMW
LayerCount: 2
Fore
SplineSet
430 634 m 0
 440 676 492 714 535 713 c 0
 579 712 611 674 600 630 c 0
 590 588 539 550 496 551 c 0
 452 552 419 590 430 634 c 0
201 634 m 0
 211 676 263 714 306 713 c 0
 350 712 382 674 371 630 c 0
 361 588 310 550 267 551 c 0
 223 552 190 590 201 634 c 0
EndSplineSet
EndChar

StartChar: copyright
Encoding: 169 169 103
Width: 752
VWidth: 0
Flags: HMW
LayerCount: 2
Fore
SplineSet
346 349 m 0
 325 289 351 231 419 228 c 0
 471 226 517 254 559 281 c 1
 530 172 l 1
 489 148 447 131 399 131 c 0
 276 131 206 235 238 351 c 0
 271 473 390 568 518 569 c 0
 564 569 601 553 637 526 c 1
 607 417 l 1
 582 450 554 473 510 473 c 0
 439 473 369 415 346 349 c 0
165 350 m 0
 117 206 176 43 346 41 c 0
 522 39 682 190 735 350 c 0
 783 494 724 657 554 659 c 0
 378 661 218 510 165 350 c 0
108 350 m 0
 162 541 347 711 551 710 c 0
 749 709 841 527 791 350 c 0
 737 159 552 -11 348 -10 c 0
 150 -9 58 173 108 350 c 0
EndSplineSet
EndChar

StartChar: registered
Encoding: 174 174 104
Width: 752
VWidth: 0
Flags: HMW
LayerCount: 2
Fore
SplineSet
421 328 m 1
 506 328 l 1
 565 150 l 1
 456 150 l 1
 421 328 l 1
378 570 m 1
 478 570 l 1
 348 150 l 1
 248 150 l 1
 378 570 l 1
412 484 m 1
 438 569 l 1
 517 570 l 1
 593 567 661 523 640 438 c 0
 618 352 532 307 449 303 c 1
 354 302 l 1
 379 380 l 1
 453 380 l 1
 484 383 526 401 536 434 c 0
 545 464 521 481 495 484 c 1
 412 484 l 1
165 350 m 0
 117 206 176 43 346 41 c 0
 522 39 682 190 735 350 c 0
 783 494 724 657 554 659 c 0
 378 661 218 510 165 350 c 0
108 350 m 0
 162 541 347 711 551 710 c 0
 749 709 841 527 791 350 c 0
 737 159 552 -11 348 -10 c 0
 150 -9 58 173 108 350 c 0
EndSplineSet
EndChar

StartChar: ordfeminine
Encoding: 170 170 105
Width: 253
VWidth: 0
Flags: HMW
LayerCount: 2
Fore
SplineSet
215 528 m 0
 212 516 221 506 233 505 c 0
 264 504 284 531 302 552 c 1
 300 522 l 1
 277 486 249 455 202 456 c 0
 161 457 129 488 141 530 c 0
 155 576 211 602 255 603 c 0
 284 604 305 593 328 578 c 1
 317 543 l 1
 302 553 288 563 269 562 c 0
 251 562 220 547 215 528 c 0
222 624 m 1
 213 681 l 1
 245 693 279 705 314 705 c 0
 360 705 406 683 397 630 c 1
 340 460 l 1
 267 461 l 1
 323 611 l 1
 320 628 321 639 301 643 c 0
 276 648 245 633 222 624 c 1
EndSplineSet
EndChar

StartChar: ordmasculine
Encoding: 186 186 106
Width: 261
VWidth: 0
Flags: HMW
LayerCount: 2
Fore
SplineSet
159 582 m 0
 178 648 249 699 317 699 c 0
 385 699 430 644 411 578 c 0
 392 511 320 461 252 461 c 0
 184 461 140 516 159 582 c 0
234 579 m 0
 226 558 233 526 260 524 c 0
 289 522 326 555 335 581 c 0
 343 602 337 635 310 637 c 0
 281 639 243 605 234 579 c 0
EndSplineSet
EndChar

StartChar: guillemotleft
Encoding: 171 171 107
Width: 508
VWidth: 0
Flags: HMW
LayerCount: 2
Fore
SplineSet
364 253 m 1
 440 59 l 1
 335 -1 l 1
 250 264 l 1
 498 508 l 1
 572 438 l 1
 364 253 l 1
173 253 m 1
 249 59 l 1
 143 -1 l 1
 59 264 l 1
 306 508 l 1
 380 438 l 1
 173 253 l 1
EndSplineSet
EndChar

StartChar: guillemotright
Encoding: 187 187 108
Width: 508
VWidth: 0
Flags: HMW
LayerCount: 2
Fore
SplineSet
210 257 m 1
 134 451 l 1
 240 511 l 1
 324 246 l 1
 78 2 l 1
 3 72 l 1
 210 257 l 1
402 257 m 1
 326 451 l 1
 432 511 l 1
 516 246 l 1
 269 2 l 1
 194 72 l 1
 402 257 l 1
EndSplineSet
EndChar

StartChar: uni00AD
Encoding: 173 173 109
Width: 197
VWidth: 0
Flags: HMW
LayerCount: 2
Fore
SplineSet
20 201 m 1
 44 275 l 1
 237 275 l 1
 212 201 l 1
 20 201 l 1
EndSplineSet
EndChar

StartChar: logicalnot
Encoding: 172 172 110
Width: 611
VWidth: 0
Flags: HMW
LayerCount: 2
Fore
SplineSet
100 272 m 1
 143 403 l 1
 638 403 l 1
 559 175 l 1
 454 175 l 1
 492 272 l 1
 100 272 l 1
EndSplineSet
EndChar

StartChar: macron
Encoding: 175 175 111
Width: 499
VWidth: 0
Flags: HMW
LayerCount: 2
Fore
SplineSet
215 572 m 1
 256 703 l 1
 611 703 l 1
 570 572 l 1
 215 572 l 1
EndSplineSet
EndChar

StartChar: degree
Encoding: 176 176 112
Width: 278
VWidth: 0
Flags: HMW
LayerCount: 2
Fore
SplineSet
163 598 m 0
 182 664 253 719 322 719 c 0
 391 719 434 661 415 595 c 0
 396 528 324 475 254 475 c 0
 185 475 144 532 163 598 c 0
235 596 m 0
 227 574 235 542 263 540 c 0
 294 538 332 571 342 598 c 0
 350 620 342 653 314 655 c 0
 283 657 245 623 235 596 c 0
EndSplineSet
EndChar

StartChar: plusminus
Encoding: 177 177 113
Width: 595
VWidth: 0
Flags: HMW
LayerCount: 2
Fore
SplineSet
27 6 m 1
 67 136 l 1
 547 136 l 1
 505 6 l 1
 27 6 l 1
127 332 m 1
 170 469 l 1
 649 469 l 1
 606 332 l 1
 127 332 l 1
380 620 m 1
 531 620 l 1
 394 181 l 1
 245 182 l 1
 380 620 l 1
EndSplineSet
EndChar

StartChar: uni00B2
Encoding: 178 178 114
Width: 383
VWidth: 0
Flags: HMW
LayerCount: 2
Fore
SplineSet
59 283 m 1
 301 476 l 2
 332 500 380 531 391 571 c 0
 398 594 391 619 364 622 c 0
 321 627 292 579 274 548 c 1
 175 549 l 1
 211 635 280 711 380 710 c 0
 456 710 516 652 494 574 c 0
 480 527 442 491 404 463 c 2
 283 376 l 1
 435 374 l 1
 402 282 l 1
 59 283 l 1
EndSplineSet
EndChar

StartChar: uni00B3
Encoding: 179 179 115
Width: 343
VWidth: 0
Flags: HMW
LayerCount: 2
Fore
SplineSet
256 485 m 1
 270 528 l 1
 304 536 354 547 366 586 c 0
 372 605 361 625 340 626 c 0
 309 627 287 600 270 579 c 1
 176 580 l 1
 210 651 269 707 352 707 c 0
 418 707 484 663 462 590 c 0
 436 504 332 490 256 485 c 1
216 271 m 0
 128 272 91 332 100 414 c 1
 194 413 l 1
 194 384 195 356 231 353 c 0
 261 350 302 379 311 407 c 0
 326 452 278 458 246 464 c 1
 262 514 l 1
 334 509 433 488 407 393 c 0
 385 314 293 270 216 271 c 0
EndSplineSet
EndChar

StartChar: acute
Encoding: 180 180 116
Width: 352
VWidth: 0
Flags: HMW
LayerCount: 2
Fore
SplineSet
469 648 m 1
 258 505 l 1
 181 552 l 1
 367 705 l 1
 469 648 l 1
EndSplineSet
EndChar

StartChar: mu
Encoding: 181 181 117
Width: 563
VWidth: 0
Flags: HMW
LayerCount: 2
Fore
SplineSet
310 460 m 1
 215 196 l 2
 201 158 212 121 258 121 c 0
 306 121 339 155 356 202 c 2
 450 460 l 1
 589 460 l 1
 436 0 l 1
 284 0 l 1
 302 51 l 1
 273 15 237 -3 203 -3 c 0
 180 -3 162 1 146 17 c 1
 34 -320 l 1
 -110 -320 l 1
 158 460 l 1
 310 460 l 1
EndSplineSet
EndChar

StartChar: paragraph
Encoding: 182 182 118
Width: 631
VWidth: 0
Flags: HMW
LayerCount: 2
Fore
SplineSet
307 272 m 1
 192 287 128 368 165 486 c 0
 206 617 322 700 453 700 c 2
 763 700 l 1
 449 -220 l 1
 319 -220 l 1
 602 607 l 1
 552 607 l 1
 268 -220 l 1
 139 -220 l 1
 307 272 l 1
EndSplineSet
EndChar

StartChar: periodcentered
Encoding: 183 183 119
Width: 303
VWidth: 0
Flags: HMW
LayerCount: 2
Fore
SplineSet
98 270 m 0
 111 316 165 361 214 360 c 0
 264 359 293 313 280 266 c 0
 267 220 213 176 164 177 c 0
 114 178 85 223 98 270 c 0
EndSplineSet
EndChar

StartChar: uni00B9
Encoding: 185 185 120
Width: 453
VWidth: 0
Flags: HMW
LayerCount: 2
Fore
SplineSet
264 571 m 1
 295 662 l 1
 506 704 l 1
 357 274 l 1
 260 274 l 1
 370 595 l 1
 264 571 l 1
EndSplineSet
EndChar

StartChar: cedilla
Encoding: 184 184 121
Width: 370
VWidth: 0
Flags: HMW
LayerCount: 2
Fore
SplineSet
136 70 m 1
 252 66 l 1
 121 -55 l 1
 131 -53 140 -50 150 -51 c 0
 202 -56 226 -102 213 -150 c 0
 195 -215 122 -254 59 -256 c 0
 9 -258 -32 -241 -73 -215 c 1
 -13 -151 l 1
 7 -163 28 -176 53 -175 c 0
 72 -174 118 -160 122 -137 c 0
 126 -116 96 -109 82 -108 c 0
 53 -106 22 -115 -6 -121 c 1
 136 70 l 1
EndSplineSet
EndChar

StartChar: questiondown
Encoding: 191 191 122
Width: 589
VWidth: 0
Flags: HMW
LayerCount: 2
Fore
SplineSet
209 199 m 0
 191 146 222 112 275 110 c 0
 343 107 405 153 454 195 c 1
 531 107 l 1
 448 38 351 -20 240 -19 c 0
 117 -18 24 76 62 201 c 0
 99 322 216 387 331 415 c 1
 366 498 l 1
 490 499 l 1
 451 321 l 1
 423 321 l 1
 346 317 237 280 209 199 c 0
569 639 m 0
 557 595 500 558 456 559 c 0
 411 560 376 597 388 643 c 0
 400 687 456 724 500 723 c 0
 545 722 581 685 569 639 c 0
EndSplineSet
EndChar

StartChar: multiply
Encoding: 215 215 123
Width: 560
VWidth: 0
Flags: HMW
LayerCount: 2
Fore
SplineSet
84 3 m 1
 22 105 l 1
 230 262 l 1
 130 421 l 1
 244 508 l 1
 337 347 l 1
 542 507 l 1
 604 405 l 1
 396 248 l 1
 496 89 l 1
 382 2 l 1
 289 163 l 1
 84 3 l 1
EndSplineSet
EndChar

StartChar: Oslash
Encoding: 216 216 124
Width: 743
VWidth: 0
Flags: HMW
LayerCount: 2
Fore
SplineSet
268 350 m 0
 233 257 251 142 370 140 c 0
 491 137 596 243 636 350 c 0
 671 443 652 558 533 560 c 0
 412 563 308 457 268 350 c 0
94 350 m 0
 157 549 352 717 566 716 c 0
 771 715 867 535 809 350 c 0
 746 151 549 -23 334 -22 c 0
 126 -21 36 166 94 350 c 0
852 755 m 1
 910 696 l 1
 45 -56 l 1
 -11 -3 l 1
 852 755 l 1
EndSplineSet
EndChar

StartChar: Thorn
Encoding: 222 222 125
Width: 575
VWidth: 0
Flags: HMW
LayerCount: 2
Fore
SplineSet
257 700 m 1
 402 700 l 1
 162 0 l 1
 19 0 l 1
 257 700 l 1
257 446 m 1
 305 579 l 1
 426 579 l 0
 561 575 662 495 618 352 c 0
 574 207 435 132 291 128 c 0
 149 128 l 1
 196 261 l 1
 318 261 l 1
 382 264 448 290 472 354 c 0
 495 415 454 441 398 445 c 1
 257 446 l 1
EndSplineSet
EndChar

StartChar: divide
Encoding: 247 247 126
Width: 601
VWidth: 0
Flags: HMW
LayerCount: 2
Fore
SplineSet
344 555 m 0
 357 601 411 646 460 645 c 0
 510 644 539 598 526 551 c 0
 513 505 460 461 411 462 c 0
 361 463 331 508 344 555 c 0
189 100 m 0
 202 146 256 191 305 190 c 0
 355 189 383 143 370 96 c 0
 357 50 304 6 255 7 c 0
 205 8 176 53 189 100 c 0
56 260 m 1
 104 396 l 1
 662 396 l 1
 614 259 l 1
 56 260 l 1
EndSplineSet
EndChar

StartChar: oslash
Encoding: 248 248 127
Width: 513
VWidth: 0
Flags: HMW
LayerCount: 2
Fore
SplineSet
51 231 m 0
 93 368 230 470 374 470 c 0
 511 470 592 361 552 229 c 0
 510 92 373 -10 229 -10 c 0
 92 -10 11 99 51 231 c 0
190 229 m 0
 169 174 185 112 252 110 c 0
 321 108 392 169 414 231 c 0
 434 284 416 348 351 350 c 0
 283 352 213 289 190 229 c 0
539 505 m 1
 592 467 l 1
 51 -49 l 1
 -0 -14 l 1
 539 505 l 1
EndSplineSet
EndChar

StartChar: circumflex
Encoding: 710 710 128
Width: 451
VWidth: 0
Flags: HMW
LayerCount: 2
Fore
SplineSet
393 627 m 1
 278 544 l 1
 195 620 l 1
 421 755 l 1
 568 610 l 1
 450 543 l 1
 393 627 l 1
EndSplineSet
EndChar

StartChar: ogonek
Encoding: 731 731 129
Width: 244
VWidth: 0
Flags: HMW
LayerCount: 2
Fore
SplineSet
112 -111 m 1
 126 -183 l 1
 96 -204 62 -220 24 -220 c 0
 -34 -220 -78 -178 -64 -118 c 0
 -46 -42 43 -5 106 25 c 1
 145 0 l 1
 109 -24 51 -49 39 -94 c 0
 35 -109 38 -127 56 -130 c 0
 73 -133 98 -118 112 -111 c 1
EndSplineSet
EndChar

StartChar: tilde
Encoding: 732 732 130
Width: 498
VWidth: 0
Flags: HMW
LayerCount: 2
Fore
SplineSet
230 640 m 1
 260 684 307 734 366 731 c 0
 409 729 435 679 479 682 c 0
 511 684 536 713 558 733 c 1
 611 656 l 1
 576 616 521 569 464 574 c 0
 421 578 393 631 349 625 c 0
 320 621 303 597 287 576 c 1
 230 640 l 1
EndSplineSet
EndChar

StartChar: ring
Encoding: 730 730 131
Width: 307
VWidth: 0
Flags: HMW
LayerCount: 2
Fore
SplineSet
243 771 m 0
 261 833 329 884 394 884 c 0
 459 884 501 830 483 767 c 0
 465 705 395 655 330 655 c 0
 265 655 225 709 243 771 c 0
318 768 m 0
 313 751 320 725 340 723 c 0
 363 720 399 751 406 771 c 0
 411 788 404 814 384 816 c 0
 361 819 325 788 318 768 c 0
EndSplineSet
EndChar

StartChar: dotaccent
Encoding: 729 729 132
Width: 282
VWidth: 0
Flags: HMW
LayerCount: 2
Fore
SplineSet
280 816 m 0
 289 860 336 895 381 895 c 0
 427 895 460 858 451 812 c 0
 442 768 395 733 350 733 c 0
 304 733 271 770 280 816 c 0
EndSplineSet
EndChar

StartChar: uni2010
Encoding: 8208 8208 133
Width: 208
VWidth: 0
Flags: HMW
LayerCount: 2
Fore
SplineSet
6 172 m 1
 52 303 l 1
 258 303 l 1
 212 172 l 1
 6 172 l 1
EndSplineSet
EndChar

StartChar: endash
Encoding: 8211 8211 134
Width: 737
VWidth: 0
Flags: HMW
LayerCount: 2
Fore
SplineSet
68 172 m 1
 113 303 l 1
 719 303 l 1
 673 172 l 1
 68 172 l 1
EndSplineSet
EndChar

StartChar: figuredash
Encoding: 8210 8210 135
Width: 590
VWidth: 0
Flags: HMW
LayerCount: 2
Fore
SplineSet
68 172 m 1
 113 303 l 1
 569 303 l 1
 523 172 l 1
 68 172 l 1
EndSplineSet
EndChar

StartChar: emdash
Encoding: 8212 8212 136
Width: 883
VWidth: 0
Flags: HMW
LayerCount: 2
Fore
SplineSet
68 172 m 1
 113 303 l 1
 868 303 l 1
 823 172 l 1
 68 172 l 1
EndSplineSet
EndChar

StartChar: minus
Encoding: 8722 8722 137
Width: 557
VWidth: 0
Flags: HMW
LayerCount: 2
Fore
SplineSet
56 172 m 1
 101 303 l 1
 557 303 l 1
 511 172 l 1
 56 172 l 1
EndSplineSet
EndChar

StartChar: quoteright
Encoding: 8217 8217 138
Width: 311
VWidth: 0
Flags: HMW
LayerCount: 2
Fore
SplineSet
278 700 m 1
 438 699 l 1
 251 446 l 1
 140 446 l 1
 278 700 l 1
EndSplineSet
EndChar

StartChar: quoteleft
Encoding: 8216 8216 139
Width: 311
VWidth: 0
Flags: HMW
LayerCount: 2
Fore
SplineSet
316 445 m 1
 156 446 l 1
 343 699 l 1
 454 699 l 1
 316 445 l 1
EndSplineSet
EndChar

StartChar: quotesinglbase
Encoding: 8218 8218 140
Width: 311
VWidth: 0
Flags: HMW
LayerCount: 2
Fore
SplineSet
76 80 m 1
 235 79 l 1
 49 -174 l 1
 -62 -174 l 1
 76 80 l 1
EndSplineSet
EndChar

StartChar: quotedblleft
Encoding: 8220 8220 141
Width: 528
VWidth: 0
Flags: HMW
LayerCount: 2
Fore
SplineSet
316 445 m 1
 156 446 l 1
 343 699 l 1
 454 699 l 1
 316 445 l 1
533 445 m 1
 373 446 l 1
 560 699 l 1
 672 699 l 1
 533 445 l 1
EndSplineSet
EndChar

StartChar: quotedblright
Encoding: 8221 8221 142
Width: 528
VWidth: 0
Flags: HMW
LayerCount: 2
Fore
SplineSet
278 700 m 1
 438 699 l 1
 251 446 l 1
 140 446 l 1
 278 700 l 1
496 700 m 1
 656 699 l 1
 469 446 l 1
 358 446 l 1
 496 700 l 1
EndSplineSet
EndChar

StartChar: perthousand
Encoding: 8240 8240 143
Width: 1293
VWidth: 0
Flags: HMW
LayerCount: 2
Fore
SplineSet
916 167 m 0
 944 264 1047 350 1151 350 c 0
 1253 350 1305 257 1278 165 c 0
 1250 68 1147 -18 1043 -18 c 0
 941 -18 889 75 916 167 c 0
1036 164 m 0
 1028 138 1036 104 1068 101 c 0
 1102 98 1147 137 1157 168 c 0
 1165 194 1157 229 1125 232 c 0
 1091 235 1046 195 1036 164 c 0
147 535 m 0
 175 632 277 718 381 718 c 0
 483 718 535 625 508 533 c 0
 480 436 378 350 274 350 c 0
 172 350 120 443 147 535 c 0
266 532 m 0
 258 506 267 472 299 469 c 0
 333 466 378 505 388 536 c 0
 396 562 388 597 356 600 c 0
 322 603 276 563 266 532 c 0
488 167 m 0
 516 264 618 350 722 350 c 0
 824 350 876 257 849 165 c 0
 821 68 719 -18 615 -18 c 0
 513 -18 461 75 488 167 c 0
608 164 m 0
 600 138 609 104 641 101 c 0
 675 98 720 137 730 168 c 0
 738 194 729 229 697 232 c 0
 663 235 618 195 608 164 c 0
789 699 m 1
 952 699 l 1
 206 0 l 1
 45 0 l 1
 789 699 l 1
EndSplineSet
EndChar

StartChar: guilsinglleft
Encoding: 8249 8249 144
Width: 329
VWidth: 0
Flags: HMW
LayerCount: 2
Fore
SplineSet
173 253 m 1
 249 59 l 1
 143 -1 l 1
 59 264 l 1
 306 508 l 1
 380 438 l 1
 173 253 l 1
EndSplineSet
EndChar

StartChar: guilsinglright
Encoding: 8250 8250 145
Width: 329
VWidth: 0
Flags: HMW
LayerCount: 2
Fore
SplineSet
222 257 m 1
 146 451 l 1
 251 511 l 1
 336 246 l 1
 89 2 l 1
 14 72 l 1
 222 257 l 1
EndSplineSet
EndChar

StartChar: uni2031
Encoding: 8241 8241 146
Width: 1721
VWidth: 0
Flags: HMW
LayerCount: 2
Fore
SplineSet
1344 167 m 0
 1372 264 1474 350 1578 350 c 0
 1680 350 1733 257 1706 165 c 0
 1678 68 1575 -18 1471 -18 c 0
 1369 -18 1317 75 1344 167 c 0
1464 164 m 0
 1456 138 1464 104 1496 101 c 0
 1530 98 1576 137 1586 168 c 0
 1594 194 1585 229 1553 232 c 0
 1519 235 1474 195 1464 164 c 0
916 167 m 0
 944 264 1047 350 1151 350 c 0
 1253 350 1305 257 1278 165 c 0
 1250 68 1147 -18 1043 -18 c 0
 941 -18 889 75 916 167 c 0
1036 164 m 0
 1028 138 1036 104 1068 101 c 0
 1102 98 1147 137 1157 168 c 0
 1165 194 1157 229 1125 232 c 0
 1091 235 1046 195 1036 164 c 0
147 535 m 0
 175 632 277 718 381 718 c 0
 483 718 535 625 508 533 c 0
 480 436 378 350 274 350 c 0
 172 350 120 443 147 535 c 0
266 532 m 0
 258 506 267 472 299 469 c 0
 333 466 378 505 388 536 c 0
 396 562 388 597 356 600 c 0
 322 603 276 563 266 532 c 0
488 167 m 0
 516 264 618 350 722 350 c 0
 824 350 876 257 849 165 c 0
 821 68 719 -18 615 -18 c 0
 513 -18 461 75 488 167 c 0
608 164 m 0
 600 138 609 104 641 101 c 0
 675 98 720 137 730 168 c 0
 738 194 729 229 697 232 c 0
 663 235 618 195 608 164 c 0
789 699 m 1
 952 699 l 1
 206 0 l 1
 45 0 l 1
 789 699 l 1
EndSplineSet
EndChar

StartChar: uni203D
Encoding: 8253 8253 147
Width: 589
VWidth: 0
Flags: HMW
LayerCount: 2
Fore
SplineSet
518 482 m 0
 542 546 504 589 439 590 c 0
 370 592 314 551 267 506 c 1
 189 593 l 1
 267 667 369 719 479 718 c 0
 601 717 696 624 658 499 c 0
 614 354 458 289 319 278 c 1
 320 348 l 1
 400 360 488 401 518 482 c 0
319 504 m 1
 462 503 l 1
 331 202 l 1
 241 202 l 1
 319 504 l 1
151 64 m 0
 163 110 220 148 266 147 c 0
 313 146 347 107 335 60 c 0
 323 14 266 -24 220 -23 c 0
 173 -22 139 17 151 64 c 0
EndSplineSet
EndChar

StartChar: Euro
Encoding: 8364 8364 148
Width: 615
VWidth: 0
Flags: HMW
LayerCount: 2
Fore
SplineSet
124 382 m 1
 153 465 l 1
 621 465 l 1
 591 382 l 1
 124 382 l 1
66 250 m 1
 96 334 l 1
 558 334 l 1
 528 250 l 1
 66 250 l 1
301 350 m 0
 273 272 247 126 368 122 c 0
 428 119 486 151 536 180 c 1
 489 22 l 1
 442 0 391 -19 338 -19 c 0
 135 -19 109 196 158 350 c 0
 214 527 370 721 572 720 c 0
 622 720 665 702 708 678 c 1
 659 518 l 1
 628 555 592 581 542 580 c 0
 420 579 338 451 301 350 c 0
EndSplineSet
EndChar

StartChar: fraction
Encoding: 8260 8260 149
Width: 686
VWidth: 0
Flags: HMW
LayerCount: 2
Fore
SplineSet
723 699 m 1
 851 698 l 1
 123 0 l 1
 -5 0 l 1
 723 699 l 1
EndSplineSet
EndChar

StartChar: onequarter
Encoding: 188 188 150
Width: 773
VWidth: 0
Flags: HMW
LayerCount: 2
Fore
SplineSet
771 699 m 1
 876 698 l 1
 147 0 l 1
 43 0 l 1
 771 699 l 1
160 571 m 1
 192 662 l 1
 403 704 l 1
 254 274 l 1
 156 274 l 1
 267 595 l 1
 160 571 l 1
346 76 m 1
 449 146 l 1
 622 148 l 1
 638 161 l 1
 749 160 l 1
 718 75 l 1
 346 76 l 1
467 105 m 1
 340 70 l 1
 695 419 l 1
 776 420 l 1
 631 0 l 1
 526 0 l 1
 559 96 l 1
 572 102 l 1
 627 257 l 1
 467 105 l 1
EndSplineSet
EndChar

StartChar: onehalf
Encoding: 189 189 151
Width: 840
VWidth: 0
Flags: HMW
LayerCount: 2
Fore
SplineSet
771 699 m 1
 876 698 l 1
 147 0 l 1
 43 0 l 1
 771 699 l 1
160 571 m 1
 192 662 l 1
 403 704 l 1
 254 274 l 1
 156 274 l 1
 267 595 l 1
 160 571 l 1
415 3 m 1
 658 196 l 2
 689 220 737 251 748 291 c 0
 755 314 747 339 720 342 c 0
 677 347 649 299 631 268 c 1
 531 269 l 1
 567 355 637 431 737 430 c 0
 813 430 872 372 850 294 c 0
 836 247 798 211 760 183 c 2
 640 96 l 1
 792 94 l 1
 759 2 l 1
 415 3 l 1
EndSplineSet
EndChar

StartChar: threequarters
Encoding: 190 190 152
Width: 826
VWidth: 0
Flags: HMW
LayerCount: 2
Fore
SplineSet
831 699 m 1
 935 698 l 1
 207 0 l 1
 103 0 l 1
 831 699 l 1
264 485 m 1
 278 528 l 1
 312 536 361 547 373 586 c 0
 379 605 369 625 348 626 c 0
 317 627 295 600 278 579 c 1
 183 580 l 1
 217 651 277 707 360 707 c 0
 426 707 492 663 470 590 c 0
 444 504 340 490 264 485 c 1
223 271 m 0
 135 272 99 332 108 414 c 1
 202 413 l 1
 202 384 202 356 238 353 c 0
 268 350 309 379 318 407 c 0
 333 452 286 458 254 464 c 1
 270 514 l 1
 342 509 441 488 415 393 c 0
 393 314 300 270 223 271 c 0
401 76 m 1
 503 146 l 1
 677 148 l 1
 692 161 l 1
 803 160 l 1
 773 75 l 1
 401 76 l 1
521 105 m 1
 394 70 l 1
 749 419 l 1
 830 420 l 1
 685 0 l 1
 580 0 l 1
 613 96 l 1
 626 102 l 1
 682 257 l 1
 521 105 l 1
EndSplineSet
EndChar

StartChar: uni2150
Encoding: 8528 8528 153
Width: 885
VWidth: 0
Flags: HMW
LayerCount: 2
Fore
SplineSet
748 699 m 1
 875 698 l 1
 147 0 l 1
 19 0 l 1
 748 699 l 1
160 571 m 1
 192 662 l 1
 403 704 l 1
 254 274 l 1
 156 274 l 1
 267 595 l 1
 160 571 l 1
598 326 m 1
 630 420 l 1
 962 419 l 1
 626 0 l 1
 512 0 l 1
 775 324 l 1
 598 326 l 1
EndSplineSet
EndChar

StartChar: uni2151
Encoding: 8529 8529 154
Width: 831
VWidth: 0
Flags: HMW
LayerCount: 2
Fore
SplineSet
741 699 m 1
 869 698 l 1
 142 0 l 1
 14 0 l 1
 741 699 l 1
160 571 m 1
 192 662 l 1
 403 704 l 1
 254 274 l 1
 156 274 l 1
 267 595 l 1
 160 571 l 1
755 276 m 0
 765 306 756 341 720 344 c 0
 682 348 633 307 622 273 c 0
 612 243 623 207 659 204 c 0
 697 200 744 242 755 276 c 0
606 5 m 1
 469 6 l 1
 650 152 l 1
 678 160 l 1
 657 149 636 139 611 139 c 0
 537 140 509 213 526 276 c 0
 551 365 643 431 734 431 c 0
 824 431 879 361 852 274 c 0
 838 228 805 190 771 158 c 1
 606 5 l 1
EndSplineSet
EndChar

StartChar: uni2152
Encoding: 8530 8530 155
Width: 1139
VWidth: 0
Flags: HMW
LayerCount: 2
Fore
SplineSet
741 699 m 1
 869 698 l 1
 142 0 l 1
 14 0 l 1
 741 699 l 1
160 571 m 1
 192 662 l 1
 403 704 l 1
 254 274 l 1
 156 274 l 1
 267 595 l 1
 160 571 l 1
563 298 m 1
 594 389 l 1
 805 431 l 1
 656 1 l 1
 559 1 l 1
 669 322 l 1
 563 298 l 1
890 209 m 0
 877 175 851 85 910 80 c 0
 971 75 1015 165 1033 211 c 0
 1046 245 1073 335 1014 340 c 0
 953 345 908 255 890 209 c 0
794 211 m 0
 825 312 910 428 1026 428 c 0
 1147 428 1156 300 1128 209 c 0
 1096 107 1014 -8 896 -8 c 0
 776 -8 766 121 794 211 c 0
EndSplineSet
EndChar

StartChar: onethird
Encoding: 8531 8531 156
Width: 821
VWidth: 0
Flags: HMW
LayerCount: 2
Fore
SplineSet
741 699 m 1
 868 698 l 1
 141 0 l 1
 13 0 l 1
 741 699 l 1
160 571 m 1
 192 662 l 1
 403 704 l 1
 254 274 l 1
 156 274 l 1
 267 595 l 1
 160 571 l 1
635 205 m 1
 649 248 l 1
 683 256 733 267 745 306 c 0
 751 325 741 345 720 346 c 0
 689 347 667 320 650 299 c 1
 555 300 l 1
 589 371 649 427 732 427 c 0
 798 427 864 383 842 310 c 0
 816 224 711 210 635 205 c 1
595 -9 m 0
 507 -8 471 52 480 134 c 1
 574 133 l 1
 574 104 574 76 610 73 c 0
 640 70 681 99 690 127 c 0
 705 172 658 178 626 184 c 1
 642 234 l 1
 714 229 812 208 786 113 c 0
 764 34 672 -10 595 -9 c 0
EndSplineSet
EndChar

StartChar: twothirds
Encoding: 8532 8532 157
Width: 947
VWidth: 0
Flags: HMW
LayerCount: 2
Fore
SplineSet
879 699 m 1
 1007 698 l 1
 278 0 l 1
 150 0 l 1
 879 699 l 1
63 283 m 1
 306 476 l 2
 337 500 385 531 396 571 c 0
 403 594 395 619 368 622 c 0
 325 627 297 579 279 548 c 1
 179 549 l 1
 215 635 285 711 385 710 c 0
 461 710 520 652 498 574 c 0
 484 527 446 491 408 463 c 2
 288 376 l 1
 440 374 l 1
 408 282 l 1
 63 283 l 1
761 205 m 1
 775 248 l 1
 809 256 858 267 870 306 c 0
 876 325 866 345 845 346 c 0
 814 347 792 320 775 299 c 1
 680 300 l 1
 714 371 774 427 857 427 c 0
 923 427 989 383 967 310 c 0
 941 224 837 210 761 205 c 1
721 -9 m 0
 633 -8 595 52 604 134 c 1
 699 133 l 1
 699 104 699 76 735 73 c 0
 765 70 807 99 816 127 c 0
 831 172 783 178 751 184 c 1
 767 234 l 1
 839 229 938 208 912 113 c 0
 890 34 798 -10 721 -9 c 0
EndSplineSet
EndChar

StartChar: uni2155
Encoding: 8533 8533 158
Width: 811
VWidth: 0
Flags: HMW
LayerCount: 2
Fore
SplineSet
741 699 m 1
 869 698 l 1
 142 0 l 1
 14 0 l 1
 741 699 l 1
160 571 m 1
 192 662 l 1
 403 704 l 1
 254 274 l 1
 156 274 l 1
 267 595 l 1
 160 571 l 1
784 131 m 0
 759 45 668 -8 582 -9 c 0
 522 -10 474 14 432 47 c 1
 492 128 l 1
 514 105 539 84 576 84 c 0
 612 84 671 105 681 145 c 0
 689 179 661 199 631 202 c 0
 588 205 545 190 505 178 c 1
 580 226 l 1
 615 249 655 272 699 270 c 0
 774 267 803 197 784 131 c 0
689 329 m 1
 617 223 l 1
 493 168 l 1
 638 417 l 1
 874 418 l 1
 843 330 l 1
 689 329 l 1
EndSplineSet
EndChar

StartChar: uni2156
Encoding: 8534 8534 159
Width: 945
VWidth: 0
Flags: HMW
LayerCount: 2
Fore
SplineSet
879 699 m 1
 1007 698 l 1
 278 0 l 1
 150 0 l 1
 879 699 l 1
63 283 m 1
 306 476 l 2
 337 500 385 531 396 571 c 0
 403 594 395 619 368 622 c 0
 325 627 297 579 279 548 c 1
 179 549 l 1
 215 635 285 711 385 710 c 0
 461 710 520 652 498 574 c 0
 484 527 446 491 408 463 c 2
 288 376 l 1
 440 374 l 1
 408 282 l 1
 63 283 l 1
909 131 m 0
 884 45 793 -8 707 -9 c 0
 647 -10 600 14 558 47 c 1
 618 128 l 1
 640 105 664 84 701 84 c 0
 737 84 796 105 806 145 c 0
 814 179 787 199 757 202 c 0
 714 205 670 190 630 178 c 1
 705 226 l 1
 740 249 781 272 825 270 c 0
 900 267 928 197 909 131 c 0
815 329 m 1
 742 223 l 1
 618 168 l 1
 764 417 l 1
 999 418 l 1
 968 330 l 1
 815 329 l 1
EndSplineSet
EndChar

StartChar: uni2157
Encoding: 8535 8535 160
Width: 875
VWidth: 0
Flags: HMW
LayerCount: 2
Fore
SplineSet
811 699 m 1
 939 698 l 1
 212 0 l 1
 84 0 l 1
 811 699 l 1
261 485 m 1
 275 528 l 1
 309 536 358 547 370 586 c 0
 376 605 366 625 345 626 c 0
 314 627 291 600 274 579 c 1
 180 580 l 1
 214 651 274 707 357 707 c 0
 423 707 489 663 467 590 c 0
 441 504 337 490 261 485 c 1
221 271 m 0
 133 272 96 332 105 414 c 1
 199 413 l 1
 199 384 199 356 235 353 c 0
 265 350 307 379 316 407 c 0
 331 452 283 458 251 464 c 1
 268 514 l 1
 340 509 438 488 412 393 c 0
 390 314 298 270 221 271 c 0
836 131 m 0
 811 45 721 -8 635 -9 c 0
 575 -10 527 14 485 47 c 1
 545 128 l 1
 567 105 591 84 628 84 c 0
 664 84 724 105 734 145 c 0
 742 179 714 199 684 202 c 0
 641 205 597 190 557 178 c 1
 632 226 l 1
 667 249 708 272 752 270 c 0
 827 267 855 197 836 131 c 0
742 329 m 1
 669 223 l 1
 545 168 l 1
 690 417 l 1
 926 418 l 1
 895 330 l 1
 742 329 l 1
EndSplineSet
EndChar

StartChar: uni2158
Encoding: 8536 8536 161
Width: 955
VWidth: 0
Flags: HMW
LayerCount: 2
Fore
SplineSet
868 698 m 1
 995 698 l 1
 268 0 l 1
 140 0 l 1
 868 698 l 1
80 356 m 1
 182 426 l 1
 356 428 l 1
 371 441 l 1
 482 440 l 1
 452 355 l 1
 80 356 l 1
200 385 m 1
 73 350 l 1
 428 699 l 1
 509 700 l 1
 364 280 l 1
 260 280 l 1
 293 376 l 1
 305 382 l 1
 361 537 l 1
 200 385 l 1
922 131 m 0
 897 45 806 -9 720 -10 c 0
 660 -11 613 13 571 46 c 1
 631 127 l 1
 653 104 677 83 714 83 c 0
 750 83 809 105 819 145 c 0
 827 179 799 198 769 201 c 0
 726 204 683 190 643 178 c 1
 718 225 l 1
 753 248 794 271 838 269 c 0
 913 266 941 197 922 131 c 0
827 329 m 1
 755 222 l 1
 631 167 l 1
 776 416 l 1
 1012 417 l 1
 981 330 l 1
 827 329 l 1
EndSplineSet
EndChar

StartChar: uni2159
Encoding: 8537 8537 162
Width: 819
VWidth: 0
Flags: HMW
LayerCount: 2
Fore
SplineSet
759 699 m 1
 887 698 l 1
 159 0 l 1
 31 0 l 1
 759 699 l 1
160 571 m 1
 192 662 l 1
 403 704 l 1
 254 274 l 1
 156 274 l 1
 267 595 l 1
 160 571 l 1
561 144 m 0
 551 114 562 79 598 76 c 0
 636 72 683 113 694 147 c 0
 704 177 695 212 659 216 c 0
 621 220 572 178 561 144 c 0
712 415 m 1
 849 414 l 1
 668 268 l 1
 640 260 l 1
 661 270 680 281 705 281 c 0
 779 282 808 207 791 144 c 0
 767 55 675 -11 584 -11 c 0
 494 -11 438 59 465 146 c 0
 479 192 512 230 546 262 c 1
 712 415 l 1
EndSplineSet
EndChar

StartChar: uni215A
Encoding: 8538 8538 163
Width: 875
VWidth: 0
Flags: HMW
LayerCount: 2
Fore
SplineSet
832 699 m 1
 960 698 l 1
 233 0 l 1
 105 0 l 1
 832 699 l 1
434 411 m 0
 409 325 319 272 233 271 c 0
 173 270 126 294 84 327 c 1
 144 408 l 1
 166 385 190 364 227 364 c 0
 263 364 322 385 332 425 c 0
 340 459 313 479 283 482 c 0
 240 485 196 470 156 458 c 1
 231 506 l 1
 266 529 306 552 350 550 c 0
 425 547 453 477 434 411 c 0
340 609 m 1
 268 503 l 1
 143 448 l 1
 289 697 l 1
 525 698 l 1
 494 610 l 1
 340 609 l 1
618 144 m 0
 608 114 618 79 654 76 c 0
 692 72 739 113 750 147 c 0
 760 177 751 212 715 216 c 0
 677 220 629 178 618 144 c 0
768 415 m 1
 904 414 l 1
 724 268 l 1
 696 260 l 1
 717 270 737 281 762 281 c 0
 836 282 864 207 847 144 c 0
 823 55 731 -11 640 -11 c 0
 550 -11 494 59 521 146 c 0
 535 192 568 230 602 262 c 1
 768 415 l 1
EndSplineSet
EndChar

StartChar: oneeighth
Encoding: 8539 8539 164
Width: 838
VWidth: 0
Flags: HMW
LayerCount: 2
Fore
SplineSet
759 699 m 1
 887 698 l 1
 159 0 l 1
 31 0 l 1
 759 699 l 1
160 571 m 1
 192 662 l 1
 403 704 l 1
 254 274 l 1
 156 274 l 1
 267 595 l 1
 160 571 l 1
580 321 m 0
 599 389 679 429 746 429 c 0
 809 429 873 387 853 317 c 0
 834 249 754 206 686 206 c 0
 621 206 561 251 580 321 c 0
670 308 m 0
 664 290 669 263 692 261 c 0
 716 259 749 290 756 311 c 0
 762 330 757 354 735 356 c 0
 710 358 678 330 670 308 c 0
496 116 m 0
 517 192 605 237 680 237 c 0
 751 237 819 190 797 112 c 0
 776 37 687 -9 613 -9 c 0
 543 -9 474 40 496 116 c 0
599 128 m 0
 590 105 599 75 627 73 c 0
 657 71 695 104 704 131 c 0
 712 153 702 182 676 184 c 0
 647 186 609 153 599 128 c 0
EndSplineSet
EndChar

StartChar: threeeighths
Encoding: 8540 8540 165
Width: 896
VWidth: 0
Flags: HMW
LayerCount: 2
Fore
SplineSet
818 699 m 1
 946 698 l 1
 217 0 l 1
 90 0 l 1
 818 699 l 1
261 485 m 1
 275 528 l 1
 309 536 358 547 370 586 c 0
 376 605 366 625 345 626 c 0
 314 627 291 600 274 579 c 1
 180 580 l 1
 214 651 274 707 357 707 c 0
 423 707 489 663 467 590 c 0
 441 504 337 490 261 485 c 1
221 271 m 0
 133 272 96 332 105 414 c 1
 199 413 l 1
 199 384 199 356 235 353 c 0
 265 350 307 379 316 407 c 0
 331 452 283 458 251 464 c 1
 268 514 l 1
 340 509 438 488 412 393 c 0
 390 314 298 270 221 271 c 0
638 321 m 0
 657 389 737 429 804 429 c 0
 867 429 931 387 911 317 c 0
 892 249 812 206 744 206 c 0
 679 206 619 251 638 321 c 0
728 308 m 0
 722 290 727 263 750 261 c 0
 774 259 808 290 815 311 c 0
 821 330 815 354 793 356 c 0
 768 358 736 330 728 308 c 0
554 116 m 0
 575 192 663 237 738 237 c 0
 809 237 877 190 855 112 c 0
 834 37 745 -9 671 -9 c 0
 601 -9 532 40 554 116 c 0
658 128 m 0
 649 105 657 75 685 73 c 0
 715 71 754 104 763 131 c 0
 771 153 760 182 734 184 c 0
 705 186 668 153 658 128 c 0
EndSplineSet
EndChar

StartChar: fiveeighths
Encoding: 8541 8541 166
Width: 911
VWidth: 0
Flags: HMW
LayerCount: 2
Fore
SplineSet
832 699 m 1
 960 698 l 1
 233 0 l 1
 105 0 l 1
 832 699 l 1
428 411 m 0
 403 325 313 272 227 271 c 0
 167 270 120 294 78 327 c 1
 138 408 l 1
 160 385 184 364 221 364 c 0
 257 364 316 385 326 425 c 0
 334 459 306 479 276 482 c 0
 233 485 190 470 150 458 c 1
 225 506 l 1
 260 529 300 552 344 550 c 0
 419 547 447 477 428 411 c 0
334 609 m 1
 262 503 l 1
 138 448 l 1
 283 697 l 1
 519 698 l 1
 488 610 l 1
 334 609 l 1
654 321 m 0
 673 389 752 429 819 429 c 0
 882 429 946 387 926 317 c 0
 907 249 828 206 760 206 c 0
 695 206 635 251 654 321 c 0
743 308 m 0
 737 290 742 263 765 261 c 0
 789 259 823 290 830 311 c 0
 836 330 830 354 808 356 c 0
 783 358 751 330 743 308 c 0
570 116 m 0
 591 192 678 237 753 237 c 0
 824 237 892 190 870 112 c 0
 849 37 760 -9 686 -9 c 0
 616 -9 548 40 570 116 c 0
673 128 m 0
 664 105 672 75 700 73 c 0
 730 71 769 104 778 131 c 0
 786 153 776 182 750 184 c 0
 721 186 683 153 673 128 c 0
EndSplineSet
EndChar

StartChar: seveneighths
Encoding: 8542 8542 167
Width: 808
VWidth: 0
Flags: HMW
LayerCount: 2
Fore
SplineSet
723 699 m 1
 851 698 l 1
 123 0 l 1
 -5 0 l 1
 723 699 l 1
171 606 m 1
 204 700 l 1
 536 699 l 1
 200 281 l 1
 86 281 l 1
 350 604 l 1
 171 606 l 1
551 321 m 0
 570 389 649 429 716 429 c 0
 779 429 842 387 822 317 c 0
 803 249 724 206 656 206 c 0
 591 206 532 251 551 321 c 0
640 308 m 0
 634 290 638 263 661 261 c 0
 685 259 720 290 727 311 c 0
 733 330 727 354 705 356 c 0
 680 358 648 330 640 308 c 0
466 116 m 0
 487 192 575 237 650 237 c 0
 721 237 788 190 766 112 c 0
 745 37 657 -9 583 -9 c 0
 513 -9 444 40 466 116 c 0
570 128 m 0
 561 105 569 75 597 73 c 0
 627 71 666 104 675 131 c 0
 683 153 672 182 646 184 c 0
 617 186 580 153 570 128 c 0
EndSplineSet
EndChar

StartChar: uni2074
Encoding: 8308 8308 168
Width: 401
VWidth: 0
Flags: HMW
LayerCount: 2
Fore
SplineSet
74 356 m 1
 176 426 l 1
 350 428 l 1
 365 441 l 1
 477 440 l 1
 447 355 l 1
 74 356 l 1
195 385 m 1
 67 350 l 1
 423 699 l 1
 503 700 l 1
 359 280 l 1
 254 280 l 1
 287 376 l 1
 299 382 l 1
 355 537 l 1
 195 385 l 1
EndSplineSet
EndChar

StartChar: uni2075
Encoding: 8309 8309 169
Width: 364
VWidth: 0
Flags: HMW
LayerCount: 2
Fore
SplineSet
428 411 m 0
 403 325 313 272 227 271 c 0
 167 270 120 294 78 327 c 1
 138 408 l 1
 160 385 184 364 221 364 c 0
 257 364 316 385 326 425 c 0
 334 459 306 479 276 482 c 0
 233 485 190 470 150 458 c 1
 225 506 l 1
 260 529 300 552 344 550 c 0
 419 547 447 477 428 411 c 0
334 609 m 1
 262 503 l 1
 138 448 l 1
 283 697 l 1
 519 698 l 1
 488 610 l 1
 334 609 l 1
EndSplineSet
EndChar

StartChar: uni2076
Encoding: 8310 8310 170
Width: 360
VWidth: 0
Flags: HMW
LayerCount: 2
Fore
SplineSet
206 424 m 0
 196 394 207 359 243 356 c 0
 281 352 328 393 339 427 c 0
 349 457 340 492 304 496 c 0
 266 500 217 458 206 424 c 0
357 695 m 1
 493 694 l 1
 313 548 l 1
 284 540 l 1
 305 550 325 561 350 561 c 0
 424 562 453 487 436 424 c 0
 412 335 319 269 228 269 c 0
 138 269 82 339 109 426 c 0
 123 472 156 510 190 542 c 1
 357 695 l 1
EndSplineSet
EndChar

StartChar: uni2077
Encoding: 8311 8311 171
Width: 356
VWidth: 0
Flags: HMW
LayerCount: 2
Fore
SplineSet
171 606 m 1
 204 700 l 1
 536 699 l 1
 200 281 l 1
 86 281 l 1
 350 604 l 1
 171 606 l 1
EndSplineSet
EndChar

StartChar: uni2078
Encoding: 8312 8312 172
Width: 340
VWidth: 0
Flags: HMW
LayerCount: 2
Fore
SplineSet
184 601 m 0
 203 669 282 709 349 709 c 0
 412 709 475 667 455 597 c 0
 436 529 357 486 289 486 c 0
 224 486 165 531 184 601 c 0
272 588 m 0
 266 570 271 543 294 541 c 0
 318 539 353 570 360 591 c 0
 366 610 360 634 338 636 c 0
 313 638 280 610 272 588 c 0
100 396 m 0
 121 472 208 517 283 517 c 0
 354 517 422 470 400 392 c 0
 379 317 290 271 216 271 c 0
 146 271 78 320 100 396 c 0
203 408 m 0
 194 385 202 355 230 353 c 0
 260 351 298 384 307 411 c 0
 315 433 305 462 279 464 c 0
 250 466 213 433 203 408 c 0
EndSplineSet
EndChar

StartChar: uni2079
Encoding: 8313 8313 173
Width: 357
VWidth: 0
Flags: HMW
LayerCount: 2
Fore
SplineSet
384 556 m 0
 394 586 384 621 348 624 c 0
 310 628 263 587 252 553 c 0
 242 523 252 487 288 484 c 0
 326 480 373 522 384 556 c 0
234 285 m 1
 98 286 l 1
 278 432 l 1
 306 440 l 1
 285 429 265 419 240 419 c 0
 166 420 138 493 155 556 c 0
 180 645 271 711 362 711 c 0
 452 711 509 641 482 554 c 0
 468 508 433 470 399 438 c 1
 234 285 l 1
EndSplineSet
EndChar

StartChar: uni2070
Encoding: 8304 8304 174
Width: 367
VWidth: 0
Flags: HMW
LayerCount: 2
Fore
SplineSet
226 489 m 0
 213 455 186 365 245 360 c 0
 306 355 350 445 368 491 c 0
 381 525 408 615 349 620 c 0
 288 625 244 535 226 489 c 0
130 491 m 0
 161 592 246 708 362 708 c 0
 483 708 492 580 464 489 c 0
 432 387 350 272 232 272 c 0
 112 272 102 401 130 491 c 0
EndSplineSet
EndChar

StartChar: uni2080
Encoding: 8320 8320 175
Width: 367
VWidth: 0
Flags: HMW
LayerCount: 2
Fore
SplineSet
130 209 m 0
 117 175 90 85 149 80 c 0
 210 75 254 165 272 211 c 0
 285 245 313 335 254 340 c 0
 193 345 148 255 130 209 c 0
34 211 m 0
 65 312 151 428 267 428 c 0
 388 428 396 300 368 209 c 0
 336 107 254 -8 136 -8 c 0
 16 -8 6 121 34 211 c 0
EndSplineSet
EndChar

StartChar: uni2084
Encoding: 8324 8324 176
Width: 405
VWidth: 0
Flags: HMW
LayerCount: 2
Fore
SplineSet
-22 76 m 1
 80 146 l 1
 253 148 l 1
 268 161 l 1
 380 160 l 1
 349 75 l 1
 -22 76 l 1
98 105 m 1
 -29 70 l 1
 326 419 l 1
 406 420 l 1
 262 0 l 1
 157 0 l 1
 190 96 l 1
 203 102 l 1
 259 257 l 1
 98 105 l 1
EndSplineSet
EndChar

StartChar: uni2085
Encoding: 8325 8325 177
Width: 372
VWidth: 0
Flags: HMW
LayerCount: 2
Fore
SplineSet
336 131 m 0
 311 45 220 -8 134 -9 c 0
 74 -10 27 14 -15 47 c 1
 46 128 l 1
 68 105 91 84 128 84 c 0
 164 84 223 105 233 145 c 0
 241 179 214 199 184 202 c 0
 141 205 98 190 58 178 c 1
 132 226 l 1
 167 249 208 272 252 270 c 0
 327 267 355 197 336 131 c 0
242 329 m 1
 169 223 l 1
 45 168 l 1
 190 417 l 1
 426 418 l 1
 395 330 l 1
 242 329 l 1
EndSplineSet
EndChar

StartChar: uni2086
Encoding: 8326 8326 178
Width: 370
VWidth: 0
Flags: HMW
LayerCount: 2
Fore
SplineSet
114 144 m 0
 104 114 114 79 150 76 c 0
 188 72 236 113 247 147 c 0
 257 177 247 212 211 216 c 0
 173 220 125 178 114 144 c 0
265 415 m 1
 401 414 l 1
 220 268 l 1
 192 260 l 1
 213 270 233 281 258 281 c 0
 332 282 361 207 344 144 c 0
 320 55 227 -11 136 -11 c 0
 46 -11 -10 59 17 146 c 0
 31 192 65 230 99 262 c 1
 265 415 l 1
EndSplineSet
EndChar

StartChar: uni2087
Encoding: 8327 8327 179
Width: 361
VWidth: 0
Flags: HMW
LayerCount: 2
Fore
SplineSet
79 326 m 1
 112 420 l 1
 444 419 l 1
 108 0 l 1
 -6 0 l 1
 258 324 l 1
 79 326 l 1
EndSplineSet
EndChar

StartChar: uni2088
Encoding: 8328 8328 180
Width: 345
VWidth: 0
Flags: HMW
LayerCount: 2
Fore
SplineSet
92 321 m 0
 111 389 190 429 257 429 c 0
 320 429 384 387 364 317 c 0
 345 249 265 206 197 206 c 0
 132 206 73 251 92 321 c 0
181 308 m 0
 175 290 180 263 203 261 c 0
 227 259 261 290 268 311 c 0
 274 330 268 354 246 356 c 0
 221 358 189 330 181 308 c 0
8 116 m 0
 29 192 116 237 191 237 c 0
 262 237 330 190 308 112 c 0
 287 37 198 -9 124 -9 c 0
 54 -9 -14 40 8 116 c 0
111 128 m 0
 102 105 110 75 138 73 c 0
 168 71 207 104 216 131 c 0
 224 153 214 182 188 184 c 0
 159 186 121 153 111 128 c 0
EndSplineSet
EndChar

StartChar: uni2089
Encoding: 8329 8329 181
Width: 374
VWidth: 0
Flags: HMW
LayerCount: 2
Fore
SplineSet
290 276 m 0
 300 306 290 341 254 344 c 0
 216 348 168 307 157 273 c 0
 147 243 157 207 193 204 c 0
 231 200 279 242 290 276 c 0
140 5 m 1
 3 6 l 1
 184 152 l 1
 213 160 l 1
 192 149 171 139 146 139 c 0
 72 140 44 213 61 276 c 0
 86 365 178 431 269 431 c 0
 359 431 415 361 388 274 c 0
 374 228 340 190 306 158 c 1
 140 5 l 1
EndSplineSet
EndChar

StartChar: uni2081
Encoding: 8321 8321 182
Width: 339
VWidth: 0
Flags: HMW
LayerCount: 2
Fore
SplineSet
129 298 m 1
 161 389 l 1
 372 431 l 1
 223 1 l 1
 126 1 l 1
 235 322 l 1
 129 298 l 1
EndSplineSet
EndChar

StartChar: uni2082
Encoding: 8322 8322 183
Width: 386
VWidth: 0
Flags: HMW
LayerCount: 2
Fore
SplineSet
-34 3 m 1
 208 196 l 2
 239 220 288 251 299 291 c 0
 306 314 299 339 272 342 c 0
 229 347 199 299 181 268 c 1
 82 269 l 1
 118 355 188 431 288 430 c 0
 364 430 423 372 401 294 c 0
 387 247 349 211 311 183 c 2
 190 96 l 1
 342 94 l 1
 310 2 l 1
 -34 3 l 1
EndSplineSet
EndChar

StartChar: uni2083
Encoding: 8323 8323 184
Width: 349
VWidth: 0
Flags: HMW
LayerCount: 2
Fore
SplineSet
164 205 m 1
 178 248 l 1
 212 256 262 267 274 306 c 0
 280 325 270 345 249 346 c 0
 218 347 196 320 179 299 c 1
 84 300 l 1
 118 371 178 427 261 427 c 0
 327 427 393 383 371 310 c 0
 345 224 240 210 164 205 c 1
124 -9 m 0
 36 -8 -1 52 8 134 c 1
 103 133 l 1
 103 104 103 76 139 73 c 0
 169 70 211 99 220 127 c 0
 235 172 186 178 154 184 c 1
 171 234 l 1
 243 229 342 208 316 113 c 0
 294 34 201 -10 124 -9 c 0
EndSplineSet
EndChar

StartChar: Agrave
Encoding: 192 192 185
Width: 690
VWidth: 0
Flags: HMW
LayerCount: 2
Fore
SplineSet
163 136 m 1
 218 263 l 1
 550 264 l 1
 516 135 l 1
 163 136 l 1
449 442 m 1
 278 216 l 1
 273 178 l 1
 131 0 l 1
 -63 0 l 1
 544 749 l 1
 637 0 l 1
 460 0 l 1
 437 173 l 1
 459 216 l 1
 449 442 l 1
466 959 m 1
 587 1008 l 1
 678 842 l 1
 591 804 l 1
 466 959 l 1
EndSplineSet
EndChar

StartChar: Aacute
Encoding: 193 193 186
Width: 690
VWidth: 0
Flags: HMW
LayerCount: 2
Fore
SplineSet
163 136 m 1
 218 263 l 1
 550 264 l 1
 516 135 l 1
 163 136 l 1
449 442 m 1
 278 216 l 1
 273 178 l 1
 131 0 l 1
 -63 0 l 1
 544 749 l 1
 637 0 l 1
 460 0 l 1
 437 173 l 1
 459 216 l 1
 449 442 l 1
769 948 m 1
 554 806 l 1
 477 852 l 1
 668 1005 l 1
 769 948 l 1
EndSplineSet
EndChar

StartChar: Acircumflex
Encoding: 194 194 187
Width: 690
VWidth: 0
Flags: HMW
LayerCount: 2
Fore
SplineSet
163 136 m 1
 218 263 l 1
 550 264 l 1
 516 135 l 1
 163 136 l 1
449 442 m 1
 278 216 l 1
 273 178 l 1
 131 0 l 1
 -63 0 l 1
 544 749 l 1
 637 0 l 1
 460 0 l 1
 437 173 l 1
 459 216 l 1
 449 442 l 1
598 873 m 1
 482 790 l 1
 399 866 l 1
 626 1001 l 1
 772 856 l 1
 653 788 l 1
 598 873 l 1
EndSplineSet
EndChar

StartChar: Atilde
Encoding: 195 195 188
Width: 690
VWidth: 0
Flags: HMW
LayerCount: 2
Fore
SplineSet
163 136 m 1
 218 263 l 1
 550 264 l 1
 516 135 l 1
 163 136 l 1
449 442 m 1
 278 216 l 1
 273 178 l 1
 131 0 l 1
 -63 0 l 1
 544 749 l 1
 637 0 l 1
 460 0 l 1
 437 173 l 1
 459 216 l 1
 449 442 l 1
399 866 m 1
 431 910 477 959 537 956 c 0
 580 954 605 904 648 907 c 0
 680 909 707 938 730 958 c 1
 780 880 l 1
 744 842 689 794 632 799 c 0
 590 803 562 856 519 850 c 0
 490 846 471 822 454 801 c 1
 399 866 l 1
EndSplineSet
EndChar

StartChar: Adieresis
Encoding: 196 196 189
Width: 690
VWidth: 0
Flags: HMW
LayerCount: 2
Fore
SplineSet
163 136 m 1
 218 263 l 1
 550 264 l 1
 516 135 l 1
 163 136 l 1
449 442 m 1
 278 216 l 1
 273 178 l 1
 131 0 l 1
 -63 0 l 1
 544 749 l 1
 637 0 l 1
 460 0 l 1
 437 173 l 1
 459 216 l 1
 449 442 l 1
622 833 m 0
 634 875 686 912 729 911 c 0
 773 910 804 871 792 827 c 0
 780 785 728 748 685 749 c 0
 641 750 610 789 622 833 c 0
354 839 m 0
 366 881 418 918 461 917 c 0
 505 916 536 878 524 834 c 0
 512 792 460 754 417 755 c 0
 373 756 342 795 354 839 c 0
EndSplineSet
EndChar

StartChar: Aring
Encoding: 197 197 190
Width: 690
VWidth: 0
Flags: HMW
LayerCount: 2
Fore
SplineSet
163 136 m 1
 218 263 l 1
 550 264 l 1
 516 135 l 1
 163 136 l 1
449 442 m 1
 278 216 l 1
 273 178 l 1
 131 0 l 1
 -63 0 l 1
 544 749 l 1
 637 0 l 1
 460 0 l 1
 437 173 l 1
 459 216 l 1
 449 442 l 1
445 802 m 0
 463 864 531 915 596 915 c 0
 661 915 703 861 685 798 c 0
 667 736 597 686 532 686 c 0
 467 686 427 740 445 802 c 0
521 799 m 0
 516 782 523 756 543 754 c 0
 566 751 601 782 608 802 c 0
 613 819 606 846 586 848 c 0
 563 851 528 819 521 799 c 0
EndSplineSet
EndChar

StartChar: AE
Encoding: 198 198 191
Width: 1020
VWidth: 0
Flags: HMW
LayerCount: 2
Fore
SplineSet
248 151 m 1
 308 306 l 1
 596 306 l 1
 542 151 l 1
 248 151 l 1
604 700 m 1
 741 656 l 1
 167 0 l 1
 -47 0 l 1
 604 700 l 1
537 0 m 1
 585 139 l 1
 952 139 l 1
 904 0 l 1
 537 0 l 1
746 561 m 1
 604 700 l 1
 1143 700 l 1
 1095 561 l 1
 746 561 l 1
639 300 m 1
 686 436 l 1
 1035 436 l 1
 987 299 l 1
 639 300 l 1
699 700 m 1
 876 700 l 1
 636 0 l 1
 460 0 l 1
 699 700 l 1
EndSplineSet
EndChar

StartChar: Ccedilla
Encoding: 199 199 192
Width: 659
VWidth: 0
Flags: HMW
LayerCount: 2
Fore
SplineSet
273 350 m 0
 236 252 274 149 389 146 c 0
 475 144 554 190 623 236 c 1
 569 54 l 1
 500 12 426 -16 344 -16 c 0
 137 -15 34 161 94 350 c 0
 158 553 358 716 574 716 c 0
 648 716 709 691 765 644 c 1
 709 462 l 1
 671 521 620 554 548 554 c 0
 428 553 314 460 273 350 c 0
292 46 m 1
 408 43 l 1
 277 -78 l 1
 287 -76 297 -74 307 -75 c 0
 358 -80 383 -125 369 -173 c 0
 351 -237 278 -277 215 -279 c 0
 165 -281 124 -263 83 -238 c 1
 144 -174 l 1
 164 -186 184 -199 209 -198 c 0
 228 -197 275 -183 279 -160 c 0
 283 -139 253 -131 239 -130 c 0
 210 -128 178 -138 150 -144 c 1
 292 46 l 1
EndSplineSet
EndChar

StartChar: Egrave
Encoding: 200 200 193
Width: 567
VWidth: 0
Flags: HMW
LayerCount: 2
Fore
SplineSet
118 0 m 1
 167 139 l 1
 505 139 l 1
 456 0 l 1
 118 0 l 1
310 561 m 1
 358 700 l 1
 696 700 l 1
 648 561 l 1
 310 561 l 1
221 300 m 1
 268 436 l 1
 587 436 l 1
 539 299 l 1
 221 300 l 1
251 700 m 1
 411 700 l 1
 170 0 l 1
 13 0 l 1
 251 700 l 1
401 937 m 1
 521 986 l 1
 613 820 l 1
 526 782 l 1
 401 937 l 1
EndSplineSet
EndChar

StartChar: Eacute
Encoding: 201 201 194
Width: 567
VWidth: 0
Flags: HMW
LayerCount: 2
Fore
SplineSet
118 0 m 1
 167 139 l 1
 505 139 l 1
 456 0 l 1
 118 0 l 1
310 561 m 1
 358 700 l 1
 696 700 l 1
 648 561 l 1
 310 561 l 1
221 300 m 1
 268 436 l 1
 587 436 l 1
 539 299 l 1
 221 300 l 1
251 700 m 1
 411 700 l 1
 170 0 l 1
 13 0 l 1
 251 700 l 1
704 926 m 1
 489 784 l 1
 412 830 l 1
 603 983 l 1
 704 926 l 1
EndSplineSet
EndChar

StartChar: Ecircumflex
Encoding: 202 202 195
Width: 567
VWidth: 0
Flags: HMW
LayerCount: 2
Fore
SplineSet
118 0 m 1
 167 139 l 1
 505 139 l 1
 456 0 l 1
 118 0 l 1
310 561 m 1
 358 700 l 1
 696 700 l 1
 648 561 l 1
 310 561 l 1
221 300 m 1
 268 436 l 1
 587 436 l 1
 539 299 l 1
 221 300 l 1
251 700 m 1
 411 700 l 1
 170 0 l 1
 13 0 l 1
 251 700 l 1
548 882 m 1
 410 789 l 1
 368 834 l 1
 562 969 l 1
 673 825 l 1
 618 789 l 1
 548 882 l 1
EndSplineSet
EndChar

StartChar: Edieresis
Encoding: 203 203 196
Width: 567
VWidth: 0
Flags: HMW
LayerCount: 2
Fore
SplineSet
118 0 m 1
 167 139 l 1
 505 139 l 1
 456 0 l 1
 118 0 l 1
310 561 m 1
 358 700 l 1
 696 700 l 1
 648 561 l 1
 310 561 l 1
221 300 m 1
 268 436 l 1
 587 436 l 1
 539 299 l 1
 221 300 l 1
251 700 m 1
 411 700 l 1
 170 0 l 1
 13 0 l 1
 251 700 l 1
563 868 m 0
 575 910 627 947 670 946 c 0
 714 945 745 907 733 863 c 0
 721 821 669 784 626 785 c 0
 582 786 551 824 563 868 c 0
334 868 m 0
 346 910 397 947 440 946 c 0
 484 945 516 907 504 863 c 0
 492 821 440 784 397 785 c 0
 353 786 322 824 334 868 c 0
EndSplineSet
EndChar

StartChar: Igrave
Encoding: 204 204 197
Width: 300
VWidth: 0
Flags: HMW
LayerCount: 2
Fore
SplineSet
251 700 m 1
 420 700 l 1
 179 0 l 1
 13 0 l 1
 251 700 l 1
257 937 m 1
 378 986 l 1
 469 820 l 1
 382 782 l 1
 257 937 l 1
EndSplineSet
EndChar

StartChar: Iacute
Encoding: 205 205 198
Width: 300
VWidth: 0
Flags: HMW
LayerCount: 2
Fore
SplineSet
251 700 m 1
 420 700 l 1
 179 0 l 1
 13 0 l 1
 251 700 l 1
560 926 m 1
 345 784 l 1
 269 830 l 1
 460 983 l 1
 560 926 l 1
EndSplineSet
EndChar

StartChar: Icircumflex
Encoding: 206 206 199
Width: 300
VWidth: 0
Flags: HMW
LayerCount: 2
Fore
SplineSet
251 700 m 1
 420 700 l 1
 179 0 l 1
 13 0 l 1
 251 700 l 1
400 882 m 1
 262 789 l 1
 221 834 l 1
 414 969 l 1
 525 825 l 1
 471 789 l 1
 400 882 l 1
EndSplineSet
EndChar

StartChar: Idieresis
Encoding: 207 207 200
Width: 300
VWidth: 0
Flags: HMW
LayerCount: 2
Fore
SplineSet
251 700 m 1
 420 700 l 1
 179 0 l 1
 13 0 l 1
 251 700 l 1
420 861 m 0
 432 903 483 940 526 939 c 0
 570 938 601 900 589 856 c 0
 577 814 525 776 482 777 c 0
 437 778 408 817 420 861 c 0
190 861 m 0
 202 903 253 940 296 939 c 0
 340 938 372 900 360 856 c 0
 348 814 296 776 253 777 c 0
 208 778 178 817 190 861 c 0
EndSplineSet
EndChar

StartChar: Ntilde
Encoding: 209 209 201
Width: 746
VWidth: 0
Flags: HMW
LayerCount: 2
Fore
SplineSet
707 700 m 1
 865 700 l 1
 615 -32 l 1
 307 396 l 1
 171 0 l 1
 12 0 l 1
 262 732 l 1
 570 304 l 1
 707 700 l 1
390 837 m 1
 422 881 467 930 527 927 c 0
 570 925 595 874 638 877 c 0
 670 879 697 908 720 928 c 1
 770 851 l 1
 734 813 679 765 622 770 c 0
 580 774 551 827 508 821 c 0
 479 817 461 793 444 772 c 1
 390 837 l 1
EndSplineSet
EndChar

StartChar: Eth
Encoding: 208 208 202
Width: 689
VWidth: 0
Flags: HMW
LayerCount: 2
Fore
SplineSet
52 303 m 1
 87 402 l 1
 421 402 l 1
 386 302 l 1
 52 303 l 1
251 700 m 1
 422 700 l 1
 182 0 l 1
 13 0 l 1
 251 700 l 1
261 0 m 0
 117 0 l 1
 170 151 l 1
 287 151 l 0
 411 156 513 235 556 350 c 0
 596 455 560 543 442 549 c 1
 305 550 l 1
 358 700 l 1
 480 700 l 0
 682 694 787 542 726 350 c 0
 662 146 474 5 261 0 c 0
EndSplineSet
EndChar

StartChar: Ograve
Encoding: 210 210 203
Width: 772
VWidth: 0
Flags: HMW
LayerCount: 2
Fore
SplineSet
268 350 m 0
 234 258 252 143 370 140 c 0
 491 137 596 244 636 350 c 0
 671 443 652 558 533 560 c 0
 412 562 307 456 268 350 c 0
94 350 m 0
 157 549 353 716 566 716 c 0
 772 716 867 535 809 350 c 0
 746 150 550 -23 334 -22 c 0
 126 -21 36 165 94 350 c 0
512 937 m 1
 632 986 l 1
 724 820 l 1
 637 782 l 1
 512 937 l 1
EndSplineSet
EndChar

StartChar: Oacute
Encoding: 211 211 204
Width: 772
VWidth: 0
Flags: HMW
LayerCount: 2
Fore
SplineSet
268 350 m 0
 234 258 252 143 370 140 c 0
 491 137 596 244 636 350 c 0
 671 443 652 558 533 560 c 0
 412 562 307 456 268 350 c 0
94 350 m 0
 157 549 353 716 566 716 c 0
 772 716 867 535 809 350 c 0
 746 150 550 -23 334 -22 c 0
 126 -21 36 165 94 350 c 0
807 926 m 1
 592 784 l 1
 515 830 l 1
 706 983 l 1
 807 926 l 1
EndSplineSet
EndChar

StartChar: Ocircumflex
Encoding: 212 212 205
Width: 772
VWidth: 0
Flags: HMW
LayerCount: 2
Fore
SplineSet
268 350 m 0
 234 258 252 143 370 140 c 0
 491 137 596 244 636 350 c 0
 671 443 652 558 533 560 c 0
 412 562 307 456 268 350 c 0
94 350 m 0
 157 549 353 716 566 716 c 0
 772 716 867 535 809 350 c 0
 746 150 550 -23 334 -22 c 0
 126 -21 36 165 94 350 c 0
651 882 m 1
 513 789 l 1
 471 834 l 1
 666 969 l 1
 777 825 l 1
 722 789 l 1
 651 882 l 1
EndSplineSet
EndChar

StartChar: Otilde
Encoding: 213 213 206
Width: 772
VWidth: 0
Flags: HMW
LayerCount: 2
Fore
SplineSet
268 350 m 0
 234 258 252 143 370 140 c 0
 491 137 596 244 636 350 c 0
 671 443 652 558 533 560 c 0
 412 562 307 456 268 350 c 0
94 350 m 0
 157 549 353 716 566 716 c 0
 772 716 867 535 809 350 c 0
 746 150 550 -23 334 -22 c 0
 126 -21 36 165 94 350 c 0
465 846 m 1
 455 885 556 924 584 923 c 0
 623 922 646 876 685 879 c 0
 713 881 737 908 757 925 c 1
 793 878 l 1
 764 847 723 806 676 810 c 0
 638 813 616 857 578 855 c 0
 548 853 527 826 510 805 c 1
 465 846 l 1
EndSplineSet
EndChar

StartChar: Odieresis
Encoding: 214 214 207
Width: 772
VWidth: 0
Flags: HMW
LayerCount: 2
Fore
SplineSet
268 350 m 0
 234 258 252 143 370 140 c 0
 491 137 596 244 636 350 c 0
 671 443 652 558 533 560 c 0
 412 562 307 456 268 350 c 0
94 350 m 0
 157 549 353 716 566 716 c 0
 772 716 867 535 809 350 c 0
 746 150 550 -23 334 -22 c 0
 126 -21 36 165 94 350 c 0
655 861 m 0
 667 903 719 940 762 939 c 0
 806 938 837 900 825 856 c 0
 813 814 761 776 718 777 c 0
 674 778 643 817 655 861 c 0
426 861 m 0
 438 903 489 940 532 939 c 0
 576 938 608 900 596 856 c 0
 584 814 532 776 489 777 c 0
 445 778 414 817 426 861 c 0
EndSplineSet
EndChar

StartChar: Ugrave
Encoding: 217 217 208
Width: 659
VWidth: 0
Flags: HMW
LayerCount: 2
Fore
SplineSet
248 700 m 1
 412 700 l 1
 252 242 l 2
 236 188 240 127 309 124 c 0
 380 121 435 183 460 243 c 1
 619 700 l 1
 783 700 l 1
 623 230 l 2
 569 82 438 -28 276 -28 c 0
 123 -28 46 85 88 230 c 0
 248 700 l 1
441 931 m 1
 561 979 l 1
 652 814 l 1
 566 776 l 1
 441 931 l 1
EndSplineSet
EndChar

StartChar: Uacute
Encoding: 218 218 209
Width: 659
VWidth: 0
Flags: HMW
LayerCount: 2
Fore
SplineSet
248 700 m 1
 412 700 l 1
 252 242 l 2
 236 188 240 127 309 124 c 0
 380 121 435 183 460 243 c 1
 619 700 l 1
 783 700 l 1
 623 230 l 2
 569 82 438 -28 276 -28 c 0
 123 -28 46 85 88 230 c 0
 248 700 l 1
746 920 m 1
 531 778 l 1
 454 824 l 1
 645 977 l 1
 746 920 l 1
EndSplineSet
EndChar

StartChar: Ucircumflex
Encoding: 219 219 210
Width: 659
VWidth: 0
Flags: HMW
LayerCount: 2
Fore
SplineSet
248 700 m 1
 412 700 l 1
 252 242 l 2
 236 188 240 127 309 124 c 0
 380 121 435 183 460 243 c 1
 619 700 l 1
 783 700 l 1
 623 230 l 2
 569 82 438 -28 276 -28 c 0
 123 -28 46 85 88 230 c 0
 248 700 l 1
577 860 m 1
 462 777 l 1
 379 853 l 1
 605 988 l 1
 751 842 l 1
 633 775 l 1
 577 860 l 1
EndSplineSet
EndChar

StartChar: Udieresis
Encoding: 220 220 211
Width: 659
VWidth: 0
Flags: HMW
LayerCount: 2
Fore
SplineSet
248 700 m 1
 412 700 l 1
 252 242 l 2
 236 188 240 127 309 124 c 0
 380 121 435 183 460 243 c 1
 619 700 l 1
 783 700 l 1
 623 230 l 2
 569 82 438 -28 276 -28 c 0
 123 -28 46 85 88 230 c 0
 248 700 l 1
616 861 m 0
 628 903 680 940 723 939 c 0
 767 938 798 900 786 856 c 0
 774 814 722 776 679 777 c 0
 635 778 604 817 616 861 c 0
351 861 m 0
 363 903 415 940 458 939 c 0
 502 938 533 900 521 856 c 0
 509 814 457 776 414 777 c 0
 370 778 339 817 351 861 c 0
EndSplineSet
EndChar

StartChar: Yacute
Encoding: 221 221 212
Width: 620
VWidth: 0
Flags: HMW
LayerCount: 2
Fore
SplineSet
726 920 m 1
 512 777 l 1
 435 824 l 1
 626 977 l 1
 726 920 l 1
618 699 m 1
 815 699 l 1
 436 277 l 1
 340 0 l 1
 172 0 l 1
 274 293 l 1
 186 700 l 1
 366 700 l 1
 402 443 l 1
 618 699 l 1
EndSplineSet
EndChar

StartChar: agrave
Encoding: 224 224 213
Width: 511
VWidth: 0
Flags: HMW
LayerCount: 2
Fore
SplineSet
158 136 m 0
 150 107 172 92 198 90 c 0
 261 86 303 137 333 185 c 1
 332 128 l 1
 294 47 224 -9 131 -9 c 0
 49 -9 -16 43 9 129 c 0
 37 227 146 278 242 278 c 0
 296 279 341 263 381 228 c 1
 360 160 l 1
 331 183 302 198 263 196 c 0
 226 194 170 175 158 136 c 0
169 318 m 1
 148 422 l 1
 215 450 285 473 358 473 c 0
 448 473 545 429 519 324 c 1
 409 0 l 1
 266 0 l 1
 372 294 l 1
 377 332 363 352 323 356 c 0
 271 361 216 337 169 318 c 1
277 688 m 1
 398 736 l 1
 489 570 l 1
 402 533 l 1
 277 688 l 1
EndSplineSet
Substitution2: "alt a" agrave.alt
EndChar

StartChar: aacute
Encoding: 225 225 214
Width: 511
VWidth: 0
Flags: HMW
LayerCount: 2
Fore
SplineSet
158 136 m 0
 150 107 172 92 198 90 c 0
 261 86 303 137 333 185 c 1
 332 128 l 1
 294 47 224 -9 131 -9 c 0
 49 -9 -16 43 9 129 c 0
 37 227 146 278 242 278 c 0
 296 279 341 263 381 228 c 1
 360 160 l 1
 331 183 302 198 263 196 c 0
 226 194 170 175 158 136 c 0
169 318 m 1
 148 422 l 1
 215 450 285 473 358 473 c 0
 448 473 545 429 519 324 c 1
 409 0 l 1
 266 0 l 1
 372 294 l 1
 377 332 363 352 323 356 c 0
 271 361 216 337 169 318 c 1
603 677 m 1
 388 534 l 1
 312 581 l 1
 503 734 l 1
 603 677 l 1
EndSplineSet
Substitution2: "alt a" aacute.alt
EndChar

StartChar: acircumflex
Encoding: 226 226 215
Width: 511
VWidth: 0
Flags: HMW
LayerCount: 2
Fore
SplineSet
158 136 m 0
 150 107 172 92 198 90 c 0
 261 86 303 137 333 185 c 1
 332 128 l 1
 294 47 224 -9 131 -9 c 0
 49 -9 -16 43 9 129 c 0
 37 227 146 278 242 278 c 0
 296 279 341 263 381 228 c 1
 360 160 l 1
 331 183 302 198 263 196 c 0
 226 194 170 175 158 136 c 0
169 318 m 1
 148 422 l 1
 215 450 285 473 358 473 c 0
 448 473 545 429 519 324 c 1
 409 0 l 1
 266 0 l 1
 372 294 l 1
 377 332 363 352 323 356 c 0
 271 361 216 337 169 318 c 1
424 616 m 1
 309 534 l 1
 225 610 l 1
 452 744 l 1
 598 599 l 1
 480 532 l 1
 424 616 l 1
EndSplineSet
Substitution2: "alt a" acircumflex.alt
EndChar

StartChar: atilde
Encoding: 227 227 216
Width: 511
VWidth: 0
Flags: HMW
LayerCount: 2
Fore
SplineSet
158 136 m 0
 150 107 172 92 198 90 c 0
 261 86 303 137 333 185 c 1
 332 128 l 1
 294 47 224 -9 131 -9 c 0
 49 -9 -16 43 9 129 c 0
 37 227 146 278 242 278 c 0
 296 279 341 263 381 228 c 1
 360 160 l 1
 331 183 302 198 263 196 c 0
 226 194 170 175 158 136 c 0
169 318 m 1
 148 422 l 1
 215 450 285 473 358 473 c 0
 448 473 545 429 519 324 c 1
 409 0 l 1
 266 0 l 1
 372 294 l 1
 377 332 363 352 323 356 c 0
 271 361 216 337 169 318 c 1
224 602 m 1
 256 646 301 695 361 692 c 0
 404 690 429 640 472 643 c 0
 504 645 531 674 554 694 c 1
 604 616 l 1
 568 578 513 531 456 536 c 0
 414 540 385 592 342 586 c 0
 313 582 295 558 278 537 c 1
 224 602 l 1
EndSplineSet
Substitution2: "alt a" atilde.alt
EndChar

StartChar: adieresis
Encoding: 228 228 217
Width: 511
VWidth: 0
Flags: HMW
LayerCount: 2
Fore
SplineSet
158 136 m 0
 150 107 172 92 198 90 c 0
 261 86 303 137 333 185 c 1
 332 128 l 1
 294 47 224 -9 131 -9 c 0
 49 -9 -16 43 9 129 c 0
 37 227 146 278 242 278 c 0
 296 279 341 263 381 228 c 1
 360 160 l 1
 331 183 302 198 263 196 c 0
 226 194 170 175 158 136 c 0
169 318 m 1
 148 422 l 1
 215 450 285 473 358 473 c 0
 448 473 545 429 519 324 c 1
 409 0 l 1
 266 0 l 1
 372 294 l 1
 377 332 363 352 323 356 c 0
 271 361 216 337 169 318 c 1
446 618 m 0
 458 660 509 697 552 696 c 0
 596 695 627 656 615 612 c 0
 603 570 551 533 508 534 c 0
 464 535 434 574 446 618 c 0
216 618 m 0
 228 660 279 697 322 696 c 0
 366 695 397 656 385 612 c 0
 373 570 322 533 279 534 c 0
 235 535 204 574 216 618 c 0
EndSplineSet
Substitution2: "alt a" adieresis.alt
EndChar

StartChar: aring
Encoding: 229 229 218
Width: 511
VWidth: 0
Flags: HMW
LayerCount: 2
Fore
SplineSet
158 136 m 0
 150 107 172 92 198 90 c 0
 261 86 303 137 333 185 c 1
 332 128 l 1
 294 47 224 -9 131 -9 c 0
 49 -9 -16 43 9 129 c 0
 37 227 146 278 242 278 c 0
 296 279 341 263 381 228 c 1
 360 160 l 1
 331 183 302 198 263 196 c 0
 226 194 170 175 158 136 c 0
169 318 m 1
 148 422 l 1
 215 450 285 473 358 473 c 0
 448 473 545 429 519 324 c 1
 409 0 l 1
 266 0 l 1
 372 294 l 1
 377 332 363 352 323 356 c 0
 271 361 216 337 169 318 c 1
307 651 m 0
 325 713 393 763 458 763 c 0
 523 763 565 710 547 647 c 0
 529 585 460 534 395 534 c 0
 330 534 289 589 307 651 c 0
383 647 m 0
 378 630 385 604 405 602 c 0
 428 599 463 630 470 650 c 0
 475 667 468 694 448 696 c 0
 425 699 390 667 383 647 c 0
EndSplineSet
Substitution2: "alt a" aring.alt
EndChar

StartChar: germandbls
Encoding: 223 223 219
Width: 603
VWidth: 0
Flags: HMW
LayerCount: 2
Fore
SplineSet
398 -12 m 0
 345 -12 260 5 226 28 c 1
 256 144 l 1
 284 124 322 110 354 110 c 0
 405 110 440 145 440 192 c 0
 440 289 334 298 334 380 c 0
 334 479 517 497 517 602 c 0
 517 643 495 662 459 662 c 0
 397 662 357 619 334 550 c 2
 149 -2 l 1
 -4 -2 l 1
 183 552 l 2
 231 692 296 797 488 797 c 0
 596 797 675 722 675 631 c 0
 675 493 494 447 494 388 c 0
 494 324 597 336 597 193 c 0
 597 79 516 -12 398 -12 c 0
EndSplineSet
EndChar

StartChar: ae
Encoding: 230 230 220
Width: 877
VWidth: 0
Flags: HMW
LayerCount: 2
Fore
SplineSet
159 -10 m 0
 37 -10 -13 44 6 124 c 0
 24 211 120 279 243 279 c 0
 301 279 347 265 424 224 c 1
 356 224 l 1
 377 290 l 2
 391 336 368 358 322 358 c 0
 278 358 210 340 168 318 c 1
 143 420 l 1
 225 456 297 473 364 473 c 0
 462 473 508 436 490 360 c 1
 471 348 l 1
 528 420 613 470 719 470 c 0
 846 470 903 398 872 263 c 0
 868 236 860 212 853 198 c 1
 490 198 l 1
 514 216 l 1
 493 150 509 99 575 99 c 0
 625 99 675 121 702 159 c 1
 832 126 l 1
 760 35 663 -10 554 -10 c 0
 449 -10 393 26 381 103 c 1
 396 102 l 1
 349 30 269 -10 159 -10 c 0
219 89 m 0
 278 89 324 122 350 186 c 1
 338 134 l 1
 345 195 l 1
 361 168 l 1
 333 187 296 197 258 197 c 0
 208 197 167 174 161 134 c 0
 157 101 174 89 219 89 c 0
518 236 m 1
 510 282 l 1
 744 282 l 1
 714 250 l 1
 718 258 718 259 719 266 c 0
 731 332 722 369 664 369 c 0
 598 369 553 322 518 236 c 1
EndSplineSet
EndChar

StartChar: ccedilla
Encoding: 231 231 221
Width: 464
VWidth: 0
Flags: HMW
LayerCount: 2
Fore
SplineSet
200 229 m 0
 179 172 200 115 266 112 c 0
 324 109 378 144 422 177 c 1
 379 31 l 1
 333 6 284 -10 231 -10 c 0
 95 -10 10 99 50 231 c 0
 92 370 232 470 376 470 c 0
 426 470 468 455 509 429 c 1
 464 282 l 1
 443 324 414 350 365 349 c 0
 296 348 224 292 200 229 c 0
184 59 m 1
 298 56 l 1
 168 -66 l 1
 178 -64 188 -61 198 -62 c 0
 249 -67 274 -113 260 -161 c 0
 242 -225 168 -265 105 -267 c 0
 55 -269 14 -250 -27 -225 c 1
 34 -162 l 1
 54 -174 75 -187 100 -186 c 0
 119 -185 166 -170 170 -147 c 0
 174 -126 144 -119 130 -118 c 0
 101 -116 69 -125 41 -131 c 1
 184 59 l 1
EndSplineSet
EndChar

StartChar: egrave
Encoding: 232 232 222
Width: 539
VWidth: 0
Flags: HMW
LayerCount: 2
Fore
SplineSet
125 198 m 1
 151 281 l 1
 394 282 l 1
 400 322 399 365 349 368 c 0
 282 372 236 305 210 253 c 2
 198 229 l 1
 178 178 176 107 245 101 c 0
 293 97 338 129 373 158 c 1
 499 122 l 1
 428 44 336 -11 228 -10 c 0
 88 -9 13 97 52 230 c 0
 57 247 64 263 71 279 c 0
 125 393 243 470 370 470 c 0
 510 470 572 367 537 237 c 0
 534 224 529 211 525 198 c 1
 125 198 l 1
299 689 m 1
 419 738 l 1
 510 572 l 1
 424 534 l 1
 299 689 l 1
EndSplineSet
EndChar

StartChar: eacute
Encoding: 233 233 223
Width: 539
VWidth: 0
Flags: HMW
LayerCount: 2
Fore
SplineSet
125 198 m 1
 151 281 l 1
 394 282 l 1
 400 322 399 365 349 368 c 0
 282 372 236 305 210 253 c 2
 198 229 l 1
 178 178 176 107 245 101 c 0
 293 97 338 129 373 158 c 1
 499 122 l 1
 428 44 336 -11 228 -10 c 0
 88 -9 13 97 52 230 c 0
 57 247 64 263 71 279 c 0
 125 393 243 470 370 470 c 0
 510 470 572 367 537 237 c 0
 534 224 529 211 525 198 c 1
 125 198 l 1
618 678 m 1
 403 536 l 1
 326 582 l 1
 517 735 l 1
 618 678 l 1
EndSplineSet
EndChar

StartChar: ecircumflex
Encoding: 234 234 224
Width: 539
VWidth: 0
Flags: HMW
LayerCount: 2
Fore
SplineSet
125 198 m 1
 151 281 l 1
 394 282 l 1
 400 322 399 365 349 368 c 0
 282 372 236 305 210 253 c 2
 198 229 l 1
 178 178 176 107 245 101 c 0
 293 97 338 129 373 158 c 1
 499 122 l 1
 428 44 336 -11 228 -10 c 0
 88 -9 13 97 52 230 c 0
 57 247 64 263 71 279 c 0
 125 393 243 470 370 470 c 0
 510 470 572 367 537 237 c 0
 534 224 529 211 525 198 c 1
 125 198 l 1
437 614 m 1
 322 531 l 1
 239 607 l 1
 465 742 l 1
 611 597 l 1
 493 530 l 1
 437 614 l 1
EndSplineSet
EndChar

StartChar: edieresis
Encoding: 235 235 225
Width: 539
VWidth: 0
Flags: HMW
LayerCount: 2
Fore
SplineSet
125 198 m 1
 151 281 l 1
 394 282 l 1
 400 322 399 365 349 368 c 0
 282 372 236 305 210 253 c 2
 198 229 l 1
 178 178 176 107 245 101 c 0
 293 97 338 129 373 158 c 1
 499 122 l 1
 428 44 336 -11 228 -10 c 0
 88 -9 13 97 52 230 c 0
 57 247 64 263 71 279 c 0
 125 393 243 470 370 470 c 0
 510 470 572 367 537 237 c 0
 534 224 529 211 525 198 c 1
 125 198 l 1
458 615 m 0
 470 657 522 694 565 693 c 0
 609 692 640 654 628 610 c 0
 616 568 565 531 522 532 c 0
 478 533 446 571 458 615 c 0
229 615 m 0
 241 657 293 694 336 693 c 0
 380 692 411 654 399 610 c 0
 387 568 335 531 292 532 c 0
 248 533 217 571 229 615 c 0
EndSplineSet
EndChar

StartChar: igrave
Encoding: 236 236 226
Width: 259
VWidth: 0
Flags: HMW
LayerCount: 2
Fore
SplineSet
160 460 m 1
 305 460 l 1
 146 0 l 1
 4 0 l 1
 160 460 l 1
141 693 m 1
 262 741 l 1
 353 576 l 1
 266 538 l 1
 141 693 l 1
EndSplineSet
EndChar

StartChar: dotlessi
Encoding: 305 305 227
Width: 259
VWidth: 0
Flags: HMW
LayerCount: 2
Fore
SplineSet
160 460 m 1
 305 460 l 1
 146 0 l 1
 4 0 l 1
 160 460 l 1
EndSplineSet
EndChar

StartChar: kgreenlandic
Encoding: 312 312 228
Width: 542
VWidth: 0
Flags: HMW
LayerCount: 2
Fore
SplineSet
154 460 m 1
 298 460 l 1
 139 0 l 1
 -2 0 l 1
 154 460 l 1
443 459 m 1
 631 459 l 1
 370 264 l 1
 479 0 l 1
 320 0 l 1
 202 278 l 1
 443 459 l 1
EndSplineSet
EndChar

StartChar: iacute
Encoding: 237 237 229
Width: 259
VWidth: 0
Flags: HMW
LayerCount: 2
Fore
SplineSet
160 460 m 1
 305 460 l 1
 146 0 l 1
 4 0 l 1
 160 460 l 1
475 682 m 1
 260 540 l 1
 183 586 l 1
 374 739 l 1
 475 682 l 1
EndSplineSet
EndChar

StartChar: icircumflex
Encoding: 238 238 230
Width: 259
VWidth: 0
Flags: HMW
LayerCount: 2
Fore
SplineSet
160 460 m 1
 305 460 l 1
 146 0 l 1
 4 0 l 1
 160 460 l 1
294 618 m 1
 179 535 l 1
 96 611 l 1
 322 746 l 1
 468 600 l 1
 350 534 l 1
 294 618 l 1
EndSplineSet
EndChar

StartChar: idieresis
Encoding: 239 239 231
Width: 259
VWidth: 0
Flags: HMW
LayerCount: 2
Fore
SplineSet
160 460 m 1
 305 460 l 1
 146 0 l 1
 4 0 l 1
 160 460 l 1
318 626 m 0
 330 668 382 706 425 705 c 0
 469 704 500 665 488 621 c 0
 476 579 425 542 382 543 c 0
 338 544 306 582 318 626 c 0
89 626 m 0
 101 668 153 706 196 705 c 0
 240 704 271 665 259 621 c 0
 247 579 195 542 152 543 c 0
 108 544 77 582 89 626 c 0
EndSplineSet
EndChar

StartChar: ntilde
Encoding: 241 241 232
Width: 540
VWidth: 0
Flags: HMW
LayerCount: 2
Fore
SplineSet
305 460 m 1
 146 0 l 1
 -2 0 l 1
 157 460 l 1
 305 460 l 1
379 280 m 1
 388 312 396 357 351 363 c 0
 302 369 264 316 242 281 c 1
 210 276 l 1
 247 371 315 469 428 470 c 0
 535 471 558 386 533 296 c 1
 433 0 l 1
 280 0 l 1
 379 280 l 1
234 600 m 1
 266 644 311 693 371 690 c 0
 414 688 439 637 482 640 c 0
 514 642 541 672 564 692 c 1
 614 614 l 1
 578 576 522 528 465 533 c 0
 423 537 396 590 353 584 c 0
 324 580 305 556 288 535 c 1
 234 600 l 1
EndSplineSet
EndChar

StartChar: ograve
Encoding: 242 242 233
Width: 554
VWidth: 0
Flags: HMW
LayerCount: 2
Fore
SplineSet
51 231 m 0
 92 367 231 470 374 470 c 0
 510 470 592 359 552 229 c 0
 511 93 371 -10 229 -10 c 0
 93 -10 11 101 51 231 c 0
202 229 m 0
 184 181 193 118 255 116 c 0
 319 114 381 175 402 231 c 0
 420 279 411 343 349 345 c 0
 285 347 223 285 202 229 c 0
308 693 m 1
 428 741 l 1
 520 576 l 1
 433 538 l 1
 308 693 l 1
EndSplineSet
EndChar

StartChar: oacute
Encoding: 243 243 234
Width: 554
VWidth: 0
Flags: HMW
LayerCount: 2
Fore
SplineSet
51 231 m 0
 92 367 231 470 374 470 c 0
 510 470 592 359 552 229 c 0
 511 93 371 -10 229 -10 c 0
 93 -10 11 101 51 231 c 0
202 229 m 0
 184 181 193 118 255 116 c 0
 319 114 381 175 402 231 c 0
 420 279 411 343 349 345 c 0
 285 347 223 285 202 229 c 0
610 682 m 1
 396 540 l 1
 319 586 l 1
 510 739 l 1
 610 682 l 1
EndSplineSet
EndChar

StartChar: ocircumflex
Encoding: 244 244 235
Width: 554
VWidth: 0
Flags: HMW
LayerCount: 2
Fore
SplineSet
51 231 m 0
 92 367 231 470 374 470 c 0
 510 470 592 359 552 229 c 0
 511 93 371 -10 229 -10 c 0
 93 -10 11 101 51 231 c 0
202 229 m 0
 184 181 193 118 255 116 c 0
 319 114 381 175 402 231 c 0
 420 279 411 343 349 345 c 0
 285 347 223 285 202 229 c 0
443 622 m 1
 328 538 l 1
 245 615 l 1
 471 749 l 1
 617 604 l 1
 500 537 l 1
 443 622 l 1
EndSplineSet
EndChar

StartChar: otilde
Encoding: 245 245 236
Width: 554
VWidth: 0
Flags: HMW
LayerCount: 2
Fore
SplineSet
51 231 m 0
 92 367 231 470 374 470 c 0
 510 470 592 359 552 229 c 0
 511 93 371 -10 229 -10 c 0
 93 -10 11 101 51 231 c 0
202 229 m 0
 184 181 193 118 255 116 c 0
 319 114 381 175 402 231 c 0
 420 279 411 343 349 345 c 0
 285 347 223 285 202 229 c 0
240 599 m 1
 230 647 343 691 378 690 c 0
 421 689 444 637 488 640 c 0
 520 642 547 672 570 692 c 1
 621 614 l 1
 585 576 530 528 473 533 c 0
 431 537 402 590 359 584 c 0
 330 580 312 556 295 535 c 1
 240 599 l 1
EndSplineSet
EndChar

StartChar: odieresis
Encoding: 246 246 237
Width: 554
VWidth: 0
Flags: HMW
LayerCount: 2
Fore
SplineSet
51 231 m 0
 92 367 231 470 374 470 c 0
 510 470 592 359 552 229 c 0
 511 93 371 -10 229 -10 c 0
 93 -10 11 101 51 231 c 0
202 229 m 0
 184 181 193 118 255 116 c 0
 319 114 381 175 402 231 c 0
 420 279 411 343 349 345 c 0
 285 347 223 285 202 229 c 0
466 626 m 0
 478 668 529 706 572 705 c 0
 616 704 647 665 635 621 c 0
 623 579 572 542 529 543 c 0
 485 544 454 582 466 626 c 0
237 626 m 0
 249 668 300 706 343 705 c 0
 387 704 418 665 406 621 c 0
 394 579 343 542 300 543 c 0
 256 544 225 582 237 626 c 0
EndSplineSet
EndChar

StartChar: ugrave
Encoding: 249 249 238
Width: 540
VWidth: 0
Flags: HMW
LayerCount: 2
Fore
SplineSet
284 0 m 1
 443 460 l 1
 592 460 l 1
 433 0 l 1
 284 0 l 1
211 180 m 1
 202 148 193 103 238 97 c 0
 287 91 325 144 347 179 c 1
 380 184 l 1
 343 89 274 -9 161 -10 c 0
 54 -11 31 74 56 164 c 1
 157 460 l 1
 310 460 l 1
 211 180 l 1
315 693 m 1
 436 741 l 1
 527 576 l 1
 440 538 l 1
 315 693 l 1
EndSplineSet
EndChar

StartChar: uacute
Encoding: 250 250 239
Width: 540
VWidth: 0
Flags: HMW
LayerCount: 2
Fore
SplineSet
284 0 m 1
 443 460 l 1
 592 460 l 1
 433 0 l 1
 284 0 l 1
211 180 m 1
 202 148 193 103 238 97 c 0
 287 91 325 144 347 179 c 1
 380 184 l 1
 343 89 274 -9 161 -10 c 0
 54 -11 31 74 56 164 c 1
 157 460 l 1
 310 460 l 1
 211 180 l 1
589 682 m 1
 375 539 l 1
 298 586 l 1
 489 739 l 1
 589 682 l 1
EndSplineSet
EndChar

StartChar: ucircumflex
Encoding: 251 251 240
Width: 540
VWidth: 0
Flags: HMW
LayerCount: 2
Fore
SplineSet
284 0 m 1
 443 460 l 1
 592 460 l 1
 433 0 l 1
 284 0 l 1
211 180 m 1
 202 148 193 103 238 97 c 0
 287 91 325 144 347 179 c 1
 380 184 l 1
 343 89 274 -9 161 -10 c 0
 54 -11 31 74 56 164 c 1
 157 460 l 1
 310 460 l 1
 211 180 l 1
436 622 m 1
 321 538 l 1
 237 615 l 1
 464 749 l 1
 610 604 l 1
 492 537 l 1
 436 622 l 1
EndSplineSet
EndChar

StartChar: udieresis
Encoding: 252 252 241
Width: 540
VWidth: 0
Flags: HMW
LayerCount: 2
Fore
SplineSet
284 0 m 1
 443 460 l 1
 592 460 l 1
 433 0 l 1
 284 0 l 1
211 180 m 1
 202 148 193 103 238 97 c 0
 287 91 325 144 347 179 c 1
 380 184 l 1
 343 89 274 -9 161 -10 c 0
 54 -11 31 74 56 164 c 1
 157 460 l 1
 310 460 l 1
 211 180 l 1
458 623 m 0
 470 665 521 702 564 701 c 0
 608 700 640 661 628 617 c 0
 616 575 564 538 521 539 c 0
 476 540 446 579 458 623 c 0
229 623 m 0
 241 665 292 702 335 701 c 0
 379 700 410 661 398 617 c 0
 386 575 335 538 292 539 c 0
 247 540 217 579 229 623 c 0
EndSplineSet
EndChar

StartChar: yacute
Encoding: 253 253 242
Width: 489
VWidth: 0
Flags: HMW
LayerCount: 2
Fore
SplineSet
610 459 m 1
 93 -219 l 1
 -63 -219 l 1
 139 46 l 1
 96 460 l 1
 250 460 l 1
 263 91 l 1
 186 93 l 1
 451 459 l 1
 610 459 l 1
579 682 m 1
 364 540 l 1
 289 586 l 1
 479 739 l 1
 579 682 l 1
EndSplineSet
EndChar

StartChar: thorn
Encoding: 254 254 243
Width: 579
VWidth: 0
Flags: HMW
LayerCount: 2
Fore
SplineSet
71 -220 m 1
 -79 -220 l 1
 264 780 l 1
 412 780 l 1
 71 -220 l 1
577 229 m 0
 541 110 429 -11 297 -10 c 0
 165 -9 148 130 179 231 c 0
 214 345 312 469 442 469 c 0
 575 469 611 337 577 229 c 0
425 231 m 0
 443 280 432 345 369 347 c 0
 305 349 243 284 222 229 c 0
 205 182 213 116 274 113 c 0
 339 110 404 175 425 231 c 0
EndSplineSet
EndChar

StartChar: ydieresis
Encoding: 255 255 244
Width: 489
VWidth: 0
Flags: HMW
LayerCount: 2
Fore
SplineSet
610 459 m 1
 93 -219 l 1
 -63 -219 l 1
 139 46 l 1
 96 460 l 1
 250 460 l 1
 263 91 l 1
 186 93 l 1
 451 459 l 1
 610 459 l 1
430 615 m 0
 442 657 494 694 537 693 c 0
 581 692 612 654 600 610 c 0
 588 568 536 531 493 532 c 0
 449 533 418 571 430 615 c 0
201 615 m 0
 213 657 264 694 307 693 c 0
 351 692 382 654 370 610 c 0
 358 568 307 531 264 532 c 0
 220 533 189 571 201 615 c 0
EndSplineSet
EndChar

StartChar: Amacron
Encoding: 256 256 245
Width: 690
VWidth: 0
Flags: HMW
LayerCount: 2
Fore
SplineSet
163 136 m 1
 218 263 l 1
 550 264 l 1
 516 135 l 1
 163 136 l 1
449 442 m 1
 278 216 l 1
 273 178 l 1
 131 0 l 1
 -63 0 l 1
 544 749 l 1
 637 0 l 1
 460 0 l 1
 437 173 l 1
 459 216 l 1
 449 442 l 1
389 805 m 1
 434 936 l 1
 789 936 l 1
 744 804 l 1
 389 805 l 1
EndSplineSet
EndChar

StartChar: amacron
Encoding: 257 257 246
Width: 511
VWidth: 0
Flags: HMW
LayerCount: 2
Fore
SplineSet
158 136 m 0
 150 107 172 92 198 90 c 0
 261 86 303 137 333 185 c 1
 332 128 l 1
 294 47 224 -9 131 -9 c 0
 49 -9 -16 43 9 129 c 0
 37 227 146 278 242 278 c 0
 296 279 341 263 381 228 c 1
 360 160 l 1
 331 183 302 198 263 196 c 0
 226 194 170 175 158 136 c 0
169 318 m 1
 148 422 l 1
 215 450 285 473 358 473 c 0
 448 473 545 429 519 324 c 1
 409 0 l 1
 266 0 l 1
 372 294 l 1
 377 332 363 352 323 356 c 0
 271 361 216 337 169 318 c 1
212 541 m 1
 258 672 l 1
 614 672 l 1
 568 541 l 1
 212 541 l 1
EndSplineSet
Substitution2: "alt a" amacron.alt
EndChar

StartChar: breve
Encoding: 728 728 247
Width: 513
VWidth: 0
Flags: HMW
LayerCount: 2
Fore
SplineSet
326 850 m 1
 418 850 l 1
 419 822 423 795 457 792 c 0
 494 789 521 823 540 849 c 1
 639 848 l 1
 605 767 540 706 447 705 c 0
 356 704 317 765 326 850 c 1
EndSplineSet
EndChar

StartChar: Abreve
Encoding: 258 258 248
Width: 690
VWidth: 0
Flags: HMW
LayerCount: 2
Fore
SplineSet
163 136 m 1
 218 263 l 1
 550 264 l 1
 516 135 l 1
 163 136 l 1
449 442 m 1
 278 216 l 1
 273 178 l 1
 131 0 l 1
 -63 0 l 1
 544 749 l 1
 637 0 l 1
 460 0 l 1
 437 173 l 1
 459 216 l 1
 449 442 l 1
458 951 m 1
 550 950 l 1
 550 922 552 895 586 892 c 0
 623 889 651 924 671 950 c 1
 771 948 l 1
 735 867 668 806 575 805 c 0
 483 804 447 867 458 951 c 1
EndSplineSet
EndChar

StartChar: abreve
Encoding: 259 259 249
Width: 511
VWidth: 0
Flags: HMW
LayerCount: 2
Fore
SplineSet
158 136 m 0
 150 107 172 92 198 90 c 0
 261 86 303 137 333 185 c 1
 332 128 l 1
 294 47 224 -9 131 -9 c 0
 49 -9 -16 43 9 129 c 0
 37 227 146 278 242 278 c 0
 296 279 341 263 381 228 c 1
 360 160 l 1
 331 183 302 198 263 196 c 0
 226 194 170 175 158 136 c 0
169 318 m 1
 148 422 l 1
 215 450 285 473 358 473 c 0
 448 473 545 429 519 324 c 1
 409 0 l 1
 266 0 l 1
 372 294 l 1
 377 332 363 352 323 356 c 0
 271 361 216 337 169 318 c 1
280 679 m 1
 372 679 l 1
 372 651 374 624 408 621 c 0
 445 618 472 652 492 678 c 1
 592 677 l 1
 556 596 489 535 396 534 c 0
 304 533 269 595 280 679 c 1
EndSplineSet
Substitution2: "alt a" abreve.alt
EndChar

StartChar: Aogonek
Encoding: 260 260 250
Width: 690
VWidth: 0
Flags: HMW
LayerCount: 2
Fore
SplineSet
163 136 m 1
 218 263 l 1
 550 264 l 1
 516 135 l 1
 163 136 l 1
449 442 m 1
 278 216 l 1
 273 178 l 1
 131 0 l 1
 -63 0 l 1
 544 749 l 1
 637 0 l 1
 460 0 l 1
 437 173 l 1
 459 216 l 1
 449 442 l 1
556 -111 m 1
 567 -183 l 1
 535 -204 503 -220 465 -220 c 0
 407 -220 364 -178 380 -118 c 0
 401 -42 490 -5 554 25 c 1
 593 0 l 1
 557 -24 498 -48 484 -94 c 0
 480 -109 481 -127 499 -130 c 0
 516 -133 541 -118 556 -111 c 1
EndSplineSet
EndChar

StartChar: aogonek
Encoding: 261 261 251
Width: 511
VWidth: 0
Flags: HMW
LayerCount: 2
Fore
SplineSet
158 136 m 0
 150 108 173 92 198 90 c 0
 261 85 303 137 333 185 c 1
 332 128 l 1
 294 47 224 -9 131 -9 c 0
 48 -9 -15 46 10 132 c 0
 39 229 147 278 242 278 c 0
 296 278 341 263 381 228 c 1
 360 160 l 1
 331 183 302 198 263 196 c 0
 226 194 169 176 158 136 c 0
169 318 m 1
 148 422 l 1
 215 450 285 473 358 473 c 0
 448 473 545 429 519 324 c 1
 409 0 l 1
 266 0 l 1
 372 294 l 1
 377 332 363 352 323 356 c 0
 271 361 216 337 169 318 c 1
342 -111 m 1
 354 -183 l 1
 322 -204 289 -220 251 -220 c 0
 193 -220 150 -178 166 -118 c 0
 187 -42 277 -5 341 25 c 1
 380 0 l 1
 344 -24 285 -48 271 -94 c 0
 267 -109 268 -127 286 -130 c 0
 303 -133 327 -118 342 -111 c 1
EndSplineSet
Substitution2: "alt a" aogonek.alt
EndChar

StartChar: Cacute
Encoding: 262 262 252
Width: 659
VWidth: 0
Flags: HMW
LayerCount: 2
Fore
SplineSet
273 350 m 0
 236 252 274 149 389 146 c 0
 475 144 554 190 623 236 c 1
 569 54 l 1
 500 12 426 -16 344 -16 c 0
 137 -15 34 161 94 350 c 0
 158 553 358 716 574 716 c 0
 648 716 709 691 765 644 c 1
 709 462 l 1
 671 521 620 554 548 554 c 0
 428 553 314 460 273 350 c 0
779 920 m 1
 565 778 l 1
 489 824 l 1
 679 977 l 1
 779 920 l 1
EndSplineSet
EndChar

StartChar: cacute
Encoding: 263 263 253
Width: 464
VWidth: 0
Flags: HMW
LayerCount: 2
Fore
SplineSet
200 229 m 0
 179 172 200 115 266 112 c 0
 324 109 378 144 422 177 c 1
 379 31 l 1
 333 6 284 -10 231 -10 c 0
 95 -10 10 99 50 231 c 0
 92 370 232 470 376 470 c 0
 426 470 468 455 509 429 c 1
 464 282 l 1
 443 324 414 350 365 349 c 0
 296 348 224 292 200 229 c 0
582 674 m 1
 367 532 l 1
 290 579 l 1
 480 732 l 1
 582 674 l 1
EndSplineSet
EndChar

StartChar: Ccircumflex
Encoding: 264 264 254
Width: 659
VWidth: 0
Flags: HMW
LayerCount: 2
Fore
SplineSet
273 350 m 0
 236 252 274 149 389 146 c 0
 475 144 554 190 623 236 c 1
 569 54 l 1
 500 12 426 -16 344 -16 c 0
 137 -15 34 161 94 350 c 0
 158 553 358 716 574 716 c 0
 648 716 709 691 765 644 c 1
 709 462 l 1
 671 521 620 554 548 554 c 0
 428 553 314 460 273 350 c 0
640 860 m 1
 525 777 l 1
 442 853 l 1
 669 988 l 1
 815 842 l 1
 696 775 l 1
 640 860 l 1
EndSplineSet
EndChar

StartChar: ccircumflex
Encoding: 265 265 255
Width: 464
VWidth: 0
Flags: HMW
LayerCount: 2
Fore
SplineSet
200 229 m 0
 179 172 200 115 266 112 c 0
 324 109 378 144 422 177 c 1
 379 31 l 1
 333 6 284 -10 231 -10 c 0
 95 -10 10 99 50 231 c 0
 92 370 232 470 376 470 c 0
 426 470 468 455 509 429 c 1
 464 282 l 1
 443 324 414 350 365 349 c 0
 296 348 224 292 200 229 c 0
413 614 m 1
 297 531 l 1
 214 607 l 1
 440 742 l 1
 587 597 l 1
 469 530 l 1
 413 614 l 1
EndSplineSet
EndChar

StartChar: Cdotaccent
Encoding: 266 266 256
Width: 659
VWidth: 0
Flags: HMW
LayerCount: 2
Fore
SplineSet
273 350 m 0
 236 252 274 149 389 146 c 0
 475 144 554 190 623 236 c 1
 569 54 l 1
 500 12 426 -16 344 -16 c 0
 137 -15 34 161 94 350 c 0
 158 553 358 716 574 716 c 0
 648 716 709 691 765 644 c 1
 709 462 l 1
 671 521 620 554 548 554 c 0
 428 553 314 460 273 350 c 0
524 861 m 0
 536 903 587 940 630 939 c 0
 674 938 705 900 693 856 c 0
 681 814 630 776 587 777 c 0
 543 778 512 817 524 861 c 0
EndSplineSet
EndChar

StartChar: cdotaccent
Encoding: 267 267 257
Width: 464
VWidth: 0
Flags: HMW
LayerCount: 2
Fore
SplineSet
200 229 m 0
 179 172 200 115 266 112 c 0
 324 109 378 144 422 177 c 1
 379 31 l 1
 333 6 284 -10 231 -10 c 0
 95 -10 10 99 50 231 c 0
 92 370 232 470 376 470 c 0
 426 470 468 455 509 429 c 1
 464 282 l 1
 443 324 414 350 365 349 c 0
 296 348 224 292 200 229 c 0
328 621 m 0
 340 663 391 701 434 700 c 0
 478 699 509 660 497 616 c 0
 485 574 433 537 390 538 c 0
 346 539 316 577 328 621 c 0
EndSplineSet
EndChar

StartChar: Ccaron
Encoding: 268 268 258
Width: 659
VWidth: 0
Flags: HMW
LayerCount: 2
Fore
SplineSet
273 350 m 0
 236 252 274 149 389 146 c 0
 475 144 554 190 623 236 c 1
 569 54 l 1
 500 12 426 -16 344 -16 c 0
 137 -15 34 161 94 350 c 0
 158 553 358 716 574 716 c 0
 648 716 709 691 765 644 c 1
 709 462 l 1
 671 521 620 554 548 554 c 0
 428 553 314 460 273 350 c 0
640 904 m 1
 755 987 l 1
 838 911 l 1
 612 776 l 1
 465 921 l 1
 584 988 l 1
 640 904 l 1
EndSplineSet
EndChar

StartChar: ccaron
Encoding: 269 269 259
Width: 464
VWidth: 0
Flags: HMW
LayerCount: 2
Fore
SplineSet
200 229 m 0
 179 172 200 115 266 112 c 0
 324 109 378 144 422 177 c 1
 379 31 l 1
 333 6 284 -10 231 -10 c 0
 95 -10 10 99 50 231 c 0
 92 370 232 470 376 470 c 0
 426 470 468 455 509 429 c 1
 464 282 l 1
 443 324 414 350 365 349 c 0
 296 348 224 292 200 229 c 0
412 658 m 1
 527 742 l 1
 610 665 l 1
 384 531 l 1
 237 676 l 1
 356 743 l 1
 412 658 l 1
EndSplineSet
EndChar

StartChar: Dcaron
Encoding: 270 270 260
Width: 689
VWidth: 0
Flags: HMW
LayerCount: 2
Fore
SplineSet
251 700 m 1
 422 700 l 1
 182 0 l 1
 13 0 l 1
 251 700 l 1
261 0 m 0
 117 0 l 1
 170 151 l 1
 287 151 l 0
 411 156 513 235 556 350 c 0
 596 455 560 543 442 549 c 1
 305 550 l 1
 358 700 l 1
 480 700 l 0
 682 694 787 542 726 350 c 0
 662 146 474 5 261 0 c 0
600 904 m 1
 714 987 l 1
 798 911 l 1
 572 776 l 1
 426 921 l 1
 543 988 l 1
 600 904 l 1
EndSplineSet
EndChar

StartChar: dcaron
Encoding: 271 271 261
Width: 579
VWidth: 0
Flags: HMW
LayerCount: 2
Fore
SplineSet
593 780 m 1
 742 780 l 1
 474 0 l 1
 327 0 l 1
 593 780 l 1
51 231 m 0
 87 350 200 471 332 470 c 0
 464 469 481 330 450 229 c 0
 415 115 318 -9 188 -9 c 0
 55 -9 17 123 51 231 c 0
205 229 m 0
 187 180 197 115 260 113 c 0
 324 111 386 176 407 231 c 0
 424 278 417 344 356 347 c 0
 291 350 226 285 205 229 c 0
844 778 m 1
 986 744 l 1
 784 500 l 1
 674 524 l 1
 844 778 l 1
EndSplineSet
EndChar

StartChar: Dcroat
Encoding: 272 272 262
Width: 689
VWidth: 0
Flags: HMW
LayerCount: 2
Fore
SplineSet
50 298 m 1
 84 398 l 1
 413 398 l 1
 378 298 l 1
 50 298 l 1
251 700 m 1
 422 700 l 1
 182 0 l 1
 13 0 l 1
 251 700 l 1
261 0 m 0
 117 0 l 1
 170 151 l 1
 287 151 l 0
 411 156 513 235 556 350 c 0
 596 455 560 543 442 549 c 1
 305 550 l 1
 358 700 l 1
 480 700 l 0
 682 694 787 542 726 350 c 0
 662 146 474 5 261 0 c 0
EndSplineSet
EndChar

StartChar: dcroat
Encoding: 273 273 263
Width: 579
VWidth: 0
Flags: HMW
LayerCount: 2
Fore
SplineSet
414 565 m 1
 449 665 l 1
 790 665 l 1
 754 565 l 1
 414 565 l 1
593 780 m 1
 742 780 l 1
 474 0 l 1
 327 0 l 1
 593 780 l 1
51 231 m 0
 87 350 200 471 332 470 c 0
 464 469 481 330 450 229 c 0
 415 115 318 -9 188 -9 c 0
 55 -9 17 123 51 231 c 0
205 229 m 0
 187 180 197 115 260 113 c 0
 324 111 386 176 407 231 c 0
 424 278 417 344 356 347 c 0
 291 350 226 285 205 229 c 0
EndSplineSet
EndChar

StartChar: Emacron
Encoding: 274 274 264
Width: 567
VWidth: 0
Flags: HMW
LayerCount: 2
Fore
SplineSet
118 0 m 1
 167 139 l 1
 505 139 l 1
 456 0 l 1
 118 0 l 1
310 561 m 1
 358 700 l 1
 696 700 l 1
 648 561 l 1
 310 561 l 1
221 300 m 1
 268 436 l 1
 587 436 l 1
 539 299 l 1
 221 300 l 1
251 700 m 1
 411 700 l 1
 170 0 l 1
 13 0 l 1
 251 700 l 1
322 777 m 1
 367 908 l 1
 722 908 l 1
 677 776 l 1
 322 777 l 1
EndSplineSet
EndChar

StartChar: emacron
Encoding: 275 275 265
Width: 539
VWidth: 0
Flags: HMW
LayerCount: 2
Fore
SplineSet
125 198 m 1
 151 281 l 1
 394 282 l 1
 400 322 399 365 349 368 c 0
 282 372 236 305 210 253 c 2
 198 229 l 1
 178 178 176 107 245 101 c 0
 293 97 338 129 373 158 c 1
 499 122 l 1
 428 44 336 -11 228 -10 c 0
 88 -9 13 97 52 230 c 0
 57 247 64 263 71 279 c 0
 125 393 243 470 370 470 c 0
 510 470 572 367 537 237 c 0
 534 224 529 211 525 198 c 1
 125 198 l 1
223 531 m 1
 269 662 l 1
 624 662 l 1
 578 531 l 1
 223 531 l 1
EndSplineSet
EndChar

StartChar: Ebreve
Encoding: 276 276 266
Width: 567
VWidth: 0
Flags: HMW
LayerCount: 2
Fore
SplineSet
118 0 m 1
 167 139 l 1
 505 139 l 1
 456 0 l 1
 118 0 l 1
310 561 m 1
 358 700 l 1
 696 700 l 1
 648 561 l 1
 310 561 l 1
221 300 m 1
 268 436 l 1
 587 436 l 1
 539 299 l 1
 221 300 l 1
251 700 m 1
 411 700 l 1
 170 0 l 1
 13 0 l 1
 251 700 l 1
390 922 m 1
 483 922 l 1
 483 894 485 867 519 864 c 0
 556 861 583 896 603 922 c 1
 704 920 l 1
 668 839 601 778 508 777 c 0
 416 776 379 838 390 922 c 1
EndSplineSet
EndChar

StartChar: ebreve
Encoding: 277 277 267
Width: 539
VWidth: 0
Flags: HMW
LayerCount: 2
Fore
SplineSet
125 198 m 1
 151 281 l 1
 394 282 l 1
 400 322 399 365 349 368 c 0
 282 372 236 305 210 253 c 2
 198 229 l 1
 178 178 176 107 245 101 c 0
 293 97 338 129 373 158 c 1
 499 122 l 1
 428 44 336 -11 228 -10 c 0
 88 -9 13 97 52 230 c 0
 57 247 64 263 71 279 c 0
 125 393 243 470 370 470 c 0
 510 470 572 367 537 237 c 0
 534 224 529 211 525 198 c 1
 125 198 l 1
293 677 m 1
 385 676 l 1
 385 648 387 621 421 618 c 0
 458 615 485 650 505 676 c 1
 606 674 l 1
 570 593 503 533 410 532 c 0
 318 531 282 593 293 677 c 1
EndSplineSet
EndChar

StartChar: Edotaccent
Encoding: 278 278 268
Width: 567
VWidth: 0
Flags: HMW
LayerCount: 2
Fore
SplineSet
118 0 m 1
 167 139 l 1
 505 139 l 1
 456 0 l 1
 118 0 l 1
310 561 m 1
 358 700 l 1
 696 700 l 1
 648 561 l 1
 310 561 l 1
221 300 m 1
 268 436 l 1
 587 436 l 1
 539 299 l 1
 221 300 l 1
251 700 m 1
 411 700 l 1
 170 0 l 1
 13 0 l 1
 251 700 l 1
442 861 m 0
 454 903 505 940 548 939 c 0
 592 938 624 900 612 856 c 0
 600 814 548 776 505 777 c 0
 461 778 430 817 442 861 c 0
EndSplineSet
EndChar

StartChar: edotaccent
Encoding: 279 279 269
Width: 539
VWidth: 0
Flags: HMW
LayerCount: 2
Fore
SplineSet
125 198 m 1
 151 281 l 1
 394 282 l 1
 400 322 399 365 349 368 c 0
 282 372 236 305 210 253 c 2
 198 229 l 1
 178 178 176 107 245 101 c 0
 293 97 338 129 373 158 c 1
 499 122 l 1
 428 44 336 -11 228 -10 c 0
 88 -9 13 97 52 230 c 0
 57 247 64 263 71 279 c 0
 125 393 243 470 370 470 c 0
 510 470 572 367 537 237 c 0
 534 224 529 211 525 198 c 1
 125 198 l 1
344 615 m 0
 356 657 407 694 450 693 c 0
 494 692 526 654 514 610 c 0
 502 568 450 531 407 532 c 0
 363 533 332 571 344 615 c 0
EndSplineSet
EndChar

StartChar: Eogonek
Encoding: 280 280 270
Width: 567
VWidth: 0
Flags: HMW
LayerCount: 2
Fore
SplineSet
118 0 m 1
 167 139 l 1
 505 139 l 1
 456 0 l 1
 118 0 l 1
310 561 m 1
 358 700 l 1
 696 700 l 1
 648 561 l 1
 310 561 l 1
221 300 m 1
 268 436 l 1
 587 436 l 1
 539 299 l 1
 221 300 l 1
251 700 m 1
 411 700 l 1
 170 0 l 1
 13 0 l 1
 251 700 l 1
281 -111 m 1
 292 -183 l 1
 260 -204 228 -220 190 -220 c 0
 132 -220 89 -178 105 -118 c 0
 126 -42 215 -5 279 25 c 1
 318 0 l 1
 282 -24 224 -48 210 -94 c 0
 206 -109 207 -127 225 -130 c 0
 242 -133 266 -118 281 -111 c 1
EndSplineSet
EndChar

StartChar: eogonek
Encoding: 281 281 271
Width: 539
VWidth: 0
Flags: HMW
LayerCount: 2
Fore
SplineSet
125 198 m 1
 151 281 l 1
 394 282 l 1
 400 322 399 365 349 368 c 0
 282 372 236 305 210 253 c 2
 198 229 l 1
 178 178 176 107 245 101 c 0
 293 97 338 129 373 158 c 1
 499 122 l 1
 428 44 336 -11 228 -10 c 0
 88 -9 13 97 52 230 c 0
 57 247 64 263 71 279 c 0
 125 393 243 470 370 470 c 0
 510 470 572 367 537 237 c 0
 534 224 529 211 525 198 c 1
 125 198 l 1
216 -103 m 1
 227 -175 l 1
 196 -196 163 -211 125 -211 c 0
 67 -211 24 -171 40 -111 c 0
 61 -35 150 3 214 33 c 1
 253 3 l 1
 215 -17 158 -42 144 -86 c 0
 139 -101 141 -119 159 -122 c 0
 176 -125 201 -110 216 -103 c 1
EndSplineSet
EndChar

StartChar: Ecaron
Encoding: 282 282 272
Width: 567
VWidth: 0
Flags: HMW
LayerCount: 2
Fore
SplineSet
118 0 m 1
 167 139 l 1
 505 139 l 1
 456 0 l 1
 118 0 l 1
310 561 m 1
 358 700 l 1
 696 700 l 1
 648 561 l 1
 310 561 l 1
221 300 m 1
 268 436 l 1
 587 436 l 1
 539 299 l 1
 221 300 l 1
251 700 m 1
 411 700 l 1
 170 0 l 1
 13 0 l 1
 251 700 l 1
535 904 m 1
 650 987 l 1
 733 911 l 1
 507 776 l 1
 360 921 l 1
 478 988 l 1
 535 904 l 1
EndSplineSet
EndChar

StartChar: ecaron
Encoding: 283 283 273
Width: 539
VWidth: 0
Flags: HMW
LayerCount: 2
Fore
SplineSet
125 198 m 1
 151 281 l 1
 394 282 l 1
 400 322 399 365 349 368 c 0
 282 372 236 305 210 253 c 2
 198 229 l 1
 178 178 176 107 245 101 c 0
 293 97 338 129 373 158 c 1
 499 122 l 1
 428 44 336 -11 228 -10 c 0
 88 -9 13 97 52 230 c 0
 57 247 64 263 71 279 c 0
 125 393 243 470 370 470 c 0
 510 470 572 367 537 237 c 0
 534 224 529 211 525 198 c 1
 125 198 l 1
437 658 m 1
 551 742 l 1
 635 665 l 1
 409 531 l 1
 262 676 l 1
 380 743 l 1
 437 658 l 1
EndSplineSet
EndChar

StartChar: Gcircumflex
Encoding: 284 284 274
Width: 765
VWidth: 0
Flags: HMW
LayerCount: 2
Fore
SplineSet
424 253 m 1
 470 383 l 1
 804 382 l 1
 744 174 572 -21 341 -22 c 0
 131 -22 34 162 94 350 c 0
 159 554 360 717 578 716 c 0
 697 716 783 654 832 548 c 1
 668 473 l 1
 649 531 613 567 548 568 c 0
 422 571 308 462 266 350 c 0
 229 250 251 128 377 126 c 0
 473 124 546 186 604 254 c 1
 424 253 l 1
645 860 m 1
 530 777 l 1
 447 853 l 1
 674 988 l 1
 819 842 l 1
 702 775 l 1
 645 860 l 1
EndSplineSet
EndChar

StartChar: gcircumflex
Encoding: 285 285 275
Width: 574
VWidth: 0
Flags: HMW
LayerCount: 2
Fore
SplineSet
-31 -32 m 1
 107 -34 l 1
 106 -82 118 -115 172 -116 c 0
 246 -118 302 -51 328 11 c 1
 484 460 l 1
 627 460 l 1
 473 9 l 2
 423 -130 309 -237 156 -238 c 0
 24 -239 -45 -161 -31 -32 c 1
54 237 m 0
 90 356 201 471 332 470 c 0
 463 469 484 338 452 236 c 0
 417 122 321 3 192 3 c 0
 61 3 20 128 54 237 c 0
206 235 m 0
 188 185 203 127 264 125 c 0
 326 123 390 183 410 238 c 0
 427 287 415 343 356 347 c 0
 293 351 226 291 206 235 c 0
464 614 m 1
 348 531 l 1
 265 607 l 1
 492 742 l 1
 638 597 l 1
 520 530 l 1
 464 614 l 1
EndSplineSet
EndChar

StartChar: Gbreve
Encoding: 286 286 276
Width: 765
VWidth: 0
Flags: HMW
LayerCount: 2
Fore
SplineSet
424 253 m 1
 470 383 l 1
 804 382 l 1
 744 174 572 -21 341 -22 c 0
 131 -22 34 162 94 350 c 0
 159 554 360 717 578 716 c 0
 697 716 783 654 832 548 c 1
 668 473 l 1
 649 531 613 567 548 568 c 0
 422 571 308 462 266 350 c 0
 229 250 251 128 377 126 c 0
 473 124 546 186 604 254 c 1
 424 253 l 1
500 922 m 1
 593 922 l 1
 593 894 595 867 629 864 c 0
 666 861 694 896 714 922 c 1
 814 920 l 1
 778 839 711 778 618 777 c 0
 526 776 489 838 500 922 c 1
EndSplineSet
EndChar

StartChar: gbreve
Encoding: 287 287 277
Width: 574
VWidth: 0
Flags: HMW
LayerCount: 2
Fore
SplineSet
-31 -32 m 1
 107 -34 l 1
 106 -82 118 -115 172 -116 c 0
 246 -118 302 -51 328 11 c 1
 484 460 l 1
 627 460 l 1
 473 9 l 2
 423 -130 309 -237 156 -238 c 0
 24 -239 -45 -161 -31 -32 c 1
54 237 m 0
 90 356 201 471 332 470 c 0
 463 469 484 338 452 236 c 0
 417 122 321 3 192 3 c 0
 61 3 20 128 54 237 c 0
206 235 m 0
 188 185 203 127 264 125 c 0
 326 123 390 183 410 238 c 0
 427 287 415 343 356 347 c 0
 293 351 226 291 206 235 c 0
320 677 m 1
 412 676 l 1
 412 648 414 621 448 618 c 0
 485 615 512 650 532 676 c 1
 632 674 l 1
 596 593 529 533 436 532 c 0
 344 531 309 593 320 677 c 1
EndSplineSet
EndChar

StartChar: Gdotaccent
Encoding: 288 288 278
Width: 765
VWidth: 0
Flags: HMW
LayerCount: 2
Fore
SplineSet
424 253 m 1
 470 383 l 1
 804 382 l 1
 744 174 572 -21 341 -22 c 0
 131 -22 34 162 94 350 c 0
 159 554 360 717 578 716 c 0
 697 716 783 654 832 548 c 1
 668 473 l 1
 649 531 613 567 548 568 c 0
 422 571 308 462 266 350 c 0
 229 250 251 128 377 126 c 0
 473 124 546 186 604 254 c 1
 424 253 l 1
552 861 m 0
 564 903 615 940 658 939 c 0
 702 938 733 900 721 856 c 0
 709 814 659 776 616 777 c 0
 572 778 540 817 552 861 c 0
EndSplineSet
EndChar

StartChar: gdotaccent
Encoding: 289 289 279
Width: 574
VWidth: 0
Flags: HMW
LayerCount: 2
Fore
SplineSet
-31 -32 m 1
 107 -34 l 1
 106 -82 118 -115 172 -116 c 0
 246 -118 302 -51 328 11 c 1
 484 460 l 1
 627 460 l 1
 473 9 l 2
 423 -130 309 -237 156 -238 c 0
 24 -239 -45 -161 -31 -32 c 1
54 237 m 0
 90 356 201 471 332 470 c 0
 463 469 484 338 452 236 c 0
 417 122 321 3 192 3 c 0
 61 3 20 128 54 237 c 0
206 235 m 0
 188 185 203 127 264 125 c 0
 326 123 390 183 410 238 c 0
 427 287 415 343 356 347 c 0
 293 351 226 291 206 235 c 0
365 630 m 0
 377 672 428 709 471 708 c 0
 515 707 546 669 534 625 c 0
 522 583 471 546 428 547 c 0
 384 548 353 586 365 630 c 0
EndSplineSet
EndChar

StartChar: uni0122
Encoding: 290 290 280
Width: 765
VWidth: 0
Flags: HMW
LayerCount: 2
Fore
SplineSet
424 253 m 1
 470 383 l 1
 804 382 l 1
 744 174 572 -21 341 -22 c 0
 131 -22 34 162 94 350 c 0
 159 554 360 717 578 716 c 0
 697 716 783 654 832 548 c 1
 668 473 l 1
 649 531 613 567 548 568 c 0
 422 571 308 462 266 350 c 0
 229 250 251 128 377 126 c 0
 473 124 546 186 604 254 c 1
 424 253 l 1
245 -84 m 1
 388 -119 l 1
 185 -363 l 1
 75 -338 l 1
 245 -84 l 1
EndSplineSet
EndChar

StartChar: Hcircumflex
Encoding: 292 292 281
Width: 739
VWidth: 0
Flags: HMW
LayerCount: 2
Fore
SplineSet
157 294 m 1
 209 445 l 1
 714 445 l 1
 661 293 l 1
 157 294 l 1
693 700 m 1
 860 700 l 1
 619 0 l 1
 455 0 l 1
 693 700 l 1
251 700 m 1
 417 700 l 1
 176 0 l 1
 13 0 l 1
 251 700 l 1
617 860 m 1
 502 777 l 1
 419 853 l 1
 646 988 l 1
 792 842 l 1
 674 775 l 1
 617 860 l 1
EndSplineSet
EndChar

StartChar: hcircumflex
Encoding: 293 293 282
Width: 534
VWidth: 0
Flags: HMW
LayerCount: 2
Fore
SplineSet
415 780 m 1
 146 0 l 1
 -2 0 l 1
 266 780 l 1
 415 780 l 1
379 280 m 1
 388 312 396 357 351 363 c 0
 302 369 265 316 243 281 c 1
 211 282 l 1
 249 377 317 475 430 476 c 0
 538 477 555 390 530 302 c 0
 426 0 l 1
 280 0 l 1
 379 280 l 1
487 923 m 1
 372 840 l 1
 289 917 l 1
 515 1051 l 1
 661 906 l 1
 544 839 l 1
 487 923 l 1
EndSplineSet
EndChar

StartChar: Itilde
Encoding: 296 296 283
Width: 300
VWidth: 0
Flags: HMW
LayerCount: 2
Fore
SplineSet
251 700 m 1
 420 700 l 1
 179 0 l 1
 13 0 l 1
 251 700 l 1
198 846 m 1
 230 890 274 939 334 936 c 0
 377 934 403 883 446 886 c 0
 478 888 505 917 528 937 c 1
 578 860 l 1
 542 822 487 774 430 779 c 0
 388 783 360 835 317 829 c 0
 288 825 268 801 251 780 c 1
 198 846 l 1
EndSplineSet
EndChar

StartChar: itilde
Encoding: 297 297 284
Width: 259
VWidth: 0
Flags: HMW
LayerCount: 2
Fore
SplineSet
160 460 m 1
 305 460 l 1
 146 0 l 1
 4 0 l 1
 160 460 l 1
92 600 m 1
 124 644 170 693 230 690 c 0
 273 688 297 637 340 640 c 0
 372 642 400 672 423 692 c 1
 473 614 l 1
 437 576 381 528 324 533 c 0
 282 537 255 590 212 584 c 0
 183 580 164 556 147 535 c 1
 92 600 l 1
EndSplineSet
EndChar

StartChar: Imacron
Encoding: 298 298 285
Width: 300
VWidth: 0
Flags: HMW
LayerCount: 2
Fore
SplineSet
251 700 m 1
 420 700 l 1
 179 0 l 1
 13 0 l 1
 251 700 l 1
184 777 m 1
 229 908 l 1
 585 908 l 1
 539 776 l 1
 184 777 l 1
EndSplineSet
EndChar

StartChar: imacron
Encoding: 299 299 286
Width: 259
VWidth: 0
Flags: HMW
LayerCount: 2
Fore
SplineSet
160 460 m 1
 305 460 l 1
 146 0 l 1
 4 0 l 1
 160 460 l 1
79 531 m 1
 125 662 l 1
 480 662 l 1
 434 531 l 1
 79 531 l 1
EndSplineSet
EndChar

StartChar: Ibreve
Encoding: 300 300 287
Width: 300
VWidth: 0
Flags: HMW
LayerCount: 2
Fore
SplineSet
251 700 m 1
 420 700 l 1
 179 0 l 1
 13 0 l 1
 251 700 l 1
253 922 m 1
 345 922 l 1
 345 894 348 867 382 864 c 0
 419 861 446 896 466 922 c 1
 566 920 l 1
 530 839 463 778 370 777 c 0
 278 776 242 838 253 922 c 1
EndSplineSet
EndChar

StartChar: ibreve
Encoding: 301 301 288
Width: 259
VWidth: 0
Flags: HMW
LayerCount: 2
Fore
SplineSet
160 460 m 1
 305 460 l 1
 146 0 l 1
 4 0 l 1
 160 460 l 1
148 677 m 1
 240 676 l 1
 240 648 242 621 276 618 c 0
 313 615 341 650 361 676 c 1
 461 674 l 1
 425 593 358 533 265 532 c 0
 173 531 137 593 148 677 c 1
EndSplineSet
EndChar

StartChar: Iogonek
Encoding: 302 302 289
Width: 300
VWidth: 0
Flags: HMW
LayerCount: 2
Fore
SplineSet
251 700 m 1
 420 700 l 1
 179 0 l 1
 13 0 l 1
 251 700 l 1
117 -109 m 1
 130 -181 l 1
 98 -202 65 -218 27 -218 c 0
 -31 -218 -74 -176 -58 -116 c 0
 -38 -40 52 -4 116 26 c 1
 156 -1 l 1
 118 -22 60 -47 46 -92 c 0
 41 -107 44 -125 62 -128 c 0
 79 -131 102 -116 117 -109 c 1
EndSplineSet
EndChar

StartChar: iogonek
Encoding: 303 303 290
Width: 259
VWidth: 0
Flags: HMW
LayerCount: 2
Fore
SplineSet
207 635 m 0
 219 677 270 714 313 713 c 0
 357 712 389 674 377 630 c 0
 365 588 313 551 270 552 c 0
 226 553 195 591 207 635 c 0
160 460 m 1
 305 460 l 1
 146 0 l 1
 4 0 l 1
 160 460 l 1
85 -111 m 1
 97 -183 l 1
 65 -204 32 -220 -6 -220 c 0
 -64 -220 -107 -178 -91 -118 c 0
 -70 -42 20 -5 84 25 c 1
 123 0 l 1
 87 -24 27 -48 13 -94 c 0
 9 -109 11 -127 29 -130 c 0
 46 -133 70 -118 85 -111 c 1
EndSplineSet
EndChar

StartChar: Idotaccent
Encoding: 304 304 291
Width: 300
VWidth: 0
Flags: HMW
LayerCount: 2
Fore
SplineSet
251 700 m 1
 420 700 l 1
 179 0 l 1
 13 0 l 1
 251 700 l 1
304 861 m 0
 316 903 368 940 411 939 c 0
 455 938 486 900 474 856 c 0
 462 814 410 776 367 777 c 0
 323 778 292 817 304 861 c 0
EndSplineSet
EndChar

StartChar: uni0136
Encoding: 310 310 292
Width: 657
VWidth: 0
Flags: HMW
LayerCount: 2
Fore
SplineSet
251 700 m 1
 423 700 l 1
 182 0 l 1
 13 0 l 1
 251 700 l 1
635 699 m 1
 839 699 l 1
 450 365 l 1
 602 0 l 1
 416 0 l 1
 260 375 l 1
 635 699 l 1
230 -62 m 1
 374 -96 l 1
 170 -340 l 1
 60 -316 l 1
 230 -62 l 1
EndSplineSet
EndChar

StartChar: uni0137
Encoding: 311 311 293
Width: 542
VWidth: 0
Flags: HMW
LayerCount: 2
Fore
SplineSet
263 780 m 1
 407 780 l 1
 139 0 l 1
 -2 0 l 1
 263 780 l 1
443 459 m 1
 631 459 l 1
 370 264 l 1
 479 0 l 1
 320 0 l 1
 202 278 l 1
 443 459 l 1
162 -62 m 1
 305 -96 l 1
 102 -340 l 1
 -8 -316 l 1
 162 -62 l 1
EndSplineSet
EndChar

StartChar: Lacute
Encoding: 313 313 294
Width: 496
VWidth: 0
Flags: HMW
LayerCount: 2
Fore
SplineSet
252 700 m 1
 417 700 l 1
 227 146 l 1
 492 146 l 1
 441 0 l 1
 12 0 l 1
 252 700 l 1
697 920 m 1
 482 778 l 1
 406 824 l 1
 597 977 l 1
 697 920 l 1
EndSplineSet
EndChar

StartChar: lacute
Encoding: 314 314 295
Width: 254
VWidth: 0
Flags: HMW
LayerCount: 2
Fore
SplineSet
265 780 m 1
 415 780 l 1
 146 0 l 1
 -0 0 l 1
 265 780 l 1
565 984 m 1
 350 841 l 1
 274 888 l 1
 464 1041 l 1
 565 984 l 1
EndSplineSet
EndChar

StartChar: uni013B
Encoding: 315 315 296
Width: 496
VWidth: 0
Flags: HMW
LayerCount: 2
Fore
SplineSet
252 700 m 1
 417 700 l 1
 227 146 l 1
 492 146 l 1
 441 0 l 1
 12 0 l 1
 252 700 l 1
171 -62 m 1
 314 -96 l 1
 111 -340 l 1
 1 -316 l 1
 171 -62 l 1
EndSplineSet
EndChar

StartChar: uni013C
Encoding: 316 316 297
Width: 254
VWidth: 0
Flags: HMW
LayerCount: 2
Fore
SplineSet
265 780 m 1
 415 780 l 1
 146 0 l 1
 -0 0 l 1
 265 780 l 1
17 -62 m 1
 160 -96 l 1
 -43 -340 l 1
 -154 -316 l 1
 17 -62 l 1
EndSplineSet
EndChar

StartChar: Lcaron
Encoding: 317 317 298
Width: 496
VWidth: 0
Flags: HMW
LayerCount: 2
Fore
SplineSet
252 700 m 1
 417 700 l 1
 227 146 l 1
 492 146 l 1
 441 0 l 1
 12 0 l 1
 252 700 l 1
573 714 m 1
 715 680 l 1
 513 436 l 1
 403 460 l 1
 573 714 l 1
EndSplineSet
EndChar

StartChar: lcaron
Encoding: 318 318 299
Width: 254
VWidth: 0
Flags: HMW
LayerCount: 2
Fore
SplineSet
265 780 m 1
 415 780 l 1
 146 0 l 1
 -0 0 l 1
 265 780 l 1
535 778 m 1
 678 744 l 1
 475 500 l 1
 365 524 l 1
 535 778 l 1
EndSplineSet
EndChar

StartChar: Ldot
Encoding: 319 319 300
Width: 496
VWidth: 0
Flags: HMW
LayerCount: 2
Fore
SplineSet
252 700 m 1
 417 700 l 1
 227 146 l 1
 492 146 l 1
 441 0 l 1
 12 0 l 1
 252 700 l 1
395 433 m 0
 408 479 462 523 511 522 c 0
 561 521 590 476 577 429 c 0
 564 383 510 338 461 339 c 0
 411 340 382 386 395 433 c 0
EndSplineSet
EndChar

StartChar: ldot
Encoding: 320 320 301
Width: 448
VWidth: 0
Flags: HMW
LayerCount: 2
Fore
SplineSet
265 780 m 1
 415 780 l 1
 146 0 l 1
 -0 0 l 1
 265 780 l 1
321 411 m 0
 334 457 388 501 437 500 c 0
 487 499 515 454 502 407 c 0
 489 361 436 316 387 317 c 0
 337 318 308 364 321 411 c 0
EndSplineSet
EndChar

StartChar: eth
Encoding: 240 240 302
Width: 626
VWidth: 0
Flags: HMW
LayerCount: 2
Fore
SplineSet
279 -16 m 0
 153 -16 56 56 56 183 c 0
 56 342 197 473 341 473 c 0
 420 473 472 430 528 344 c 1
 489 345 l 1
 455 507 392 588 256 685 c 1
 368 761 l 1
 570 588 621 483 621 311 c 0
 621 144 482 -16 279 -16 c 0
300 122 m 0
 387 122 449 202 449 268 c 0
 449 319 420 352 369 352 c 0
 295 352 218 279 218 205 c 0
 218 159 248 122 300 122 c 0
274 507 m 1
 257 562 l 1
 606 674 l 1
 623 619 l 1
 274 507 l 1
EndSplineSet
EndChar

StartChar: racute
Encoding: 341 341 303
Width: 387
VWidth: 0
Flags: HMW
LayerCount: 2
Fore
SplineSet
302 460 m 1
 143 0 l 1
 -2 0 l 1
 157 460 l 1
 302 460 l 1
378 304 m 1
 365 316 352 328 332 329 c 0
 276 331 244 269 222 228 c 1
 202 282 l 1
 236 362 303 474 404 471 c 0
 437 470 457 452 478 429 c 1
 378 304 l 1
551 675 m 1
 336 532 l 1
 260 579 l 1
 451 732 l 1
 551 675 l 1
EndSplineSet
EndChar

StartChar: rcaron
Encoding: 345 345 304
Width: 387
VWidth: 0
Flags: HMW
LayerCount: 2
Fore
SplineSet
302 460 m 1
 143 0 l 1
 -2 0 l 1
 157 460 l 1
 302 460 l 1
378 304 m 1
 365 316 352 328 332 329 c 0
 276 331 244 269 222 228 c 1
 201 282 l 1
 235 362 303 474 404 471 c 0
 437 470 457 452 478 429 c 1
 378 304 l 1
382 659 m 1
 497 742 l 1
 580 666 l 1
 354 531 l 1
 208 676 l 1
 326 743 l 1
 382 659 l 1
EndSplineSet
EndChar

StartChar: Rcaron
Encoding: 344 344 305
Width: 608
VWidth: 0
Flags: HMW
LayerCount: 2
Fore
SplineSet
290 317 m 1
 451 317 l 1
 548 0 l 1
 367 0 l 1
 290 317 l 1
251 700 m 1
 417 700 l 1
 176 0 l 1
 13 0 l 1
 251 700 l 1
304 557 m 1
 352 700 l 1
 485 700 l 0
 619 696 718 612 676 471 c 0
 633 327 492 246 348 242 c 0
 194 242 l 1
 241 374 l 1
 362 374 l 1
 420 378 483 408 504 466 c 0
 523 519 494 551 442 555 c 1
 304 557 l 1
541 904 m 1
 656 987 l 1
 739 911 l 1
 513 776 l 1
 366 921 l 1
 485 988 l 1
 541 904 l 1
EndSplineSet
EndChar

StartChar: uni0213
Encoding: 531 531 306
Width: 387
VWidth: 0
Flags: HMW
LayerCount: 2
Fore
SplineSet
302 460 m 1
 143 0 l 1
 -2 0 l 1
 157 460 l 1
 302 460 l 1
378 304 m 1
 365 316 352 328 332 329 c 0
 276 331 244 269 222 228 c 1
 201 282 l 1
 235 362 303 474 404 471 c 0
 437 470 457 452 478 429 c 1
 378 304 l 1
190 530 m 1
 281 532 l 1
 300 558 325 592 362 590 c 0
 400 588 405 562 407 530 c 1
 496 531 l 1
 516 609 498 674 406 676 c 0
 308 678 236 609 190 530 c 1
EndSplineSet
EndChar

StartChar: uni0212
Encoding: 530 530 307
Width: 608
VWidth: 0
Flags: HMW
LayerCount: 2
Fore
SplineSet
290 317 m 1
 451 317 l 1
 548 0 l 1
 367 0 l 1
 290 317 l 1
251 700 m 1
 417 700 l 1
 176 0 l 1
 13 0 l 1
 251 700 l 1
304 557 m 1
 352 700 l 1
 485 700 l 0
 619 696 718 612 676 471 c 0
 633 327 492 246 348 242 c 0
 194 242 l 1
 241 374 l 1
 362 374 l 1
 420 378 483 408 504 466 c 0
 523 519 494 551 442 555 c 1
 304 557 l 1
361 775 m 1
 452 777 l 1
 471 803 497 837 534 835 c 0
 572 833 577 807 579 775 c 1
 668 776 l 1
 688 854 669 920 577 922 c 0
 479 924 407 854 361 775 c 1
EndSplineSet
EndChar

StartChar: OE
Encoding: 338 338 308
Width: 926
VWidth: 0
Flags: HMW
LayerCount: 2
Fore
SplineSet
574 300 m 1
 622 436 l 1
 973 436 l 1
 925 299 l 1
 574 300 l 1
627 670 m 1
 787 670 l 1
 566 30 l 1
 408 30 l 1
 627 670 l 1
886 138 m 1
 842 0 l 1
 323 0 l 0
 128 7 38 172 94 350 c 0
 155 543 337 694 541 700 c 0
 1082 700 l 1
 1032 561 l 1
 682 561 l 1
 662 551 l 1
 540 551 l 0
 414 546 308 468 264 350 c 0
 223 242 263 155 383 149 c 0
 503 149 l 1
 522 139 l 1
 886 138 l 1
EndSplineSet
EndChar

StartChar: oe
Encoding: 339 339 309
Width: 846
VWidth: 0
Flags: HMW
LayerCount: 2
Fore
SplineSet
696 250 m 2
 710 292 722 361 660 367 c 0
 596 373 547 309 522 259 c 2
 508 230 l 1
 489 180 481 102 553 98 c 0
 602 95 646 129 681 158 c 1
 805 122 l 1
 742 52 654 -11 556 -10 c 0
 423 -9 394 124 426 230 c 0
 431 247 438 263 445 279 c 0
 494 380 598 471 715 470 c 0
 844 469 872 337 843 234 c 0
 840 222 834 210 830 198 c 1
 690 232 l 1
 696 250 l 2
467 198 m 1
 493 281 l 1
 838 281 l 1
 830 198 l 1
 467 198 l 1
54 231 m 0
 92 354 209 471 344 470 c 0
 479 469 498 336 466 230 c 0
 429 113 333 -8 200 -9 c 0
 66 -10 19 118 54 231 c 0
199 229 m 0
 181 180 189 118 252 116 c 0
 316 114 372 176 392 231 c 0
 409 277 408 341 346 344 c 0
 281 347 220 285 199 229 c 0
EndSplineSet
EndChar

StartChar: a.alt
Encoding: 65536 -1 310
Width: 579
VWidth: 0
Flags: HMW
LayerCount: 2
Fore
SplineSet
485 460 m 1
 633 460 l 1
 474 0 l 1
 328 0 l 1
 485 460 l 1
51 231 m 0
 87 350 200 471 332 470 c 0
 464 469 479 330 448 229 c 0
 413 115 318 -9 188 -9 c 0
 55 -9 17 123 51 231 c 0
205 229 m 0
 187 180 197 115 260 113 c 0
 324 111 384 176 405 231 c 0
 422 278 417 344 356 347 c 0
 291 350 226 285 205 229 c 0
EndSplineSet
EndChar

StartChar: Jcircumflex
Encoding: 308 308 312
Width: 310
VWidth: 0
Flags: HMW
LayerCount: 2
Fore
SplineSet
-152 -64 m 1
 -134 -81 -114 -98 -88 -97 c 0
 -44 -95 -10 -52 6 -15 c 1
 252 700 l 1
 430 700 l 1
 173 -55 l 2
 130 -171 21 -239 -102 -238 c 0
 -166 -238 -220 -214 -272 -179 c 1
 -152 -64 l 1
402 860 m 1
 288 777 l 1
 204 853 l 1
 430 988 l 1
 576 842 l 1
 459 775 l 1
 402 860 l 1
EndSplineSet
EndChar

StartChar: jcircumflex
Encoding: 309 309 313
Width: 255
VWidth: 0
Flags: HMW
LayerCount: 2
Fore
SplineSet
-119 -78 m 1
 -111 -89 -102 -103 -85 -104 c 0
 -50 -104 -24 -61 -12 -34 c 1
 158 460 l 1
 301 460 l 1
 120 -74 l 2
 86 -166 8 -240 -95 -238 c 0
 -142 -238 -175 -217 -208 -185 c 1
 -119 -78 l 1
289 614 m 1
 174 531 l 1
 91 607 l 1
 317 742 l 1
 463 597 l 1
 346 530 l 1
 289 614 l 1
EndSplineSet
EndChar

StartChar: Nacute
Encoding: 323 323 314
Width: 746
VWidth: 0
Flags: HMW
LayerCount: 2
Fore
SplineSet
707 700 m 1
 865 700 l 1
 615 -32 l 1
 307 396 l 1
 171 0 l 1
 12 0 l 1
 262 732 l 1
 570 304 l 1
 707 700 l 1
774 905 m 1
 559 763 l 1
 483 809 l 1
 674 962 l 1
 774 905 l 1
EndSplineSet
EndChar

StartChar: nacute
Encoding: 324 324 315
Width: 540
VWidth: 0
Flags: HMW
LayerCount: 2
Fore
SplineSet
305 460 m 1
 146 0 l 1
 -2 0 l 1
 157 460 l 1
 305 460 l 1
379 280 m 1
 388 312 396 357 351 363 c 0
 302 369 264 316 242 281 c 1
 213 276 l 1
 249 370 315 469 428 470 c 0
 535 471 558 386 533 296 c 1
 433 0 l 1
 280 0 l 1
 379 280 l 1
605 674 m 1
 391 532 l 1
 315 579 l 1
 505 732 l 1
 605 674 l 1
EndSplineSet
EndChar

StartChar: uni0145
Encoding: 325 325 316
Width: 746
VWidth: 0
Flags: HMW
LayerCount: 2
Fore
SplineSet
264 -56 m 1
 406 -90 l 1
 204 -334 l 1
 94 -310 l 1
 264 -56 l 1
707 700 m 1
 865 700 l 1
 615 -32 l 1
 307 396 l 1
 171 0 l 1
 12 0 l 1
 262 732 l 1
 570 304 l 1
 707 700 l 1
EndSplineSet
EndChar

StartChar: uni0146
Encoding: 326 326 317
Width: 540
VWidth: 0
Flags: HMW
LayerCount: 2
Fore
SplineSet
305 460 m 1
 146 0 l 1
 -2 0 l 1
 157 460 l 1
 305 460 l 1
379 280 m 1
 388 312 396 357 351 363 c 0
 302 369 264 316 242 281 c 1
 210 276 l 1
 247 371 315 469 428 470 c 0
 535 471 558 386 533 296 c 1
 433 0 l 1
 280 0 l 1
 379 280 l 1
160 -62 m 1
 303 -96 l 1
 100 -340 l 1
 -10 -316 l 1
 160 -62 l 1
EndSplineSet
EndChar

StartChar: Ncaron
Encoding: 327 327 318
Width: 746
VWidth: 0
Flags: HMW
LayerCount: 2
Fore
SplineSet
600 904 m 1
 714 987 l 1
 797 911 l 1
 571 776 l 1
 425 921 l 1
 543 988 l 1
 600 904 l 1
707 700 m 1
 865 700 l 1
 615 -32 l 1
 307 396 l 1
 171 0 l 1
 12 0 l 1
 262 732 l 1
 570 304 l 1
 707 700 l 1
EndSplineSet
EndChar

StartChar: ncaron
Encoding: 328 328 319
Width: 540
VWidth: 0
Flags: HMW
LayerCount: 2
Fore
SplineSet
305 460 m 1
 146 0 l 1
 -2 0 l 1
 157 460 l 1
 305 460 l 1
379 280 m 1
 388 312 396 357 351 363 c 0
 302 369 264 316 242 281 c 1
 210 276 l 1
 247 371 315 469 428 470 c 0
 535 471 558 386 533 296 c 1
 433 0 l 1
 280 0 l 1
 379 280 l 1
433 658 m 1
 548 742 l 1
 631 665 l 1
 404 531 l 1
 258 676 l 1
 376 743 l 1
 433 658 l 1
EndSplineSet
EndChar

StartChar: Omacron
Encoding: 332 332 320
Width: 772
VWidth: 0
Flags: HMW
LayerCount: 2
Fore
SplineSet
268 350 m 0
 234 258 252 143 370 140 c 0
 491 137 596 244 636 350 c 0
 671 443 652 558 533 560 c 0
 412 562 307 456 268 350 c 0
94 350 m 0
 157 549 353 716 566 716 c 0
 772 716 867 535 809 350 c 0
 746 150 550 -23 334 -22 c 0
 126 -21 36 165 94 350 c 0
420 777 m 1
 465 908 l 1
 820 908 l 1
 774 776 l 1
 420 777 l 1
EndSplineSet
EndChar

StartChar: omacron
Encoding: 333 333 321
Width: 554
VWidth: 0
Flags: HMW
LayerCount: 2
Fore
SplineSet
51 231 m 0
 92 367 231 470 374 470 c 0
 510 470 592 359 552 229 c 0
 511 93 371 -10 229 -10 c 0
 93 -10 11 101 51 231 c 0
202 229 m 0
 184 181 193 118 255 116 c 0
 319 114 381 175 402 231 c 0
 420 279 411 343 349 345 c 0
 285 347 223 285 202 229 c 0
228 531 m 1
 273 662 l 1
 628 662 l 1
 582 531 l 1
 228 531 l 1
EndSplineSet
EndChar

StartChar: Obreve
Encoding: 334 334 322
Width: 772
VWidth: 0
Flags: HMW
LayerCount: 2
Fore
SplineSet
268 350 m 0
 234 258 252 143 370 140 c 0
 491 137 596 244 636 350 c 0
 671 443 652 558 533 560 c 0
 412 562 307 456 268 350 c 0
94 350 m 0
 157 549 353 716 566 716 c 0
 772 716 867 535 809 350 c 0
 746 150 550 -23 334 -22 c 0
 126 -21 36 165 94 350 c 0
489 922 m 1
 581 922 l 1
 581 894 584 867 618 864 c 0
 655 861 682 896 702 922 c 1
 802 920 l 1
 766 839 699 778 606 777 c 0
 514 776 478 838 489 922 c 1
EndSplineSet
EndChar

StartChar: obreve
Encoding: 335 335 323
Width: 554
VWidth: 0
Flags: HMW
LayerCount: 2
Fore
SplineSet
51 231 m 0
 92 367 231 470 374 470 c 0
 510 470 592 359 552 229 c 0
 511 93 371 -10 229 -10 c 0
 93 -10 11 101 51 231 c 0
202 229 m 0
 184 181 193 118 255 116 c 0
 319 114 381 175 402 231 c 0
 420 279 411 343 349 345 c 0
 285 347 223 285 202 229 c 0
296 677 m 1
 389 676 l 1
 389 648 390 621 424 618 c 0
 461 615 489 650 509 676 c 1
 609 674 l 1
 573 593 506 533 413 532 c 0
 321 531 285 593 296 677 c 1
EndSplineSet
EndChar

StartChar: Racute
Encoding: 340 340 324
Width: 608
VWidth: 0
Flags: HMW
LayerCount: 2
Fore
SplineSet
290 317 m 1
 451 317 l 1
 548 0 l 1
 367 0 l 1
 290 317 l 1
251 700 m 1
 417 700 l 1
 176 0 l 1
 13 0 l 1
 251 700 l 1
304 557 m 1
 352 700 l 1
 485 700 l 0
 619 696 718 612 676 471 c 0
 633 327 492 246 348 242 c 0
 194 242 l 1
 241 374 l 1
 362 374 l 1
 420 378 483 408 504 466 c 0
 523 519 494 551 442 555 c 1
 304 557 l 1
706 920 m 1
 491 778 l 1
 414 824 l 1
 605 977 l 1
 706 920 l 1
EndSplineSet
EndChar

StartChar: uni0156
Encoding: 342 342 325
Width: 608
VWidth: 0
Flags: HMW
LayerCount: 2
Fore
SplineSet
290 317 m 1
 451 317 l 1
 548 0 l 1
 367 0 l 1
 290 317 l 1
251 700 m 1
 417 700 l 1
 176 0 l 1
 13 0 l 1
 251 700 l 1
304 557 m 1
 352 700 l 1
 485 700 l 0
 619 696 718 612 676 471 c 0
 633 327 492 246 348 242 c 0
 194 242 l 1
 241 374 l 1
 362 374 l 1
 420 378 483 408 504 466 c 0
 523 519 494 551 442 555 c 1
 304 557 l 1
227 -62 m 1
 370 -96 l 1
 168 -340 l 1
 57 -316 l 1
 227 -62 l 1
EndSplineSet
EndChar

StartChar: uni0157
Encoding: 343 343 326
Width: 387
VWidth: 0
Flags: HMW
LayerCount: 2
Fore
SplineSet
302 460 m 1
 143 0 l 1
 -2 0 l 1
 157 460 l 1
 302 460 l 1
378 304 m 1
 365 316 352 328 332 329 c 0
 276 331 244 269 222 228 c 1
 201 282 l 1
 235 362 303 474 404 471 c 0
 437 470 457 452 478 429 c 1
 378 304 l 1
16 -62 m 1
 158 -96 l 1
 -45 -340 l 1
 -154 -316 l 1
 16 -62 l 1
EndSplineSet
EndChar

StartChar: Scedilla
Encoding: 350 350 327
Width: 588
VWidth: 0
Flags: HMW
LayerCount: 2
Fore
SplineSet
169 251 m 1
 185 191 210 126 284 126 c 0
 328 126 378 151 395 194 c 0
 419 254 346 282 304 302 c 0
 216 344 160 418 190 518 c 0
 227 641 358 716 483 716 c 0
 587 716 659 661 683 560 c 1
 543 490 l 1
 527 533 507 572 455 572 c 0
 418 572 370 548 355 512 c 0
 332 456 428 430 464 413 c 0
 553 372 596 291 567 195 c 0
 526 58 387 -23 248 -22 c 0
 129 -21 52 57 32 170 c 1
 169 251 l 1
234 60 m 1
 350 56 l 1
 218 -66 l 1
 228 -64 238 -61 248 -62 c 0
 299 -67 324 -113 310 -161 c 0
 292 -225 219 -265 156 -267 c 0
 106 -269 65 -250 24 -225 c 1
 85 -162 l 1
 105 -174 126 -187 151 -186 c 0
 170 -185 216 -170 220 -147 c 0
 224 -126 194 -119 180 -118 c 0
 151 -116 120 -125 92 -131 c 1
 234 60 l 1
EndSplineSet
EndChar

StartChar: scedilla
Encoding: 351 351 328
Width: 429
VWidth: 0
Flags: HMW
LayerCount: 2
Fore
SplineSet
75 174 m 1
 103 138 141 90 194 94 c 0
 215 94 247 109 254 131 c 0
 266 169 217 183 191 195 c 0
 130 223 88 270 109 340 c 0
 135 425 226 468 309 469 c 0
 378 470 434 441 482 400 c 1
 402 305 l 1
 377 335 348 366 305 365 c 0
 285 365 250 355 242 334 c 0
 227 296 296 282 319 271 c 0
 378 245 417 196 399 129 c 0
 374 35 285 -17 192 -18 c 0
 106 -19 41 23 -12 78 c 1
 75 174 l 1
173 62 m 1
 289 59 l 1
 158 -62 l 1
 167 -60 177 -58 186 -59 c 0
 238 -64 263 -109 250 -157 c 0
 232 -222 158 -261 95 -263 c 0
 46 -265 4 -247 -37 -222 c 1
 23 -158 l 1
 43 -170 64 -183 89 -182 c 0
 108 -181 155 -167 159 -144 c 0
 163 -123 132 -115 118 -114 c 0
 89 -112 59 -122 31 -128 c 1
 173 62 l 1
EndSplineSet
EndChar

StartChar: Zcaron
Encoding: 381 381 329
Width: 582
VWidth: 0
Flags: HMW
LayerCount: 2
Fore
SplineSet
183 548 m 1
 236 700 l 1
 762 699 l 1
 262 147 l 1
 536 146 l 1
 484 0 l 1
 -54 0 l 1
 442 547 l 1
 183 548 l 1
558 904 m 1
 673 987 l 1
 756 911 l 1
 530 776 l 1
 384 921 l 1
 502 988 l 1
 558 904 l 1
EndSplineSet
EndChar

StartChar: zcaron
Encoding: 382 382 330
Width: 485
VWidth: 0
Flags: HMW
LayerCount: 2
Fore
SplineSet
428 658 m 1
 543 741 l 1
 626 664 l 1
 400 530 l 1
 254 675 l 1
 372 742 l 1
 428 658 l 1
291 322 m 1
 106 323 l 1
 155 460 l 1
 588 459 l 1
 260 138 l 1
 443 138 l 1
 395 0 l 1
 -48 0 l 1
 291 322 l 1
EndSplineSet
EndChar

StartChar: Ydieresis
Encoding: 376 376 331
Width: 620
VWidth: 0
Flags: HMW
LayerCount: 2
Fore
SplineSet
336 871 m 0
 348 913 399 951 442 950 c 0
 486 949 518 910 506 866 c 0
 494 824 442 787 399 788 c 0
 354 789 324 827 336 871 c 0
600 871 m 0
 612 913 664 951 707 950 c 0
 751 949 782 910 770 866 c 0
 758 824 706 787 663 788 c 0
 618 789 588 827 600 871 c 0
618 699 m 1
 815 699 l 1
 436 277 l 1
 340 0 l 1
 172 0 l 1
 274 293 l 1
 186 700 l 1
 366 700 l 1
 402 443 l 1
 618 699 l 1
EndSplineSet
EndChar

StartChar: Scaron
Encoding: 352 352 332
Width: 588
VWidth: 0
Flags: HMW
LayerCount: 2
Fore
SplineSet
169 251 m 1
 185 191 210 126 284 126 c 0
 328 126 378 151 395 194 c 0
 419 254 346 281 304 302 c 0
 217 344 161 421 191 520 c 0
 228 643 360 716 483 716 c 0
 587 716 661 661 683 560 c 1
 543 490 l 1
 528 532 510 571 458 572 c 0
 420 572 370 549 355 512 c 0
 331 456 428 430 464 413 c 0
 553 372 596 291 567 195 c 0
 526 57 387 -23 248 -22 c 0
 129 -21 52 57 32 170 c 1
 169 251 l 1
549 904 m 1
 664 987 l 1
 747 911 l 1
 520 776 l 1
 375 921 l 1
 492 988 l 1
 549 904 l 1
EndSplineSet
EndChar

StartChar: scaron
Encoding: 353 353 333
Width: 429
VWidth: 0
Flags: HMW
LayerCount: 2
Fore
SplineSet
76 173 m 1
 103 135 139 97 193 98 c 0
 213 98 246 108 253 130 c 0
 264 164 190 184 167 196 c 0
 113 224 79 276 97 338 c 0
 123 426 224 468 309 469 c 0
 378 469 436 441 482 399 c 1
 403 305 l 1
 374 335 341 359 297 359 c 0
 278 359 241 350 235 329 c 0
 225 295 299 279 319 269 c 0
 377 243 417 195 399 129 c 0
 374 35 282 -18 188 -18 c 0
 102 -19 36 20 -12 77 c 1
 76 173 l 1
370 646 m 1
 485 729 l 1
 569 653 l 1
 342 518 l 1
 196 663 l 1
 314 730 l 1
 370 646 l 1
EndSplineSet
EndChar

StartChar: Lslash
Encoding: 321 321 334
Width: 502
VWidth: 0
Flags: HMW
LayerCount: 2
Fore
SplineSet
61 309 m 1
 46 389 l 1
 468 629 l 1
 484 551 l 1
 61 309 l 1
252 700 m 1
 417 700 l 1
 227 146 l 1
 492 146 l 1
 441 0 l 1
 12 0 l 1
 252 700 l 1
EndSplineSet
EndChar

StartChar: lslash
Encoding: 322 322 335
Width: 254
VWidth: 0
Flags: HMW
LayerCount: 2
Fore
SplineSet
50 309 m 1
 34 389 l 1
 418 603 l 1
 433 525 l 1
 50 309 l 1
265 780 m 1
 415 780 l 1
 146 0 l 1
 -0 0 l 1
 265 780 l 1
EndSplineSet
EndChar

StartChar: uni0218
Encoding: 536 536 336
Width: 588
VWidth: 0
Flags: HMW
LayerCount: 2
Fore
SplineSet
169 251 m 1
 185 191 210 126 284 126 c 0
 328 126 378 151 395 194 c 0
 419 254 346 281 304 302 c 0
 217 344 161 421 191 520 c 0
 228 643 360 716 483 716 c 0
 587 716 661 661 683 560 c 1
 543 490 l 1
 528 532 510 571 458 572 c 0
 420 572 370 549 355 512 c 0
 331 456 428 430 464 413 c 0
 553 372 596 291 567 195 c 0
 526 57 387 -23 248 -22 c 0
 129 -21 52 57 32 170 c 1
 169 251 l 1
162 -72 m 1
 306 -106 l 1
 102 -350 l 1
 -8 -326 l 1
 162 -72 l 1
EndSplineSet
EndChar

StartChar: uni0219
Encoding: 537 537 337
Width: 429
VWidth: 0
Flags: HMW
LayerCount: 2
Fore
SplineSet
76 173 m 1
 103 135 138 97 192 98 c 0
 212 98 246 108 253 130 c 0
 264 164 190 184 167 196 c 0
 113 224 79 276 97 338 c 0
 123 426 224 468 309 469 c 0
 378 469 436 441 482 399 c 1
 403 305 l 1
 374 335 341 359 297 359 c 0
 278 359 241 350 235 329 c 0
 225 295 299 279 319 269 c 0
 377 243 417 195 399 129 c 0
 374 35 282 -18 188 -18 c 0
 102 -19 36 20 -12 77 c 1
 76 173 l 1
104 -69 m 1
 246 -103 l 1
 44 -347 l 1
 -66 -323 l 1
 104 -69 l 1
EndSplineSet
EndChar

StartChar: pi
Encoding: 960 960 338
Width: 566
VWidth: 0
Flags: HMW
LayerCount: 2
Fore
SplineSet
175 430 m 1
 315 430 l 1
 166 0 l 1
 28 0 l 1
 175 430 l 1
129 460 m 1
 636 460 l 1
 592 335 l 1
 85 335 l 1
 129 460 l 1
411 430 m 1
 550 430 l 1
 461 178 l 1
 449 138 450 123 488 108 c 1
 451 -8 l 1
 361 -5 277 10 306 121 c 1
 411 430 l 1
EndSplineSet
EndChar

StartChar: trademark
Encoding: 8482 8482 339
Width: 701
VWidth: 0
Flags: HMW
LayerCount: 2
Fore
SplineSet
184 624 m 1
 210 700 l 1
 476 700 l 1
 450 624 l 1
 360 624 l 1
 265 350 l 1
 180 350 l 1
 274 624 l 1
 184 624 l 1
714 600 m 1
 821 730 l 1
 743 350 l 1
 657 350 l 1
 714 600 l 1
532 718 m 1
 550 583 l 1
 442 351 l 1
 351 351 l 1
 532 718 l 1
826 731 m 1
 776 595 l 1
 564 379 l 1
 494 612 l 1
 532 716 l 1
 596 508 l 1
 826 731 l 1
EndSplineSet
EndChar

StartChar: uni2219
Encoding: 8729 8729 340
Width: 303
VWidth: 0
Flags: HMW
LayerCount: 2
Fore
SplineSet
158 445 m 0
 171 491 225 536 274 535 c 0
 324 534 353 488 340 441 c 0
 327 395 273 351 224 352 c 0
 174 353 145 398 158 445 c 0
EndSplineSet
EndChar

StartChar: agrave.alt
Encoding: 65537 -1 341
Width: 579
VWidth: 0
Flags: HMW
LayerCount: 2
Fore
SplineSet
485 460 m 1
 633 460 l 1
 474 0 l 1
 328 0 l 1
 485 460 l 1
51 231 m 0
 87 350 200 471 332 470 c 0
 464 469 479 330 448 229 c 0
 413 115 318 -9 188 -9 c 0
 55 -9 17 123 51 231 c 0
205 229 m 0
 187 180 197 115 260 113 c 0
 324 111 384 176 405 231 c 0
 422 278 417 344 356 347 c 0
 291 350 226 285 205 229 c 0
303 685 m 1
 423 734 l 1
 514 568 l 1
 428 531 l 1
 303 685 l 1
EndSplineSet
EndChar

StartChar: aacute.alt
Encoding: 65538 -1 342
Width: 579
VWidth: 0
Flags: HMW
LayerCount: 2
Fore
SplineSet
485 460 m 1
 633 460 l 1
 474 0 l 1
 328 0 l 1
 485 460 l 1
51 231 m 0
 87 350 200 471 332 470 c 0
 464 469 479 330 448 229 c 0
 413 115 318 -9 188 -9 c 0
 55 -9 17 123 51 231 c 0
205 229 m 0
 187 180 197 115 260 113 c 0
 324 111 384 176 405 231 c 0
 422 278 417 344 356 347 c 0
 291 350 226 285 205 229 c 0
603 674 m 1
 388 532 l 1
 312 579 l 1
 503 732 l 1
 603 674 l 1
EndSplineSet
EndChar

StartChar: acircumflex.alt
Encoding: 65539 -1 343
Width: 579
VWidth: 0
Flags: HMW
LayerCount: 2
Fore
SplineSet
485 460 m 1
 633 460 l 1
 474 0 l 1
 328 0 l 1
 485 460 l 1
51 231 m 0
 87 350 200 471 332 470 c 0
 464 469 479 330 448 229 c 0
 413 115 318 -9 188 -9 c 0
 55 -9 17 123 51 231 c 0
205 229 m 0
 187 180 197 115 260 113 c 0
 324 111 384 176 405 231 c 0
 422 278 417 344 356 347 c 0
 291 350 226 285 205 229 c 0
459 614 m 1
 344 531 l 1
 260 607 l 1
 487 742 l 1
 633 597 l 1
 515 530 l 1
 459 614 l 1
EndSplineSet
EndChar

StartChar: atilde.alt
Encoding: 65540 -1 344
Width: 579
VWidth: 0
Flags: HMW
LayerCount: 2
Fore
SplineSet
485 460 m 1
 633 460 l 1
 474 0 l 1
 328 0 l 1
 485 460 l 1
51 231 m 0
 87 350 200 471 332 470 c 0
 464 469 479 330 448 229 c 0
 413 115 318 -9 188 -9 c 0
 55 -9 17 123 51 231 c 0
205 229 m 0
 187 180 197 115 260 113 c 0
 324 111 384 176 405 231 c 0
 422 278 417 344 356 347 c 0
 291 350 226 285 205 229 c 0
265 599 m 1
 295 647 341 691 402 690 c 0
 445 689 469 637 513 640 c 0
 545 642 572 672 595 692 c 1
 645 614 l 1
 609 576 554 528 497 533 c 0
 455 537 427 590 384 584 c 0
 355 580 336 556 319 535 c 1
 265 599 l 1
EndSplineSet
EndChar

StartChar: adieresis.alt
Encoding: 65541 -1 345
Width: 579
VWidth: 0
Flags: HMW
LayerCount: 2
Fore
SplineSet
485 460 m 1
 633 460 l 1
 474 0 l 1
 328 0 l 1
 485 460 l 1
51 231 m 0
 87 350 200 471 332 470 c 0
 464 469 479 330 448 229 c 0
 413 115 318 -9 188 -9 c 0
 55 -9 17 123 51 231 c 0
205 229 m 0
 187 180 197 115 260 113 c 0
 324 111 384 176 405 231 c 0
 422 278 417 344 356 347 c 0
 291 350 226 285 205 229 c 0
474 615 m 0
 486 657 538 694 581 693 c 0
 625 692 656 654 644 610 c 0
 632 568 581 531 538 532 c 0
 494 533 462 571 474 615 c 0
245 615 m 0
 257 657 309 694 352 693 c 0
 396 692 426 654 414 610 c 0
 402 568 351 531 308 532 c 0
 264 533 233 571 245 615 c 0
EndSplineSet
EndChar

StartChar: aring.alt
Encoding: 65542 -1 346
Width: 579
VWidth: 0
Flags: HMW
LayerCount: 2
Fore
SplineSet
485 460 m 1
 633 460 l 1
 474 0 l 1
 328 0 l 1
 485 460 l 1
51 231 m 0
 87 350 200 471 332 470 c 0
 464 469 479 330 448 229 c 0
 413 115 318 -9 188 -9 c 0
 55 -9 17 123 51 231 c 0
205 229 m 0
 187 180 197 115 260 113 c 0
 324 111 384 176 405 231 c 0
 422 278 417 344 356 347 c 0
 291 350 226 285 205 229 c 0
316 648 m 0
 334 710 402 760 467 760 c 0
 532 760 574 707 556 644 c 0
 538 582 469 531 404 531 c 0
 339 531 298 586 316 648 c 0
392 644 m 0
 387 627 393 601 414 600 c 0
 437 599 473 628 480 648 c 0
 485 665 478 691 457 692 c 0
 434 693 399 664 392 644 c 0
EndSplineSet
EndChar

StartChar: amacron.alt
Encoding: 65543 -1 347
Width: 579
VWidth: 0
Flags: HMW
LayerCount: 2
Fore
SplineSet
485 460 m 1
 633 460 l 1
 474 0 l 1
 328 0 l 1
 485 460 l 1
51 231 m 0
 87 350 200 471 332 470 c 0
 464 469 479 330 448 229 c 0
 413 115 318 -9 188 -9 c 0
 55 -9 17 123 51 231 c 0
205 229 m 0
 187 180 197 115 260 113 c 0
 324 111 384 176 405 231 c 0
 422 278 417 344 356 347 c 0
 291 350 226 285 205 229 c 0
242 538 m 1
 287 669 l 1
 643 669 l 1
 597 538 l 1
 242 538 l 1
EndSplineSet
EndChar

StartChar: abreve.alt
Encoding: 65544 -1 348
Width: 579
VWidth: 0
Flags: HMW
LayerCount: 2
Fore
SplineSet
485 460 m 1
 633 460 l 1
 474 0 l 1
 328 0 l 1
 485 460 l 1
51 231 m 0
 87 350 200 471 332 470 c 0
 464 469 479 330 448 229 c 0
 413 115 318 -9 188 -9 c 0
 55 -9 17 123 51 231 c 0
205 229 m 0
 187 180 197 115 260 113 c 0
 324 111 384 176 405 231 c 0
 422 278 417 344 356 347 c 0
 291 350 226 285 205 229 c 0
286 676 m 1
 379 676 l 1
 379 648 382 621 416 618 c 0
 453 615 480 650 499 676 c 1
 599 674 l 1
 564 593 498 532 405 531 c 0
 313 530 276 592 286 676 c 1
EndSplineSet
EndChar

StartChar: aogonek.alt
Encoding: 65545 -1 349
Width: 579
VWidth: 0
Flags: HMW
LayerCount: 2
Fore
SplineSet
485 460 m 1
 633 460 l 1
 474 0 l 1
 328 0 l 1
 485 460 l 1
51 231 m 0
 87 350 200 471 332 470 c 0
 464 469 479 330 448 229 c 0
 413 115 318 -9 188 -9 c 0
 55 -9 17 123 51 231 c 0
205 229 m 0
 187 180 197 115 260 113 c 0
 324 111 384 176 405 231 c 0
 422 278 417 344 356 347 c 0
 291 350 226 285 205 229 c 0
407 -111 m 1
 418 -183 l 1
 386 -204 354 -220 316 -220 c 0
 258 -220 215 -178 231 -118 c 0
 252 -42 342 -5 406 25 c 1
 444 0 l 1
 408 -24 350 -48 336 -94 c 0
 332 -109 333 -127 351 -130 c 0
 368 -133 392 -118 407 -111 c 1
EndSplineSet
EndChar

StartChar: dagger
Encoding: 8224 8224 350
Width: 594
VWidth: 0
Flags: HMW
LayerCount: 2
Fore
SplineSet
215 540 m 1
 646 540 l 1
 605 415 l 1
 175 415 l 1
 215 540 l 1
409 700 m 1
 549 700 l 1
 286 -150 l 1
 148 -150 l 1
 409 700 l 1
EndSplineSet
EndChar

StartChar: daggerdbl
Encoding: 8225 8225 351
Width: 594
VWidth: 0
Flags: HMW
LayerCount: 2
Fore
SplineSet
97 158 m 1
 528 158 l 1
 488 32 l 1
 57 32 l 1
 97 158 l 1
215 540 m 1
 646 540 l 1
 605 415 l 1
 175 415 l 1
 215 540 l 1
409 700 m 1
 549 700 l 1
 286 -150 l 1
 148 -150 l 1
 409 700 l 1
EndSplineSet
EndChar

StartChar: ellipsis
Encoding: 8230 8230 352
Width: 869
VWidth: 0
Flags: HMW
LayerCount: 2
Fore
SplineSet
30 70 m 0
 43 116 97 161 146 160 c 0
 196 159 225 113 212 66 c 0
 199 20 145 -24 96 -23 c 0
 46 -22 17 23 30 70 c 0
312 70 m 0
 325 116 379 161 428 160 c 0
 478 159 507 113 494 66 c 0
 481 20 427 -24 378 -23 c 0
 328 -22 299 23 312 70 c 0
594 70 m 0
 607 116 661 161 710 160 c 0
 760 159 789 113 776 66 c 0
 763 20 709 -24 660 -23 c 0
 610 -22 581 23 594 70 c 0
EndSplineSet
EndChar

StartChar: uniFF10
Encoding: 65296 65296 353
Width: 591
VWidth: 0
Flags: HMW
LayerCount: 2
Fore
SplineSet
242 350 m 0
 222 293 176 138 278 134 c 0
 382 130 450 269 480 350 c 0
 500 407 546 562 444 566 c 0
 340 570 272 431 242 350 c 0
84 350 m 0
 139 520 277 713 475 713 c 0
 677 713 685 498 638 350 c 0
 583 178 446 -14 247 -13 c 0
 47 -12 37 203 84 350 c 0
EndSplineSet
EndChar

StartChar: uniFF11
Encoding: 65297 65297 354
Width: 591
VWidth: 0
Flags: HMW
LayerCount: 2
Fore
SplineSet
213 495 m 1
 267 647 l 1
 612 715 l 1
 367 0 l 1
 208 0 l 1
 392 537 l 1
 213 495 l 1
EndSplineSet
EndChar

StartChar: uniFF12
Encoding: 65298 65298 355
Width: 591
VWidth: 0
Flags: HMW
LayerCount: 2
Fore
SplineSet
-49 0 m 1
 354 323 l 2
 406 365 478 414 500 481 c 0
 514 523 500 565 451 568 c 0
 379 572 330 498 302 442 c 1
 141 443 l 1
 195 590 322 715 488 714 c 0
 615 714 707 615 669 487 c 0
 645 408 582 348 517 301 c 2
 314 156 l 1
 573 154 l 1
 520 0 l 1
 -49 0 l 1
EndSplineSet
EndChar

StartChar: uniFF13
Encoding: 65299 65299 356
Width: 591
VWidth: 0
Flags: HMW
LayerCount: 2
Fore
SplineSet
319 340 m 1
 342 414 l 1
 398 423 481 445 499 509 c 0
 509 544 495 575 456 577 c 0
 403 580 365 535 339 495 c 1
 186 497 l 1
 235 621 347 713 484 713 c 0
 595 713 699 639 662 518 c 0
 619 374 448 345 319 340 c 1
247 -16 m 0
 105 -15 35 88 60 222 c 1
 218 222 l 1
 211 170 219 124 281 121 c 0
 336 119 394 157 413 209 c 0
 441 284 363 300 306 306 c 1
 331 391 l 1
 451 386 615 346 569 190 c 0
 529 56 380 -17 247 -16 c 0
EndSplineSet
EndChar

StartChar: uniFF14
Encoding: 65300 65300 357
Width: 591
VWidth: 0
Flags: HMW
LayerCount: 2
Fore
SplineSet
-10 125 m 1
 163 245 l 1
 423 247 l 1
 447 268 l 1
 615 268 l 1
 565 124 l 1
 -10 125 l 1
172 174 m 1
 -16 118 l 1
 543 699 l 1
 670 700 l 1
 430 0 l 1
 259 0 l 1
 314 160 l 1
 335 171 l 1
 429 438 l 1
 172 174 l 1
EndSplineSet
EndChar

StartChar: uniFF15
Encoding: 65301 65301 358
Width: 591
VWidth: 0
Flags: HMW
LayerCount: 2
Fore
SplineSet
581 223 m 0
 537 79 387 -12 241 -13 c 0
 143 -14 64 23 -2 80 c 1
 100 216 l 1
 136 175 179 143 240 142 c 0
 306 141 388 175 410 243 c 0
 430 304 381 337 325 339 c 0
 253 342 184 321 117 299 c 1
 247 380 l 1
 307 420 372 454 446 452 c 0
 571 449 614 330 581 223 c 0
419 552 m 1
 302 377 l 1
 104 288 l 1
 342 699 l 1
 730 700 l 1
 680 554 l 1
 419 552 l 1
EndSplineSet
EndChar

StartChar: uniFF16
Encoding: 65302 65302 359
Width: 591
VWidth: 0
Flags: HMW
LayerCount: 2
Fore
SplineSet
216 245 m 0
 196 191 213 131 277 129 c 0
 344 127 413 186 435 246 c 0
 455 299 439 362 374 364 c 0
 306 366 238 305 216 245 c 0
470 696 m 1
 689 696 l 1
 387 446 l 1
 343 434 l 1
 379 456 415 472 458 472 c 0
 581 471 627 350 596 245 c 0
 552 94 402 -16 246 -16 c 0
 95 -16 11 103 55 246 c 0
 79 323 135 387 193 441 c 2
 470 696 l 1
EndSplineSet
EndChar

StartChar: uniFF17
Encoding: 65303 65303 360
Width: 591
VWidth: 0
Flags: HMW
LayerCount: 2
Fore
SplineSet
164 542 m 1
 219 700 l 1
 766 699 l 1
 207 0 l 1
 22 0 l 1
 465 541 l 1
 164 542 l 1
EndSplineSet
EndChar

StartChar: uniFF18
Encoding: 65304 65304 361
Width: 591
VWidth: 0
Flags: HMW
LayerCount: 2
Fore
SplineSet
210 532 m 0
 245 648 373 716 489 716 c 0
 595 716 694 646 660 530 c 0
 626 413 497 343 381 343 c 0
 273 343 176 416 210 532 c 0
357 514 m 0
 345 480 355 439 396 436 c 0
 439 432 489 478 503 516 c 0
 515 550 505 590 464 593 c 0
 421 596 371 553 357 514 c 0
70 191 m 0
 108 320 250 396 379 396 c 0
 496 396 606 317 568 189 c 0
 530 61 385 -16 258 -16 c 0
 142 -16 33 65 70 191 c 0
240 214 m 0
 224 172 239 125 289 122 c 0
 341 119 398 169 415 217 c 0
 429 257 414 303 366 306 c 0
 315 309 258 259 240 214 c 0
EndSplineSet
EndChar

StartChar: uniFF19
Encoding: 65305 65305 362
Width: 591
VWidth: 0
Flags: HMW
LayerCount: 2
Fore
SplineSet
507 455 m 0
 527 509 509 569 445 571 c 0
 378 573 309 514 287 454 c 0
 267 401 283 338 348 336 c 0
 416 334 485 395 507 455 c 0
252 4 m 1
 34 4 l 1
 335 254 l 1
 380 266 l 1
 344 244 307 228 264 228 c 0
 141 229 95 350 126 455 c 0
 170 606 320 716 476 716 c 0
 627 716 712 597 668 454 c 0
 644 377 587 313 529 259 c 2
 252 4 l 1
EndSplineSet
EndChar

StartChar: caron
Encoding: 711 711 363
Width: 451
VWidth: 0
Flags: HMW
LayerCount: 2
Fore
SplineSet
396 678 m 1
 510 762 l 1
 594 685 l 1
 367 551 l 1
 221 696 l 1
 339 763 l 1
 396 678 l 1
EndSplineSet
EndChar

StartChar: napostrophe
Encoding: 329 329 364
Width: 702
VWidth: 0
Flags: HMW
LayerCount: 2
Fore
SplineSet
468 460 m 1
 309 0 l 1
 160 0 l 1
 319 460 l 1
 468 460 l 1
540 280 m 1
 549 312 559 357 514 363 c 0
 465 369 427 316 405 281 c 1
 372 276 l 1
 409 371 477 469 590 470 c 0
 697 471 721 386 696 296 c 1
 594 0 l 1
 442 0 l 1
 540 280 l 1
285 700 m 1
 445 699 l 1
 258 446 l 1
 147 446 l 1
 285 700 l 1
EndSplineSet
EndChar

StartChar: IJ
Encoding: 306 306 365
Width: 587
VWidth: 0
Flags: HMW
LayerCount: 2
Fore
SplineSet
124 -64 m 1
 142 -81 162 -98 188 -97 c 0
 232 -95 266 -52 282 -15 c 1
 529 700 l 1
 706 700 l 1
 450 -55 l 2
 407 -171 297 -239 174 -238 c 0
 110 -238 56 -214 4 -179 c 1
 124 -64 l 1
251 700 m 1
 420 700 l 1
 179 0 l 1
 13 0 l 1
 251 700 l 1
EndSplineSet
EndChar

StartChar: ij
Encoding: 307 307 366
Width: 512
VWidth: 0
Flags: HMW
LayerCount: 2
Fore
SplineSet
460 635 m 0
 472 677 523 714 566 713 c 0
 610 712 641 674 629 630 c 0
 617 588 566 551 523 552 c 0
 479 553 448 591 460 635 c 0
137 -78 m 1
 145 -77 161 -103 172 -104 c 0
 206 -108 233 -59 244 -34 c 1
 415 460 l 1
 557 460 l 1
 376 -74 l 2
 342 -166 264 -240 161 -238 c 0
 114 -238 81 -217 48 -185 c 1
 137 -78 l 1
207 635 m 0
 219 677 270 714 313 713 c 0
 357 712 389 674 377 630 c 0
 365 588 313 551 270 552 c 0
 226 553 195 591 207 635 c 0
160 460 m 1
 305 460 l 1
 146 0 l 1
 4 0 l 1
 160 460 l 1
EndSplineSet
EndChar

StartChar: uni0237
Encoding: 567 567 367
Width: 255
VWidth: 0
Flags: HMW
LayerCount: 2
Fore
SplineSet
-119 -78 m 1
 -111 -89 -102 -103 -85 -104 c 0
 -50 -104 -24 -61 -12 -34 c 1
 158 460 l 1
 301 460 l 1
 120 -74 l 2
 86 -166 8 -240 -95 -238 c 0
 -142 -238 -175 -217 -208 -185 c 1
 -119 -78 l 1
EndSplineSet
EndChar

StartChar: Sacute
Encoding: 346 346 368
Width: 588
VWidth: 0
Flags: HMW
LayerCount: 2
Fore
SplineSet
169 251 m 1
 185 191 210 126 284 126 c 0
 328 126 378 151 395 194 c 0
 419 254 346 281 304 302 c 0
 217 344 161 421 191 520 c 0
 228 643 360 716 483 716 c 0
 587 716 661 661 683 560 c 1
 543 490 l 1
 528 532 510 571 458 572 c 0
 420 572 370 549 355 512 c 0
 331 456 428 430 464 413 c 0
 553 372 596 291 567 195 c 0
 526 57 387 -23 248 -22 c 0
 129 -21 52 57 32 170 c 1
 169 251 l 1
736 920 m 1
 521 778 l 1
 444 824 l 1
 635 977 l 1
 736 920 l 1
EndSplineSet
EndChar

StartChar: sacute
Encoding: 347 347 369
Width: 429
VWidth: 0
Flags: HMW
LayerCount: 2
Fore
SplineSet
76 173 m 1
 103 135 138 97 192 98 c 0
 212 98 246 108 253 130 c 0
 264 164 190 184 167 196 c 0
 113 224 79 276 97 338 c 0
 123 426 224 468 309 469 c 0
 378 469 436 441 482 399 c 1
 403 305 l 1
 374 335 341 359 297 359 c 0
 278 359 241 350 235 329 c 0
 225 295 299 279 319 269 c 0
 377 243 417 195 399 129 c 0
 374 35 282 -18 188 -18 c 0
 102 -19 36 20 -12 77 c 1
 76 173 l 1
561 674 m 1
 346 532 l 1
 270 579 l 1
 460 732 l 1
 561 674 l 1
EndSplineSet
EndChar

StartChar: Scircumflex
Encoding: 348 348 370
Width: 588
VWidth: 0
Flags: HMW
LayerCount: 2
Fore
SplineSet
169 251 m 1
 185 191 210 126 284 126 c 0
 328 126 378 151 395 194 c 0
 419 254 346 281 304 302 c 0
 217 344 161 421 191 520 c 0
 228 643 360 716 483 716 c 0
 587 716 661 661 683 560 c 1
 543 490 l 1
 528 532 510 571 458 572 c 0
 420 572 370 549 355 512 c 0
 331 456 428 430 464 413 c 0
 553 372 596 291 567 195 c 0
 526 57 387 -23 248 -22 c 0
 129 -21 52 57 32 170 c 1
 169 251 l 1
549 860 m 1
 434 777 l 1
 351 853 l 1
 577 988 l 1
 724 842 l 1
 606 775 l 1
 549 860 l 1
EndSplineSet
EndChar

StartChar: scircumflex
Encoding: 349 349 371
Width: 429
VWidth: 0
Flags: HMW
LayerCount: 2
Fore
SplineSet
76 173 m 1
 103 135 139 97 193 98 c 0
 213 98 246 108 253 130 c 0
 264 164 190 184 167 196 c 0
 113 224 79 276 97 338 c 0
 123 426 224 468 309 469 c 0
 378 469 436 441 482 399 c 1
 403 305 l 1
 374 335 341 359 297 359 c 0
 278 359 241 350 235 329 c 0
 225 295 299 279 319 269 c 0
 377 243 417 195 399 129 c 0
 374 35 282 -18 188 -18 c 0
 102 -19 36 20 -12 77 c 1
 76 173 l 1
386 614 m 1
 272 531 l 1
 188 607 l 1
 414 742 l 1
 560 597 l 1
 443 530 l 1
 386 614 l 1
EndSplineSet
EndChar

StartChar: uni1E9E
Encoding: 7838 7838 372
Width: 814
VWidth: 0
Flags: HMW
LayerCount: 2
Fore
SplineSet
553 -12 m 0
 673 -12 767 53 767 149 c 0
 767 276 692 274 692 346 c 0
 692 413 841 451 841 562 c 0
 841 649 746 716 585 716 c 0
 338 716 209 560 144 366 c 2
 20 -2 l 1
 195 -2 l 1
 318 350 l 2
 361 473 441 565 558 565 c 0
 618 565 656 545 656 509 c 0
 656 449 517 428 517 348 c 0
 517 262 586 270 586 191 c 0
 586 147 545 129 492 129 c 0
 446 129 401 145 344 171 c 1
 305 34 l 1
 371 6 468 -12 553 -12 c 0
EndSplineSet
EndChar

StartChar: Zacute
Encoding: 377 377 373
Width: 582
VWidth: 0
Flags: HW
LayerCount: 2
Fore
SplineSet
183 548 m 1
 236 700 l 1
 762 699 l 1
 262 147 l 1
 536 146 l 1
 484 0 l 1
 -54 0 l 1
 442 547 l 1
 183 548 l 1
738 920 m 1
 523 778 l 1
 446 824 l 1
 637 977 l 1
 738 920 l 1
EndSplineSet
EndChar

StartChar: zacute
Encoding: 378 378 374
Width: 490
VWidth: 0
Flags: HW
LayerCount: 2
Fore
SplineSet
289 322 m 1
 106 323 l 1
 155 460 l 1
 588 459 l 1
 262 138 l 1
 443 137 l 1
 395 0 l 1
 -48 0 l 1
 289 322 l 1
611 682 m 1
 396 540 l 1
 319 586 l 1
 510 739 l 1
 611 682 l 1
EndSplineSet
EndChar

StartChar: Zdotaccent
Encoding: 379 379 375
Width: 582
VWidth: 0
Flags: HW
LayerCount: 2
Fore
SplineSet
183 548 m 1
 236 700 l 1
 762 699 l 1
 262 147 l 1
 536 146 l 1
 484 0 l 1
 -54 0 l 1
 442 547 l 1
 183 548 l 1
466 861 m 0
 478 903 529 940 572 939 c 0
 616 938 647 900 635 856 c 0
 623 814 571 776 528 777 c 0
 484 778 454 817 466 861 c 0
EndSplineSet
EndChar

StartChar: zdotaccent
Encoding: 380 380 376
Width: 490
VWidth: 0
Flags: HW
LayerCount: 2
Fore
SplineSet
289 322 m 1
 106 323 l 1
 155 460 l 1
 588 459 l 1
 262 138 l 1
 443 137 l 1
 395 0 l 1
 -48 0 l 1
 289 322 l 1
339 626 m 0
 351 668 403 706 446 705 c 0
 490 704 521 665 509 621 c 0
 497 579 446 542 403 543 c 0
 359 544 327 582 339 626 c 0
EndSplineSet
EndChar

StartChar: Tcaron
Encoding: 356 356 377
Width: 528
VWidth: 0
Flags: HW
LayerCount: 2
Fore
SplineSet
133 548 m 1
 186 700 l 1
 713 700 l 1
 660 548 l 1
 480 548 l 1
 292 0 l 1
 127 0 l 1
 315 548 l 1
 133 548 l 1
511 904 m 1
 626 987 l 1
 709 911 l 1
 483 776 l 1
 337 921 l 1
 454 988 l 1
 511 904 l 1
EndSplineSet
EndChar

StartChar: tcaron
Encoding: 357 357 378
Width: 455
VWidth: 0
Flags: HW
LayerCount: 2
Fore
SplineSet
106 460 m 1
 401 460 l 1
 356 335 l 1
 61 335 l 1
 106 460 l 1
236 620 m 1
 379 620 l 1
 165 0 l 1
 24 0 l 1
 236 620 l 1
567 784 m 1
 709 750 l 1
 506 506 l 1
 396 530 l 1
 567 784 l 1
EndSplineSet
EndChar

StartChar: Uring
Encoding: 366 366 379
Width: 659
VWidth: 0
Flags: HW
LayerCount: 2
Fore
SplineSet
248 700 m 1
 412 700 l 1
 252 242 l 2
 236 188 240 127 309 124 c 0
 380 121 435 183 460 243 c 1
 619 700 l 1
 783 700 l 1
 623 230 l 2
 569 82 438 -28 276 -28 c 0
 123 -28 46 85 88 230 c 0
 248 700 l 1
460 894 m 0
 478 956 546 1006 611 1006 c 0
 676 1006 718 953 700 890 c 0
 682 828 613 777 548 777 c 0
 483 777 442 832 460 894 c 0
536 890 m 0
 531 873 538 848 558 846 c 0
 581 843 617 874 624 894 c 0
 629 911 621 937 601 939 c 0
 578 942 543 910 536 890 c 0
EndSplineSet
EndChar

StartChar: uring
Encoding: 367 367 380
Width: 540
VWidth: 0
Flags: HW
LayerCount: 2
Fore
SplineSet
284 0 m 1
 443 460 l 1
 592 460 l 1
 433 0 l 1
 284 0 l 1
211 180 m 1
 202 148 193 103 238 97 c 0
 287 91 325 144 347 179 c 1
 377 184 l 1
 341 90 274 -9 161 -10 c 0
 54 -11 31 74 56 164 c 1
 157 460 l 1
 310 460 l 1
 211 180 l 1
317 648 m 0
 335 710 403 761 468 761 c 0
 533 761 575 707 557 644 c 0
 539 582 470 532 405 532 c 0
 340 532 299 586 317 648 c 0
393 645 m 0
 388 628 395 602 415 600 c 0
 438 597 473 628 480 648 c 0
 485 665 478 691 458 693 c 0
 435 696 400 665 393 645 c 0
EndSplineSet
EndChar

StartChar: Utilde
Encoding: 360 360 381
Width: 659
VWidth: 0
Flags: HW
LayerCount: 2
Fore
SplineSet
247 700 m 1
 413 700 l 1
 252 242 l 2
 236 189 239 127 308 124 c 0
 379 121 435 183 460 243 c 1
 618 700 l 1
 783 700 l 1
 624 230 l 2
 570 82 439 -28 277 -28 c 0
 124 -28 45 84 87 230 c 0
 247 700 l 1
376 845 m 1
 392 890 462 937 512 935 c 0
 555 933 581 883 624 886 c 0
 656 888 683 917 705 937 c 1
 758 859 l 1
 723 820 668 773 611 778 c 0
 568 782 542 835 498 829 c 0
 469 825 450 801 434 780 c 1
 376 845 l 1
EndSplineSet
EndChar

StartChar: utilde
Encoding: 361 361 382
Width: 540
VWidth: 0
Flags: HW
LayerCount: 2
Fore
SplineSet
284 0 m 1
 443 460 l 1
 592 460 l 1
 434 0 l 1
 284 0 l 1
211 180 m 1
 202 148 192 104 237 98 c 0
 286 92 324 144 346 179 c 1
 377 184 l 1
 341 90 274 -8 162 -10 c 0
 55 -12 31 74 56 164 c 1
 157 460 l 1
 310 460 l 1
 211 180 l 1
234 599 m 1
 264 643 310 692 369 689 c 0
 412 687 438 637 481 640 c 0
 513 642 540 671 562 691 c 1
 615 614 l 1
 580 575 526 528 469 533 c 0
 426 537 398 589 354 583 c 0
 325 579 307 555 291 534 c 1
 234 599 l 1
EndSplineSet
EndChar

StartChar: Umacron
Encoding: 362 362 383
Width: 659
VWidth: 0
Flags: HW
LayerCount: 2
Fore
SplineSet
247 700 m 1
 413 700 l 1
 252 242 l 2
 236 189 239 127 308 124 c 0
 379 121 435 183 460 243 c 1
 618 700 l 1
 783 700 l 1
 624 230 l 2
 570 82 439 -28 277 -28 c 0
 124 -28 45 84 87 230 c 0
 247 700 l 1
366 777 m 1
 407 908 l 1
 763 908 l 1
 721 777 l 1
 366 777 l 1
EndSplineSet
EndChar

StartChar: umacron
Encoding: 363 363 384
Width: 540
VWidth: 0
Flags: HW
LayerCount: 2
Fore
SplineSet
284 0 m 1
 443 460 l 1
 592 460 l 1
 434 0 l 1
 284 0 l 1
211 180 m 1
 202 148 192 104 237 98 c 0
 286 92 324 144 346 179 c 1
 377 184 l 1
 341 90 274 -8 162 -10 c 0
 55 -12 31 74 56 164 c 1
 157 460 l 1
 310 460 l 1
 211 180 l 1
223 531 m 1
 264 662 l 1
 621 662 l 1
 579 531 l 1
 223 531 l 1
EndSplineSet
EndChar

StartChar: Ubreve
Encoding: 364 364 385
Width: 659
VWidth: 0
Flags: HW
LayerCount: 2
Fore
SplineSet
247 700 m 1
 413 700 l 1
 252 242 l 2
 236 189 239 127 308 124 c 0
 379 121 435 183 460 243 c 1
 618 700 l 1
 783 700 l 1
 624 230 l 2
 570 82 439 -28 277 -28 c 0
 124 -28 45 84 87 230 c 0
 247 700 l 1
434 922 m 1
 526 922 l 1
 526 894 529 867 563 864 c 0
 600 861 627 895 647 921 c 1
 747 920 l 1
 713 839 648 778 555 777 c 0
 464 776 425 837 434 922 c 1
EndSplineSet
EndChar

StartChar: ubreve
Encoding: 365 365 386
Width: 540
VWidth: 0
Flags: HW
LayerCount: 2
Fore
SplineSet
284 0 m 1
 443 460 l 1
 592 460 l 1
 434 0 l 1
 284 0 l 1
211 180 m 1
 202 148 192 104 237 98 c 0
 286 92 324 144 346 179 c 1
 377 184 l 1
 341 90 274 -8 162 -10 c 0
 55 -12 31 74 56 164 c 1
 157 460 l 1
 310 460 l 1
 211 180 l 1
291 676 m 1
 383 676 l 1
 383 648 386 621 420 618 c 0
 457 615 484 649 504 675 c 1
 604 674 l 1
 570 593 505 532 412 531 c 0
 321 530 282 591 291 676 c 1
EndSplineSet
EndChar

StartChar: Wcircumflex
Encoding: 372 372 387
Width: 1001
VWidth: 0
Flags: HW
LayerCount: 2
Fore
SplineSet
731 291 m 1
 987 700 l 1
 1188 699 l 1
 660 -46 l 1
 587 375 l 1
 234 -48 l 1
 188 700 l 1
 376 700 l 1
 363 295 l 1
 694 741 l 1
 731 291 l 1
752 883 m 1
 637 800 l 1
 553 877 l 1
 778 1011 l 1
 925 866 l 1
 808 799 l 1
 752 883 l 1
EndSplineSet
EndChar

StartChar: wcircumflex
Encoding: 373 373 388
Width: 715
VWidth: 0
Flags: HW
LayerCount: 2
Fore
SplineSet
98 460 m 1
 244 460 l 1
 252 232 l 1
 470 500 l 1
 502 230 l 1
 671 459 l 1
 834 459 l 1
 438 -34 l 1
 391 239 l 1
 154 -34 l 1
 98 460 l 1
528 642 m 1
 413 560 l 1
 329 636 l 1
 554 771 l 1
 701 625 l 1
 584 558 l 1
 528 642 l 1
EndSplineSet
EndChar

StartChar: Ycircumflex
Encoding: 374 374 389
Width: 620
VWidth: 0
Flags: HW
LayerCount: 2
Fore
SplineSet
617 699 m 1
 816 699 l 1
 436 276 l 1
 340 0 l 1
 172 0 l 1
 274 294 l 1
 186 700 l 1
 365 700 l 1
 402 444 l 1
 617 699 l 1
551 860 m 1
 436 778 l 1
 352 855 l 1
 578 989 l 1
 725 843 l 1
 608 776 l 1
 551 860 l 1
EndSplineSet
EndChar

StartChar: ycircumflex
Encoding: 375 375 390
Width: 489
VWidth: 0
Flags: HW
LayerCount: 2
Fore
SplineSet
610 459 m 1
 94 -219 l 1
 -64 -219 l 1
 139 47 l 1
 96 460 l 1
 250 460 l 1
 264 91 l 1
 185 94 l 1
 450 459 l 1
 610 459 l 1
402 615 m 1
 287 532 l 1
 203 609 l 1
 428 743 l 1
 575 598 l 1
 458 531 l 1
 402 615 l 1
EndSplineSet
EndChar

StartChar: uni0123
Encoding: 291 291 391
Width: 536
VWidth: 0
Flags: HW
LayerCount: 2
Fore
SplineSet
-126 -32 m 1
 11 -34 l 1
 9 -81 19 -115 73 -117 c 0
 147 -119 206 -52 232 11 c 1
 389 460 l 1
 535 460 l 1
 382 10 l 2
 333 -129 220 -238 67 -239 c 0
 -66 -240 -136 -162 -126 -32 c 1
-42 237 m 0
 -7 356 103 471 234 470 c 0
 365 469 390 341 360 236 c 0
 327 122 231 4 103 3 c 0
 -28 2 -74 126 -42 237 c 0
114 235 m 0
 96 186 106 128 167 125 c 0
 229 122 290 183 311 238 c 0
 328 285 324 343 265 347 c 0
 202 351 135 291 114 235 c 0
339 543 m 1
 206 606 l 1
 430 823 l 1
 536 777 l 1
 339 543 l 1
EndSplineSet
EndChar

StartChar: Hbar
Encoding: 294 294 392
Width: 739
VWidth: 0
Flags: HW
LayerCount: 2
Fore
SplineSet
62 294 m 1
 114 445 l 1
 622 445 l 1
 569 294 l 1
 62 294 l 1
597 700 m 1
 768 700 l 1
 526 0 l 1
 360 0 l 1
 597 700 l 1
155 700 m 1
 326 700 l 1
 84 0 l 1
 -82 0 l 1
 155 700 l 1
36 537 m 1
 73 643 l 1
 813 643 l 1
 776 537 l 1
 36 537 l 1
EndSplineSet
EndChar

StartChar: hbar
Encoding: 295 295 393
Width: 534
VWidth: 0
Flags: HW
LayerCount: 2
Fore
SplineSet
323 780 m 1
 54 0 l 1
 -98 0 l 1
 170 780 l 1
 323 780 l 1
285 280 m 1
 294 311 305 356 261 362 c 0
 212 369 174 317 152 282 c 1
 120 283 l 1
 155 377 220 474 332 476 c 0
 440 478 462 391 437 302 c 1
 334 0 l 1
 185 0 l 1
 285 280 l 1
57 597 m 1
 102 728 l 1
 423 728 l 1
 377 597 l 1
 57 597 l 1
EndSplineSet
EndChar

StartChar: uni0400
Encoding: 1024 1024 394
Width: 517
VWidth: 0
Flags: HW
LayerCount: 2
Fore
SplineSet
118 0 m 1
 165 139 l 1
 506 139 l 1
 459 0 l 1
 118 0 l 1
309 561 m 1
 357 700 l 1
 698 700 l 1
 650 561 l 1
 309 561 l 1
220 300 m 1
 267 436 l 1
 589 436 l 1
 542 300 l 1
 220 300 l 1
249 700 m 1
 413 700 l 1
 172 0 l 1
 11 0 l 1
 249 700 l 1
388 932 m 1
 505 980 l 1
 600 811 l 1
 516 776 l 1
 388 932 l 1
EndSplineSet
EndChar

StartChar: uni0401
Encoding: 1025 1025 395
Width: 517
VWidth: 0
Flags: HW
LayerCount: 2
Fore
SplineSet
118 0 m 1
 165 139 l 1
 506 139 l 1
 459 0 l 1
 118 0 l 1
309 561 m 1
 357 700 l 1
 698 700 l 1
 650 561 l 1
 309 561 l 1
220 300 m 1
 267 436 l 1
 589 436 l 1
 542 300 l 1
 220 300 l 1
249 700 m 1
 413 700 l 1
 172 0 l 1
 11 0 l 1
 249 700 l 1
565 861 m 0
 575 903 626 940 669 939 c 0
 714 938 747 900 736 855 c 0
 726 813 675 776 632 777 c 0
 587 778 554 816 565 861 c 0
336 861 m 0
 346 903 396 940 439 939 c 0
 484 938 518 900 507 855 c 0
 497 813 446 776 403 777 c 0
 358 778 325 816 336 861 c 0
EndSplineSet
EndChar

StartChar: uni0403
Encoding: 1027 1027 396
Width: 476
VWidth: 0
Flags: HW
LayerCount: 2
Fore
SplineSet
255 700 m 1
 657 700 l 1
 604 548 l 1
 372 548 l 1
 184 0 l 1
 18 0 l 1
 255 700 l 1
693 918 m 1
 483 777 l 1
 402 826 l 1
 588 977 l 1
 693 918 l 1
EndSplineSet
EndChar

StartChar: uni040C
Encoding: 1036 1036 397
Width: 531
VWidth: 0
Flags: HW
LayerCount: 2
Fore
SplineSet
249 700 m 1
 425 700 l 1
 184 0 l 1
 11 0 l 1
 249 700 l 1
631 699 m 1
 844 699 l 1
 449 361 l 1
 600 0 l 1
 418 0 l 1
 260 379 l 1
 631 699 l 1
730 905 m 1
 519 765 l 1
 437 815 l 1
 625 965 l 1
 730 905 l 1
EndSplineSet
EndChar

StartChar: uni040D
Encoding: 1037 1037 398
Width: 746
VWidth: 0
Flags: HW
LayerCount: 2
Fore
SplineSet
799 516 m 1
 -10 -53 l 1
 79 184 l 1
 888 754 l 1
 799 516 l 1
413 700 m 1
 215 122 l 1
 -10 -53 l 1
 250 700 l 1
 413 700 l 1
888 754 m 1
 627 0 l 1
 464 0 l 1
 660 572 l 1
 888 754 l 1
468 914 m 1
 585 962 l 1
 679 793 l 1
 596 757 l 1
 468 914 l 1
EndSplineSet
EndChar

StartChar: uni040E
Encoding: 1038 1038 399
Width: 569
VWidth: 0
Flags: HW
LayerCount: 2
Fore
SplineSet
774 699 m 1
 224 0 l 1
 47 0 l 1
 221 226 l 1
 178 700 l 1
 346 700 l 1
 353 283 l 1
 278 286 l 1
 594 699 l 1
 774 699 l 1
382 923 m 1
 474 922 l 1
 474 895 476 867 509 864 c 0
 546 860 575 895 594 921 c 1
 696 920 l 1
 664 838 598 777 506 776 c 0
 414 775 374 838 382 923 c 1
EndSplineSet
EndChar

StartChar: uni0410
Encoding: 1040 1040 400
Width: 690
VWidth: 0
Flags: HW
LayerCount: 2
Fore
SplineSet
162 136 m 1
 216 263 l 1
 552 264 l 1
 518 135 l 1
 162 136 l 1
452 443 m 1
 280 216 l 1
 276 177 l 1
 134 0 l 1
 -66 0 l 1
 543 752 l 1
 636 0 l 1
 460 0 l 1
 437 174 l 1
 459 216 l 1
 452 443 l 1
EndSplineSet
EndChar

StartChar: uni0411
Encoding: 1041 1041 401
Width: 632
VWidth: 0
Flags: HW
LayerCount: 2
Fore
SplineSet
168 300 m 1
 211 436 l 1
 452 436 l 1
 573 434 654 340 620 218 c 0
 584 92 460 2 332 0 c 1
 60 0 l 1
 109 139 l 1
 323 139 l 2
 377 141 430 167 452 221 c 0
 472 270 441 296 394 298 c 1
 168 300 l 1
255 700 m 1
 735 700 l 1
 687 561 l 1
 380 561 l 1
 187 0 l 1
 18 0 l 1
 255 700 l 1
EndSplineSet
EndChar

StartChar: uni0412
Encoding: 1042 1042 402
Width: 625
VWidth: 0
Flags: HW
LayerCount: 2
Fore
SplineSet
250 348 m 1
 276 421 l 1
 374 422 l 1
 423 424 479 450 497 498 c 0
 513 541 489 566 447 568 c 1
 378 569 l 1
 222 130 l 1
 290 131 l 1
 350 134 419 160 441 222 c 0
 461 277 423 299 373 303 c 1
 234 305 l 1
 268 396 l 1
 396 396 l 1
 513 393 639 333 602 196 c 0
 565 56 421 3 290 0 c 1
 12 0 l 1
 252 700 l 1
 484 700 l 1
 588 697 710 647 676 521 c 0
 643 399 507 351 393 348 c 2
 250 348 l 1
EndSplineSet
EndChar

StartChar: uni0413
Encoding: 1043 1043 403
Width: 476
VWidth: 0
Flags: HW
LayerCount: 2
Fore
SplineSet
255 700 m 1
 657 700 l 1
 604 548 l 1
 372 548 l 1
 184 0 l 1
 18 0 l 1
 255 700 l 1
EndSplineSet
EndChar

StartChar: uni0414
Encoding: 1044 1044 404
Width: 829
VWidth: 0
Flags: HW
LayerCount: 2
Fore
SplineSet
508 420 m 1
 241 31 l 1
 37 31 l 1
 607 743 l 1
 687 30 l 1
 507 30 l 1
 508 420 l 1
574 0 m 1
 148 0 l 1
 108 -110 l 1
 -59 -110 l 1
 30 146 l 1
 789 146 l 1
 700 -110 l 1
 533 -110 l 1
 574 0 l 1
EndSplineSet
EndChar

StartChar: uni0415
Encoding: 1045 1045 405
Width: 570
VWidth: 0
Flags: HW
LayerCount: 2
Fore
SplineSet
120 0 m 1
 167 139 l 1
 508 139 l 1
 460 0 l 1
 120 0 l 1
310 561 m 1
 359 700 l 1
 700 700 l 1
 652 561 l 1
 310 561 l 1
222 300 m 1
 269 436 l 1
 591 436 l 1
 544 300 l 1
 222 300 l 1
251 700 m 1
 415 700 l 1
 174 0 l 1
 13 0 l 1
 251 700 l 1
EndSplineSet
EndChar

StartChar: uni0416
Encoding: 1046 1046 406
Width: 1021
VWidth: 0
Flags: HW
LayerCount: 2
Fore
SplineSet
378 700 m 1
 543 358 l 1
 144 0 l 1
 -68 0 l 1
 360 383 l 1
 204 700 l 1
 378 700 l 1
609 700 m 1
 786 700 l 1
 544 0 l 1
 372 0 l 1
 609 700 l 1
988 699 m 1
 1206 699 l 1
 806 361 l 1
 962 0 l 1
 781 0 l 1
 626 382 l 1
 988 699 l 1
EndSplineSet
EndChar

StartChar: uni0417
Encoding: 1047 1047 407
Width: 628
VWidth: 0
Flags: HW
LayerCount: 2
Fore
SplineSet
346 338 m 1
 365 414 l 1
 427 420 519 436 542 504 c 0
 558 550 528 575 484 577 c 0
 423 580 377 543 345 495 c 1
 188 497 l 1
 236 633 360 713 503 713 c 0
 615 713 746 651 709 518 c 0
 667 367 477 342 346 338 c 1
288 -16 m 0
 139 -15 36 68 60 222 c 1
 218 221 l 1
 212 158 234 123 300 121 c 0
 362 119 433 148 458 209 c 0
 492 291 394 303 337 307 c 1
 359 392 l 1
 479 389 659 351 616 190 c 0
 578 48 423 -16 288 -16 c 0
EndSplineSet
EndChar

StartChar: uni0418
Encoding: 1048 1048 408
Width: 746
VWidth: 0
Flags: HW
LayerCount: 2
Fore
SplineSet
799 516 m 1
 -10 -53 l 1
 79 184 l 1
 888 754 l 1
 799 516 l 1
413 700 m 1
 215 122 l 1
 -10 -53 l 1
 250 700 l 1
 413 700 l 1
888 754 m 1
 627 0 l 1
 464 0 l 1
 660 572 l 1
 888 754 l 1
EndSplineSet
EndChar

StartChar: uni0419
Encoding: 1049 1049 409
Width: 746
VWidth: 0
Flags: HW
LayerCount: 2
Fore
SplineSet
799 516 m 1
 -10 -53 l 1
 79 184 l 1
 888 754 l 1
 799 516 l 1
413 700 m 1
 215 122 l 1
 -10 -53 l 1
 250 700 l 1
 413 700 l 1
888 754 m 1
 627 0 l 1
 464 0 l 1
 660 572 l 1
 888 754 l 1
469 925 m 1
 561 925 l 1
 562 897 566 870 600 867 c 0
 637 864 663 898 682 924 c 1
 781 923 l 1
 747 842 683 781 590 780 c 0
 499 779 460 840 469 925 c 1
EndSplineSet
EndChar

StartChar: uni041A
Encoding: 1050 1050 410
Width: 661
VWidth: 0
Flags: HW
LayerCount: 2
Fore
SplineSet
249 700 m 1
 425 700 l 1
 184 0 l 1
 11 0 l 1
 249 700 l 1
631 699 m 1
 844 699 l 1
 449 361 l 1
 600 0 l 1
 418 0 l 1
 260 379 l 1
 631 699 l 1
EndSplineSet
EndChar

StartChar: uni041B
Encoding: 1051 1051 411
Width: 724
VWidth: 0
Flags: HW
LayerCount: 2
Fore
SplineSet
840 700 m 1
 599 0 l 1
 428 0 l 1
 616 548 l 1
 407 548 l 1
 322 296 l 2
 261 119 147 14 -42 1 c 1
 -4 142 l 1
 72 161 118 215 146 287 c 1
 289 700 l 1
 840 700 l 1
EndSplineSet
EndChar

StartChar: uni041C
Encoding: 1052 1052 412
Width: 838
VWidth: 0
Flags: HW
LayerCount: 2
Fore
SplineSet
313 354 m 1
 151 0 l 1
 -30 0 l 1
 330 737 l 1
 463 314 l 1
 904 751 l 1
 754 0 l 1
 581 0 l 1
 661 336 l 1
 393 60 l 1
 313 354 l 1
EndSplineSet
EndChar

StartChar: uni041D
Encoding: 1053 1053 413
Width: 740
VWidth: 0
Flags: HW
LayerCount: 2
Fore
SplineSet
156 294 m 1
 208 445 l 1
 716 445 l 1
 663 294 l 1
 156 294 l 1
691 700 m 1
 861 700 l 1
 620 0 l 1
 454 0 l 1
 691 700 l 1
249 700 m 1
 419 700 l 1
 178 0 l 1
 11 0 l 1
 249 700 l 1
EndSplineSet
EndChar

StartChar: uni041E
Encoding: 1054 1054 414
Width: 771
VWidth: 0
Flags: HW
LayerCount: 2
Fore
SplineSet
269 350 m 0
 234 260 248 143 366 140 c 0
 487 137 592 244 634 350 c 0
 670 440 657 557 538 560 c 0
 417 563 310 456 269 350 c 0
92 350 m 0
 153 549 349 716 561 716 c 0
 766 716 866 536 810 350 c 0
 749 150 554 -22 339 -22 c 0
 132 -22 36 164 92 350 c 0
EndSplineSet
EndChar

StartChar: uni041F
Encoding: 1055 1055 415
Width: 725
VWidth: 0
Flags: HW
LayerCount: 2
Fore
SplineSet
619 548 m 1
 375 548 l 1
 187 0 l 1
 16 0 l 1
 256 700 l 1
 840 700 l 1
 600 0 l 1
 430 0 l 1
 619 548 l 1
EndSplineSet
EndChar

StartChar: uni0420
Encoding: 1056 1056 416
Width: 591
VWidth: 0
Flags: HW
LayerCount: 2
Fore
SplineSet
251 700 m 1
 421 700 l 1
 180 0 l 1
 13 0 l 1
 251 700 l 1
307 561 m 1
 352 700 l 1
 470 700 l 1
 606 696 708 614 667 470 c 0
 625 324 488 246 343 242 c 1
 194 242 l 1
 244 381 l 1
 363 382 l 2
 422 384 485 414 508 472 c 0
 528 524 500 558 448 560 c 1
 307 561 l 1
EndSplineSet
EndChar

StartChar: uni0421
Encoding: 1057 1057 417
Width: 658
VWidth: 0
Flags: HW
LayerCount: 2
Fore
SplineSet
274 350 m 0
 236 254 268 150 384 147 c 0
 470 145 552 191 622 236 c 1
 572 54 l 1
 504 12 430 -16 349 -16 c 0
 142 -16 34 159 92 350 c 0
 154 554 353 716 569 716 c 0
 644 716 706 691 764 644 c 1
 712 462 l 1
 675 521 624 554 552 554 c 0
 431 553 318 460 274 350 c 0
EndSplineSet
EndChar

StartChar: uni0422
Encoding: 1058 1058 418
Width: 531
VWidth: 0
Flags: HW
LayerCount: 2
Fore
SplineSet
132 548 m 1
 186 700 l 1
 717 700 l 1
 663 548 l 1
 483 548 l 1
 295 0 l 1
 127 0 l 1
 315 548 l 1
 132 548 l 1
EndSplineSet
EndChar

StartChar: uni0423
Encoding: 1059 1059 419
Width: 581
VWidth: 0
Flags: HW
LayerCount: 2
Fore
SplineSet
786 699 m 1
 236 0 l 1
 53 0 l 1
 227 226 l 1
 178 700 l 1
 351 700 l 1
 359 283 l 1
 284 286 l 1
 600 699 l 1
 786 699 l 1
EndSplineSet
EndChar

StartChar: uni0424
Encoding: 1060 1060 420
Width: 877
VWidth: 0
Flags: HW
LayerCount: 2
Fore
SplineSet
537 700 m 1
 710 700 l 1
 469 0 l 1
 300 0 l 1
 537 700 l 1
741 351 m 0
 779 441 700 470 624 472 c 1
 495 472 l 2
 404 470 305 441 267 349 c 0
 229 259 308 230 384 228 c 1
 513 228 l 2
 604 230 703 259 741 351 c 0
910 349 m 0
 861 181 688 82 521 80 c 1
 333 80 l 1
 179 82 51 187 99 351 c 0
 148 519 320 618 487 620 c 1
 675 620 l 1
 829 618 958 513 910 349 c 0
EndSplineSet
EndChar

StartChar: uni0425
Encoding: 1061 1061 421
Width: 704
VWidth: 0
Flags: HW
LayerCount: 2
Fore
SplineSet
623 699 m 1
 841 699 l 1
 505 346 l 1
 600 0 l 1
 410 0 l 1
 371 224 l 1
 172 0 l 1
 -47 0 l 1
 316 371 l 1
 232 700 l 1
 422 700 l 1
 453 506 l 1
 623 699 l 1
EndSplineSet
EndChar

StartChar: uni0426
Encoding: 1062 1062 422
Width: 808
VWidth: 0
Flags: HW
LayerCount: 2
Fore
SplineSet
231 152 m 1
 504 152 l 1
 692 700 l 1
 864 700 l 1
 676 152 l 1
 780 152 l 1
 681 -135 l 1
 519 -135 l 1
 567 0 l 1
 10 0 l 1
 251 700 l 1
 420 700 l 1
 231 152 l 1
EndSplineSet
EndChar

StartChar: uni0427
Encoding: 1063 1063 423
Width: 674
VWidth: 0
Flags: HW
LayerCount: 2
Fore
SplineSet
321 222 m 1
 411 369 l 1
 573 371 l 1
 520 221 l 1
 321 222 l 1
615 700 m 1
 791 700 l 1
 549 0 l 1
 378 0 l 1
 615 700 l 1
420 699 m 1
 343 489 l 1
 321 419 343 369 411 369 c 1
 321 222 l 1
 189 222 136 341 172 468 c 1
 250 700 l 1
 420 699 l 1
EndSplineSet
EndChar

StartChar: uni0428
Encoding: 1064 1064 424
Width: 1017
VWidth: 0
Flags: HW
LayerCount: 2
Fore
SplineSet
775 152 m 1
 964 700 l 1
 1132 700 l 1
 892 0 l 1
 16 0 l 1
 256 700 l 1
 425 700 l 1
 237 152 l 1
 424 152 l 1
 613 700 l 1
 776 700 l 1
 587 152 l 1
 775 152 l 1
EndSplineSet
EndChar

StartChar: uni0429
Encoding: 1065 1065 425
Width: 1083
VWidth: 0
Flags: HW
LayerCount: 2
Fore
SplineSet
775 152 m 1
 964 700 l 1
 1132 700 l 1
 944 152 l 1
 1049 152 l 1
 950 -135 l 1
 788 -135 l 1
 836 0 l 1
 16 0 l 1
 256 700 l 1
 425 700 l 1
 237 152 l 1
 424 152 l 1
 613 700 l 1
 776 700 l 1
 587 152 l 1
 775 152 l 1
EndSplineSet
EndChar

StartChar: uni042A
Encoding: 1066 1066 426
Width: 692
VWidth: 0
Flags: HW
LayerCount: 2
Fore
SplineSet
328 319 m 1
 374 458 l 1
 492 458 l 2
 628 456 730 372 689 228 c 0
 647 82 510 2 365 0 c 2
 216 0 l 1
 266 139 l 1
 384 139 l 2
 443 141 507 172 530 230 c 0
 550 282 522 316 470 317 c 2
 328 319 l 1
310 549 m 1
 137 549 l 1
 190 700 l 1
 528 700 l 1
 288 0 l 1
 121 0 l 1
 310 549 l 1
EndSplineSet
EndChar

StartChar: uni042B
Encoding: 1067 1067 427
Width: 854
VWidth: 0
Flags: HW
LayerCount: 2
Fore
SplineSet
803 700 m 1
 976 700 l 1
 735 0 l 1
 565 0 l 1
 803 700 l 1
249 700 m 1
 419 700 l 1
 178 0 l 1
 11 0 l 1
 249 700 l 1
222 319 m 1
 268 458 l 1
 385 458 l 2
 521 456 623 372 582 228 c 0
 540 82 404 2 259 0 c 2
 109 0 l 1
 159 139 l 1
 278 139 l 2
 337 141 400 172 423 230 c 0
 443 282 415 316 363 317 c 2
 222 319 l 1
EndSplineSet
EndChar

StartChar: uni042C
Encoding: 1068 1068 428
Width: 585
VWidth: 0
Flags: HW
LayerCount: 2
Fore
SplineSet
249 700 m 1
 419 700 l 1
 178 0 l 1
 11 0 l 1
 249 700 l 1
222 319 m 1
 268 458 l 1
 385 458 l 2
 521 456 623 372 582 228 c 0
 540 82 404 2 259 0 c 2
 109 0 l 1
 159 139 l 1
 278 139 l 2
 337 141 400 172 423 230 c 0
 443 282 415 316 363 317 c 2
 222 319 l 1
EndSplineSet
EndChar

StartChar: uni042D
Encoding: 1069 1069 429
Width: 659
VWidth: 0
Flags: HW
LayerCount: 2
Fore
SplineSet
167 282 m 1
 214 418 l 1
 574 418 l 1
 526 282 l 1
 167 282 l 1
533 350 m 0
 574 452 524 557 408 560 c 0
 325 562 245 521 174 482 c 1
 218 646 l 1
 286 688 360 716 441 716 c 0
 648 716 755 541 697 350 c 0
 635 146 437 -16 221 -16 c 0
 146 -16 83 9 25 56 c 1
 71 219 l 1
 113 169 166 139 235 140 c 0
 360 141 488 236 533 350 c 0
EndSplineSet
EndChar

StartChar: uni042E
Encoding: 1070 1070 430
Width: 1074
VWidth: 0
Flags: HW
LayerCount: 2
Fore
SplineSet
156 294 m 1
 208 445 l 1
 536 445 l 1
 483 294 l 1
 156 294 l 1
249 700 m 1
 419 700 l 1
 178 0 l 1
 11 0 l 1
 249 700 l 1
572 350 m 0
 537 260 550 143 668 140 c 0
 789 137 894 244 936 350 c 0
 972 440 959 557 840 560 c 0
 719 563 613 456 572 350 c 0
395 350 m 0
 456 549 652 716 864 716 c 0
 1069 716 1169 536 1113 350 c 0
 1052 150 857 -22 642 -22 c 0
 435 -22 339 164 395 350 c 0
EndSplineSet
EndChar

StartChar: uni042F
Encoding: 1071 1071 431
Width: 608
VWidth: 0
Flags: HW
LayerCount: 2
Fore
SplineSet
441 316 m 1
 146 0 l 1
 -63 0 l 1
 253 316 l 1
 441 316 l 1
730 700 m 1
 490 0 l 1
 321 0 l 1
 561 700 l 1
 730 700 l 1
579 557 m 1
 460 556 l 2
 401 556 337 522 314 464 c 0
 293 412 321 378 373 375 c 1
 519 373 l 1
 472 243 l 1
 342 242 l 0
 208 246 105 330 146 472 c 0
 187 616 327 698 470 700 c 1
 630 700 l 1
 579 557 l 1
EndSplineSet
EndChar

StartChar: uni0430
Encoding: 1072 1072 432
Width: 511
VWidth: 0
Flags: HW
LayerCount: 2
Fore
SplineSet
158 136 m 0
 150 109 172 91 196 90 c 0
 259 85 302 137 332 185 c 1
 332 127 l 1
 295 46 227 -10 135 -10 c 0
 52 -10 -13 45 10 132 c 0
 37 230 144 278 238 279 c 0
 293 279 339 263 381 228 c 1
 362 159 l 1
 333 183 304 199 265 197 c 0
 228 196 170 176 158 136 c 0
172 317 m 1
 147 423 l 1
 212 451 282 473 354 473 c 0
 444 473 553 427 519 324 c 2
 411 0 l 1
 264 0 l 1
 372 294 l 2
 385 329 365 352 326 356 c 0
 273 362 219 336 172 317 c 1
EndSplineSet
Substitution2: "alt a" a.alt
EndChar

StartChar: uni0431
Encoding: 1073 1073 433
Width: 571
VWidth: 0
Flags: HW
LayerCount: 2
Fore
SplineSet
362 346 m 1
 414 468 l 1
 544 468 614 361 580 229 c 0
 544 91 410 -9 269 -10 c 0
 101 -11 76 132 76 198 c 1
 222 188 l 1
 222 159 229 116 282 116 c 0
 346 116 407 174 427 231 c 0
 449 295 422 346 362 346 c 1
163 232 m 1
 204 359 276 468 414 468 c 1
 362 346 l 1
 297 346 222 293 222 188 c 1
 163 232 l 1
76 198 m 1
 76 397 215 592 374 662 c 0
 442 692 506 718 553 779 c 1
 700 778 l 1
 653 673 562 616 460 572 c 0
 360 529 231 427 220 306 c 1
 222 188 l 1
 76 198 l 1
EndSplineSet
EndChar

StartChar: uni0432
Encoding: 1074 1074 434
Width: 493
VWidth: 0
Flags: HW
LayerCount: 2
Fore
SplineSet
175 239 m 1
 322 240 l 2
 395 238 479 213 457 123 c 0
 438 45 361 0 286 0 c 2
 94 0 l 1
 128 94 l 1
 244 94 l 2
 272 94 313 113 324 143 c 0
 333 169 315 185 293 185 c 2
 161 186 l 1
 175 239 l 1
174 221 m 1
 190 278 l 1
 300 279 l 2
 326 279 358 297 368 324 c 0
 376 345 365 365 345 365 c 2
 217 366 l 1
 252 460 l 1
 388 460 l 2
 462 458 535 417 511 333 c 0
 489 255 406 224 332 221 c 2
 174 221 l 1
168 460 m 1
 316 460 l 1
 156 0 l 1
 13 0 l 1
 168 460 l 1
EndSplineSet
EndChar

StartChar: uni0433
Encoding: 1075 1075 435
Width: 336
VWidth: 0
Flags: HW
LayerCount: 2
Fore
SplineSet
155 460 m 1
 443 460 l 1
 399 335 l 1
 263 335 l 1
 146 0 l 1
 -0 0 l 1
 155 460 l 1
EndSplineSet
EndChar

StartChar: uni0434
Encoding: 1076 1076 436
Width: 662
VWidth: 0
Flags: HW
LayerCount: 2
Fore
SplineSet
375 270 m 1
 191 32 l 1
 47 67 l 1
 439 501 l 1
 534 58 l 1
 391 27 l 1
 375 270 l 1
432 0 m 1
 128 0 l 1
 95 -90 l 1
 -53 -90 l 1
 20 119 l 1
 613 119 l 1
 539 -90 l 1
 398 -90 l 1
 432 0 l 1
EndSplineSet
EndChar

StartChar: uni0435
Encoding: 1077 1077 437
Width: 540
VWidth: 0
Flags: HW
LayerCount: 2
Fore
SplineSet
130 198 m 1
 155 281 l 1
 396 282 l 1
 404 320 404 365 354 368 c 0
 287 373 241 305 215 253 c 2
 204 229 l 1
 186 179 180 106 249 101 c 0
 297 97 340 129 375 158 c 1
 505 122 l 1
 437 43 346 -11 240 -10 c 0
 102 -9 20 96 56 231 c 0
 60 248 66 263 73 279 c 0
 125 393 242 470 368 470 c 0
 507 470 575 368 544 236 c 0
 541 223 536 211 532 198 c 1
 130 198 l 1
EndSplineSet
EndChar

StartChar: uni0436
Encoding: 1078 1078 438
Width: 828
VWidth: 0
Flags: HW
LayerCount: 2
Fore
SplineSet
736 459 m 1
 927 459 l 1
 660 256 l 1
 769 0 l 1
 617 0 l 1
 496 281 l 1
 736 459 l 1
590 460 m 1
 432 0 l 1
 288 0 l 1
 446 460 l 1
 590 460 l 1
278 460 m 1
 410 259 l 1
 122 0 l 1
 -67 0 l 1
 243 278 l 1
 129 460 l 1
 278 460 l 1
EndSplineSet
EndChar

StartChar: uni0437
Encoding: 1079 1079 439
Width: 505
VWidth: 0
Flags: HW
LayerCount: 2
Fore
SplineSet
280 229 m 1
 297 285 l 1
 321 290 361 298 370 326 c 0
 375 342 362 359 340 359 c 0
 308 360 288 334 275 308 c 1
 135 310 l 1
 172 403 250 468 354 469 c 0
 431 470 532 425 508 332 c 0
 483 237 359 232 280 229 c 1
220 -10 m 0
 112 -10 47 50 50 158 c 1
 183 157 l 1
 187 127 194 99 236 98 c 0
 277 97 314 121 324 153 c 0
 336 192 299 199 272 204 c 1
 289 260 l 1
 363 256 484 237 459 133 c 0
 435 34 311 -10 220 -10 c 0
EndSplineSet
EndChar

StartChar: uni0438
Encoding: 1080 1080 440
Width: 556
VWidth: 0
Flags: HW
LayerCount: 2
Fore
SplineSet
555 323 m 1
 -22 -51 l 1
 51 137 l 1
 626 512 l 1
 555 323 l 1
303 460 m 1
 178 97 l 1
 -22 -51 l 1
 157 460 l 1
 303 460 l 1
626 512 m 1
 449 0 l 1
 303 0 l 1
 427 363 l 1
 626 512 l 1
EndSplineSet
EndChar

StartChar: uni0439
Encoding: 1081 1081 441
Width: 556
VWidth: 0
Flags: HW
LayerCount: 2
Fore
SplineSet
555 323 m 1
 -22 -51 l 1
 51 137 l 1
 626 512 l 1
 555 323 l 1
303 460 m 1
 178 97 l 1
 -22 -51 l 1
 157 460 l 1
 303 460 l 1
626 512 m 1
 449 0 l 1
 303 0 l 1
 427 363 l 1
 626 512 l 1
284 693 m 1
 376 693 l 1
 377 665 381 638 415 635 c 0
 452 632 478 666 497 692 c 1
 596 691 l 1
 562 610 498 549 405 548 c 0
 314 547 275 608 284 693 c 1
EndSplineSet
EndChar

StartChar: uni043A
Encoding: 1082 1082 442
Width: 532
VWidth: 0
Flags: HW
LayerCount: 2
Fore
SplineSet
152 460 m 1
 300 460 l 1
 140 0 l 1
 -4 0 l 1
 152 460 l 1
438 459 m 1
 635 459 l 1
 369 260 l 1
 477 0 l 1
 322 0 l 1
 202 281 l 1
 438 459 l 1
EndSplineSet
EndChar

StartChar: uni043B
Encoding: 1083 1083 443
Width: 586
VWidth: 0
Flags: HW
LayerCount: 2
Fore
SplineSet
620 460 m 1
 461 0 l 1
 315 0 l 1
 427 322 l 1
 276 322 l 1
 222 159 l 1
 178 37 76 8 -43 1 c 1
 -6 134 l 1
 36 142 65 157 85 198 c 1
 177 460 l 1
 620 460 l 1
EndSplineSet
EndChar

StartChar: uni043C
Encoding: 1084 1084 444
Width: 617
VWidth: 0
Flags: HW
LayerCount: 2
Fore
SplineSet
414 0 m 1
 464 329 l 1
 601 509 l 1
 559 0 l 1
 414 0 l 1
270 144 m 1
 601 509 l 1
 538 280 l 1
 246 -34 l 1
 270 144 l 1
246 -34 m 1
 170 306 l 1
 248 499 l 1
 327 117 l 1
 246 -34 l 1
-59 0 m 1
 248 499 l 1
 260 299 l 1
 100 0 l 1
 -59 0 l 1
EndSplineSet
EndChar

StartChar: uni043D
Encoding: 1085 1085 445
Width: 577
VWidth: 0
Flags: HW
LayerCount: 2
Fore
SplineSet
106 187 m 1
 144 299 l 1
 502 299 l 1
 464 187 l 1
 106 187 l 1
484 460 m 1
 632 460 l 1
 472 0 l 1
 328 0 l 1
 484 460 l 1
154 460 m 1
 302 460 l 1
 142 0 l 1
 -2 0 l 1
 154 460 l 1
EndSplineSet
EndChar

StartChar: uni043E
Encoding: 1086 1086 446
Width: 554
VWidth: 0
Flags: HW
LayerCount: 2
Fore
SplineSet
50 231 m 0
 89 368 227 470 369 470 c 0
 505 470 591 361 553 229 c 0
 514 92 377 -10 235 -10 c 0
 99 -10 12 99 50 231 c 0
202 229 m 0
 184 183 190 119 251 116 c 0
 315 113 378 175 401 231 c 0
 419 277 413 342 352 345 c 0
 288 348 225 285 202 229 c 0
EndSplineSet
EndChar

StartChar: uni043F
Encoding: 1087 1087 447
Width: 540
VWidth: 0
Flags: HW
LayerCount: 2
Fore
SplineSet
593 460 m 1
 435 0 l 1
 288 0 l 1
 402 329 l 1
 256 329 l 1
 142 0 l 1
 -4 0 l 1
 155 460 l 1
 593 460 l 1
EndSplineSet
EndChar

StartChar: uni0440
Encoding: 1088 1088 448
Width: 580
VWidth: 0
Flags: HW
LayerCount: 2
Fore
SplineSet
73 -220 m 1
 -81 -220 l 1
 154 460 l 1
 304 460 l 1
 73 -220 l 1
579 229 m 0
 543 108 434 -17 299 -16 c 0
 162 -15 156 129 186 231 c 0
 220 346 307 474 439 476 c 0
 575 478 611 339 579 229 c 0
424 232 m 0
 442 281 431 339 370 341 c 0
 308 343 246 283 225 228 c 0
 207 181 214 123 273 119 c 0
 336 115 403 176 424 232 c 0
EndSplineSet
EndChar

StartChar: uni0441
Encoding: 1089 1089 449
Width: 459
VWidth: 0
Flags: HW
LayerCount: 2
Fore
SplineSet
201 229 m 0
 179 173 198 117 263 113 c 0
 321 110 375 145 420 178 c 1
 382 31 l 1
 336 6 289 -10 236 -10 c 0
 100 -10 11 98 49 231 c 0
 89 371 228 469 371 470 c 0
 423 470 466 455 508 429 c 1
 468 282 l 1
 448 324 418 349 369 349 c 0
 299 348 226 292 201 229 c 0
EndSplineSet
EndChar

StartChar: uni0442
Encoding: 1090 1090 450
Width: 313
VWidth: 0
Flags: HW
LayerCount: 2
Fore
SplineSet
104 460 m 1
 417 460 l 1
 372 335 l 1
 59 335 l 1
 104 460 l 1
179 440 m 1
 327 440 l 1
 174 0 l 1
 30 0 l 1
 179 440 l 1
EndSplineSet
EndChar

StartChar: uni0443
Encoding: 1091 1091 451
Width: 489
VWidth: 0
Flags: HW
LayerCount: 2
Fore
SplineSet
610 459 m 1
 94 -219 l 1
 -64 -219 l 1
 139 47 l 1
 96 460 l 1
 250 460 l 1
 264 91 l 1
 185 94 l 1
 450 459 l 1
 610 459 l 1
EndSplineSet
EndChar

StartChar: uni0444
Encoding: 1092 1092 452
Width: 627
VWidth: 0
Flags: HW
LayerCount: 2
Fore
SplineSet
379 560 m 1
 524 560 l 1
 296 -100 l 1
 155 -100 l 1
 379 560 l 1
51 231 m 0
 94 385 254 471 406 471 c 0
 546 471 669 381 626 229 c 0
 583 75 423 -10 271 -10 c 0
 131 -10 8 79 51 231 c 0
186 229 m 0
 154 152 217 117 286 116 c 0
 367 115 458 151 491 231 c 0
 523 308 460 344 391 345 c 0
 310 346 219 309 186 229 c 0
EndSplineSet
EndChar

StartChar: uni0445
Encoding: 1093 1093 453
Width: 500
VWidth: 0
Flags: HW
LayerCount: 2
Fore
SplineSet
432 460 m 1
 606 460 l 1
 358 229 l 1
 456 0 l 1
 305 0 l 1
 254 136 l 1
 129 0 l 1
 -51 0 l 1
 207 250 l 1
 119 460 l 1
 275 460 l 1
 314 343 l 1
 432 460 l 1
EndSplineSet
EndChar

StartChar: uni0446
Encoding: 1094 1094 454
Width: 584
VWidth: 0
Flags: HW
LayerCount: 2
Fore
SplineSet
482 125 m 1
 561 125 l 1
 481 -102 l 1
 339 -102 l 1
 376 0 l 1
 -3 0 l 1
 155 460 l 1
 307 460 l 1
 191 125 l 1
 331 125 l 1
 448 460 l 1
 598 460 l 1
 482 125 l 1
EndSplineSet
EndChar

StartChar: uni0447
Encoding: 1095 1095 455
Width: 514
VWidth: 0
Flags: HW
LayerCount: 2
Fore
SplineSet
211 117 m 1
 278 239 l 1
 398 240 l 1
 354 117 l 1
 211 117 l 1
408 460 m 1
 562 460 l 1
 403 0 l 1
 253 0 l 1
 408 460 l 1
298 459 m 1
 244 315 l 2
 226 268 240 239 278 239 c 1
 211 117 l 1
 84 117 67 217 102 328 c 2
 146 460 l 1
 298 459 l 1
EndSplineSet
EndChar

StartChar: uni0448
Encoding: 1096 1096 456
Width: 786
VWidth: 0
Flags: HW
LayerCount: 2
Fore
SplineSet
452 125 m 1
 577 125 l 1
 693 460 l 1
 840 460 l 1
 681 0 l 1
 -3 0 l 1
 155 460 l 1
 301 460 l 1
 185 125 l 1
 308 125 l 1
 425 460 l 1
 569 460 l 1
 452 125 l 1
EndSplineSet
EndChar

StartChar: uni0449
Encoding: 1097 1097 457
Width: 824
VWidth: 0
Flags: HW
LayerCount: 2
Fore
SplineSet
452 125 m 1
 577 125 l 1
 693 460 l 1
 839 460 l 1
 724 125 l 1
 799 125 l 1
 721 -102 l 1
 579 -102 l 1
 616 0 l 1
 -3 0 l 1
 155 460 l 1
 301 460 l 1
 185 125 l 1
 308 125 l 1
 425 460 l 1
 569 460 l 1
 452 125 l 1
EndSplineSet
EndChar

StartChar: uni044A
Encoding: 1098 1098 458
Width: 575
VWidth: 0
Flags: HW
LayerCount: 2
Fore
SplineSet
256 208 m 1
 286 304 l 1
 410 305 l 2
 495 306 560 252 536 161 c 0
 512 70 426 2 334 1 c 2
 181 0 l 1
 223 116 l 1
 323 116 l 2
 352 116 386 133 398 163 c 0
 408 187 392 206 370 206 c 2
 256 208 l 1
194 335 m 1
 59 335 l 1
 104 460 l 1
 375 460 l 1
 217 0 l 1
 79 0 l 1
 194 335 l 1
EndSplineSet
EndChar

StartChar: uni044B
Encoding: 1099 1099 459
Width: 717
VWidth: 0
Flags: HW
LayerCount: 2
Fore
SplineSet
618 460 m 1
 772 460 l 1
 611 0 l 1
 462 0 l 1
 618 460 l 1
154 460 m 1
 308 460 l 1
 148 0 l 1
 -2 0 l 1
 154 460 l 1
184 208 m 1
 215 304 l 1
 339 305 l 2
 424 306 489 252 465 161 c 0
 441 70 354 2 262 1 c 2
 109 0 l 1
 150 116 l 1
 251 116 l 2
 280 116 314 133 326 163 c 0
 336 187 321 206 299 206 c 2
 184 208 l 1
EndSplineSet
EndChar

StartChar: uni044C
Encoding: 1100 1100 460
Width: 512
VWidth: 0
Flags: HW
LayerCount: 2
Fore
SplineSet
159 460 m 1
 313 460 l 1
 154 0 l 1
 4 0 l 1
 159 460 l 1
190 208 m 1
 221 304 l 1
 344 305 l 2
 429 306 494 252 470 161 c 0
 446 70 360 2 268 1 c 2
 114 0 l 1
 157 116 l 1
 257 116 l 2
 286 116 320 133 332 163 c 0
 342 187 328 206 304 206 c 2
 190 208 l 1
EndSplineSet
EndChar

StartChar: uni044D
Encoding: 1101 1101 461
Width: 464
VWidth: 0
Flags: HW
LayerCount: 2
Fore
SplineSet
142 279 m 1
 431 279 l 1
 370 181 l 1
 108 181 l 1
 142 279 l 1
311 231 m 0
 333 287 330 361 257 366 c 0
 199 370 143 334 99 302 c 1
 132 430 l 1
 178 453 226 470 278 470 c 0
 414 471 502 362 464 229 c 0
 424 89 285 -9 142 -10 c 0
 90 -10 46 5 4 33 c 1
 40 160 l 1
 59 117 88 92 138 92 c 0
 217 92 283 162 311 231 c 0
EndSplineSet
EndChar

StartChar: uni044E
Encoding: 1102 1102 462
Width: 771
VWidth: 0
Flags: HW
LayerCount: 2
Fore
SplineSet
105 187 m 1
 145 298 l 1
 408 299 l 1
 368 187 l 1
 105 187 l 1
154 460 m 1
 302 460 l 1
 142 0 l 1
 -2 0 l 1
 154 460 l 1
268 231 m 0
 307 368 444 470 586 470 c 0
 722 470 809 361 771 229 c 0
 732 92 595 -10 453 -10 c 0
 317 -10 230 99 268 231 c 0
420 229 m 0
 402 183 408 119 469 116 c 0
 533 113 595 175 618 231 c 0
 636 277 631 342 570 345 c 0
 506 348 443 285 420 229 c 0
EndSplineSet
EndChar

